<mxfile host="app.diagrams.net" modified="2024-06-19T11:16:59.957Z" agent="Mozilla/5.0 (Windows NT 10.0; Win64; x64) AppleWebKit/537.36 (KHTML, like Gecko) Chrome/121.0.0.0 Safari/537.36" etag="J3Ddh9zw_U9gfBQKQN2u" version="24.5.5" type="device">
  <diagram name="PÃ¡gina-1" id="HdGTkWyh92yAQT41dvv-">
    <mxGraphModel dx="1434" dy="772" grid="1" gridSize="10" guides="1" tooltips="1" connect="1" arrows="1" fold="1" page="1" pageScale="1" pageWidth="827" pageHeight="1169" math="0" shadow="0">
      <root>
        <mxCell id="0" />
        <mxCell id="1" parent="0" />
        <mxCell id="CFl3t25OoQzxc6tuMggZ-1" value="" style="rounded=0;whiteSpace=wrap;html=1;fillColor=#fff2cc;strokeColor=#d6b656;" parent="1" vertex="1">
          <mxGeometry x="100" y="100" width="760" height="580" as="geometry" />
        </mxCell>
        <mxCell id="CFl3t25OoQzxc6tuMggZ-2" value="" style="shape=image;html=1;verticalLabelPosition=bottom;verticalAlign=top;imageAspect=1;aspect=fixed;image=data:image/png,iVBORw0KGgoAAAANSUhEUgAAApsAAAF2CAYAAAAhoFOlAAAAAXNSR0IArs4c6QAAIABJREFUeF7svQmYJFd5JXpiyaUya++q6n3vVndLrQUtRggBkhA7GAyDAbP5GfDYZvlswJjBBs+Mn7EZsHlsNvbzMAabARvZgNlBYpGEdiEB6kXqfe/al9wzMiLeO/+NmxWV6pYGDzkY15/fV50dGRE3bpy4cePE+TcH+lEEFAFFQBFQBBQBRUARUAS6hIDTpXa1WUVAEVAEFAFFQBFQBBQBRQBKNnUQKAKKgCKgCCgCioAioAh0DQElm12DVhtWBBQBRUARUAQUAUVAEVCyqWNAEVAEFAFFQBFQBBQBRaBrCCjZ7Bq02rAioAgoAoqAIqAIKAKKgJJNHQOKgCKgCCgCioAioAgoAl1DQMlm16DVhhUBRUARUAQUAUVAEVAElGzqGFAEFAFFQBFQBBQBRUAR6BoCSja7Bq02rAgoAoqAIqAIKAKKgCKgZFPHgCKgCCgCioAioAgoAopA1xBQstk1aLVhRUARUAQUAUVAEVAEFAElmzoGFAFFQBFQBBQBRUARUAS6hoCSza5Bqw0rAoqAIqAIKAKKgCKgCCjZ1DGgCCgCioAioAgoAoqAItA1BJRsdg1abVgRUAQUAUVAEVAEFAFFQMmmjgFFQBFQBBQBRUARUAQUga4hoGSza9Bqw4qAIqAIKAKKgCKgCCgCSjZ1DCgCioAioAgoAoqAIqAIdA0BJZtdg1YbVgQUAUVAEVAEFAFFQBFQsqljQBFQBBQBRUARUAQUAUWgawgo2ewatNqwIqAIKAKKgCKgCCgCioCSTR0DioAioAgoAoqAIqAIKAJdQ0DJZteg1YYVAUVAEVAEFAFFQBFQBJRs6hhQBBQBRUARUAQUAUVAEegaAko2uwatNqwIKAKKgCKgCCgCioAioGRTx4AioAgoAoqAIqAIKAKKQNcQULLZNWi1YUVAEVAEFAFFQBFQBBQBJZs6BhQBRUARUAQUAUVAEVAEuoaAks2uQasNKwKKgCKgCCgCioAioAgo2dQxoAgoAoqAIqAIKAKKgCLQNQSUbHYNWm1YEVAEFAFFQBFQBBQBRUDJpo4BRUARUAQUAUVAEVAEFIGuIaBks2vQasOKgCKgCCgCioAioAgoAko2dQwoAoqAIqAIKAKKgCKgCHQNASWbXYNWG1YEFAFFQBFQBBQBRUARULKpY0ARUAQUAUVAEVAEFAFFoGsIKNnsGrTasCKgCCgCioAioAgoAoqAkk0dA4qAIqAIKAKKgCKgCCgCXUNAyWbXoNWGFQFFQBFQBBQBRUARUASUbOoYUAQUAUVAEVAEFAFFQBHoGgJKNrsGrTasCCgCioAioAgoAoqAIqBkU8eAIqAIKAKKgCKgCCgCikDXEFCy2TVotWFFQBFQBBQBRUARUAQUASWbOgYUAUVAEVAEFAFFQBFQBLqGgJLNrkGrDSsCioAioAgoAoqAIqAIKNnUMaAIKAKKgCKgCCgCioAi0DUElGx2DVptWBFQBBQBRUARUAQUAUVAyaaOAUVAEVAEFAFFQBFQBBSBriGgZLNr0GrDioAioAgoAoqAIqAIKAJKNnUMKAKKgCKgCCgCioAioAh0DQElm12DVhtWBBQBRUARUAQUAUVAEVCyqWNAEVAEFAFFQBFQBBQBRaBrCCjZ7Bq02rAioAgoAoqAIqAIKAKKgJJNHQOKgCKgCCgCioAioAgoAl1DQMlm16DVhhUBRUARUAQUAUVAEVAElGzqGFAEFAFFQBFQBBQBRUAR6BoCSja7Bq02rAgoAoqAIqAIKAKKgCKgZFPHgCKgCCgCioAioAgoAopA1xBQstk1aLVhRUARUAQUAUVAEVAEFAElmzoGFAFFQBFQBBQBRUARUAS6hoCSza5Bqw0rAoqAIqAIKAKKgCKgCCjZ1DGgCCgCioAioAgoAoqAItA1BJRsdg1abVgRUAQUAUVAEVAEFAFFQMmmjgFFQBFQBBQBRUARUAQUga4hoGSza9Bqw4qAIqAIKAKKgCKgCCgCSjZ1DCgCioAioAgoAoqAIqAIdA0BJZtdg1YbVgQUAUVAEVAEFAFFQBFQsqljQBFQBBQBRUARUAQUAUWgawgo2ewatNqwIqAIKAKKgCKgCCgCioCSTR0DioAioAgoAoqAIqAIKAJdQ0DJZteg1YYVAUVAEVAEFAFFQBFQBJRs6hhQBBQBRUARUAQUAUVAEegaAko2uwatNqwIKAKKgCKgCCgCioAioGRTx4AioAgoAoqAIqAIKAKKQNcQULLZNWi1YUVAEVAEFAFFQBFQBBQBJZs6BhQBRUARUAQUAUVAEVAEuoaAks2uQasNKwKKgCKgCCgCioAioAgo2dQxoAgoAoqAIqAIKAKKgCLQNQSUbHYNWm1YEVAEFAFFQBFQBBQBRUDJpo4BRUARUAQUAUVAEVAEFIGuIaBks2vQasOKgCKgCCgCioAioAgoAko2dQwoAoqAIqAIKAKKgCKgCHQNASWbXYNWG1YEFAFFQBFQBBQBRUARULKpY0ARUAQUAUVAEVAEFAFFoGsIKNnsGrTasCKgCCgCioAioAgoAoqAkk0dA4qAIqAIKAKKgCKgCCgCXUNAyWbXoNWGFYGfPwTiOPYBFADEAPxSCW5fHxoAQgA5ANVkHU+O23AO4bddPt9Jn2uu4W/pv6hjZ9u2bT+92u3Y1m7DfTwAXM+/INmObXO5sy37mz1W+nzsIWzf+c127DFs33k8+xv3aSXL/L9dl26Dv3fi8XhzMdfz2vDDPvB68Fzs+fCY5zo3e13S+Fgs7LnY87Jtp9u1OPM3e0y7XSbpU6sC5IsGa7bFfdg2l8uO43Re15+/G0N7rAgoAv9bCDzeBPe/1bjurAgoAj8/CMRxnGs2m5vLtdolcYTNQRD05Io9jzQbjULG80pBHNdJNzKZTB0xolarFfuO77bQihH7cQzErutkPTcO4SRkqmW+yVLghK7DNVx2HCFOjhATx/G8OIzjmISpzak8D2iFbUIlJNBB6CME93YA33Wiphs5EUkPP64TOX7sRNk4RNFx4DmOm5CwOIZrupH6OFHkWDJofnbgONKtyBG65EoXHXBDz3OCoOWEcZTNZrPFMAgzjhP7MZBxEOdiOH4Uxy73l2Zcx42iMOPE8GJDFF3E7BPcKIoNUXXlAMk8HDkx3IgN2E8cw2GHUqQ+juI4dmKEMRvz3NiBE8ZAw0HcguOmCafsGSMOXSF/i+viGHGMKHIzfhjFUcSNBF/HCcC2XUSIYnPZHISIncBxEURRVI3juOG4buC6bjw3N3tpX2/xtOv5K6NWOIooajmOU8hk/JLjejcP9vffAmDOcRy+pOhHEVAElikCSjaX6YXX01YE0gjEcezNzc09+Z777/3DQk9h066duwuVSgWHjx0h24lOnjyZdV03zPi5luM6sed5URTGsev6juM4pERw+ee6JCy2aRI07u/EpKJA+9slGXVckDcZQtPex2xoPratJW1yW9dhC5HjxBHgkJ9JA1xF7iaqpiVxJMGO/JSicHZjoYWL0yD3IfOSTwwnCg0/bYURXNech+u6bqGnEEPIrOO4clTzSfVd2vV933RKsPEc15O+t3+Lougx5+AEN9tH0zHSxKSP9Vrd/GLwXaJs8rcw6X9CJDsHfdwIAxDCmP8YsmnbkbaiyPyerIscl2TYCRO10vE8JxNFsTs0NOA0m0G2kM87YRg6iONGb1/fcdd1vlrIF/4qn88f1DtOEVAEli8CSjaX77XXM1cEUvQrXnXw0ME/mp2f/8V/uummsYsuvhTXX389HnzwQRw5cgQiC4YhiZYQn3q9joGBQdTrTXIu+d3+pWFNE7k2A22TLxcJGV1K+JL1hqAtErNF0pYcyzNSIXmkXZf+5vFI9hIC+Jjfj2Jhhrwl3M6QNrZN8sU+9/b2GgIZRwmRNP3sPBYJ37n6Zre1ZPJ8Q/Fc+Nl9bNsJ22z3Nb18rnbTbVI4TvfB9tW2wWWut8ey14PLxCKXy6BWqyGfz6NYLMr14ktKtVzGrl27cPLkye+vXrfqLcVs8Qd6uykCisDyRUDJ5vK99nrmikAbgVKptPvUmVMfHR0de8qhQ4fcP/vgh3DdddfhGc94Bh544AHML5QxOzsr25PAkXC1WiE8L9Mmm2miYknXY/2WJpLnI5W2Hbue3zy2EFsP8BIdM70+fcxzEcBOQnWuYdBJAkmseAx+c38SK36yniGZXPdYnzRBtOSN23fu13ncxyKb6eN1tm/JIrGynyUKbkKMjZeCSKNLSLH9zfavQ2GV7Q0BjzE0NISFhQUZF9z++PHj2LRhA2699VY84bLL7t5xwY5fLhQKx/V2UwQUgeWLgJLN5Xvt9cwVgTTZvGhiavK/DwwMXJHL5fz9jxzEn/zJn+CaJz8FL3vZy3D33XdjcnISpWpVSEZPTw+CIEDGz9Hj8lGqXid57CQ85yKHaeWyUw1MK6eWcPpUNKksppTN9HHTl/d8yuf5hoAlVzxHtsllkilLOkk22WZGDPiLf2nSx7Y7yd75yOT5FM7O9iwJtP1Ot9+57nzHWqJsJmb2NNm0BN8SSusKkCacbINEtdVqIptn3BhE4XzwBw/gSU96Ev7xH/8RN910E/764x//9hOv+oUXOo5T1ttNEVAEli8CSjaX77XXM1cE2gg0Go2Ljx4//olCoecJw8PDXibXg29/+9v4i7/8K1xxxRV4zWtegx/84Ac4PT4uhMsSjyikOrfol2iJiiWHncqiXW8JWtqnMb2tXd9WMVNm+kXiyaibmIxziSk73Y4lY+cjm2lTtAUjTdKskmlJJok22+zv7zeqZNg6r7JpTdDpc7b/7xx65yKb6d/ORTrZRuJTed6R3Gkifzxy3an6WpLN33ksi4MlmzSjO56L6elpPPTQQ7j6F54oJPPDH/4w1q5di4//xcdu+oUrf+GVjuM09XZTBBSB5YuAks3le+31zBWBNgI0oy+UFv6Hl81fmclk0NfXJ0rVffc/gA996EPYuHEjfvd3fxcP/OhHOHjQxHpks1kETePLaBVF26AlhJ0+k2kyei5ymW7L/t8SzjTxtOuySeh2536dpO5cx+I251MU7Tp7XtZns9VqLZJNj96qjzY/d5JLi8m5TOKPRzrtPtb03tnfx+r/+Yhtuh9pk35nP7nOYs51PPc0OW/F9F91UG828LWvfQ3XXnst7rnrbnz0ox8VUrpt2za894/+77+94vLLf12i3PWjCCgCyxYBJZvL9tLriSsCiwjMlMuX1CulTzSD6IpCoSAm8lwuh0KxD7fffjs++clPYnR0FL/zO2/FXGkB3/3udzE9NYvhkRVCNNvm3MgEk9CDMa2StUmTNTlbX0fJ/rMYXNT5f0t42H4n2WSWn4zrSXaiThN8J+FLK5udJIxBRovpQhenxDAJgrFmdPlOgqRIxl3X+moaP870xx4vbXpmUiQmH7Lf7X6kgpH4W0T/ySQEnBH+XE6TwiVqbEcgU7oP6bM6Hyll+7HJcMS8Uuzco87DY96kRNWE4xl3AseQz2argU984hP4zd/8TXzmM5/B//z7T4sPZ6PRwJo1a/Bf//N/+fATLr30bY7jJGmt9K5TBBSB5YiAks3leNX1nBWBDgTKjfLFM9MLfxNF4VV9fX0OMxKRTIShUbf27d2P973/v2Hz5q2icJ49exYHDh3C0ZPHUewvMguREJJCvoic66NRryOfycJ3DUlkNkvx8YsCRFQEkyAjyVeUSthjyabnZtrBMyRu6aAgq2JyW1/SCJmTebwgozTJFDLIH8IITKhJjZJJj0i2Fokx4PieECeqvXErlPPxPQ8k5PyNB2caIp7buRTetKJ6LkrrhrGkjEr3zWwXCfmLmGh0Sd7NdKpQskBuvdhnIauJmwPXeCTIybVOE1bplxPBjUIhm5Id1HMRxryOgiZ8B8hlfczOTInbAM93ZnYe2UIRvf1FPPzww/jSl76CF7/4xbjlllvET3NgoK+NH19O/uBdf/Anl+3e/W7HcTpznOo9qAgoAssIASWby+hi66kqAudDoNRo7JqZmvybIAiu7unpcUk4qG729vaj2WxioH9Q0iC97/0fwMqVK/H2t70DsRvjgR8+iFNnTsL3s+gr9mJ+dgE92Rx68nk0a3Vk/YyQKZOoMRJFLPKY/tyD57vIklTGi0SR/p9WKbVqadr/0xBK5rqkn2gs5O+xUh+lA186Te2yTKVRctAbk3rbF9UyPM9F0Gohn8sJHpYcDvb1i/LLDJ825yUJG8mvVS55rk4UyzmL/6YtG2SJLskg04SmLopJMrroE9uOBrfbpNYJSU/SdDJIi3nbTdpS5mPn8ULQp1ZIdLLeFvfh9q6kkA+Zhx2hA8Sej5j9j0y6I66Pmg0UC3k5eqlUwuDQqLwofP2Wb+Hw4cO44YYb8OUvf1n8NDds2CBt0b2CbgcrVqzAO97+jj+89KKL/ljJps49isDyRkDJ5vK+/nr2ioAgsFCv75ibmf5/G43gmmw265Es8K9Q6JX183MLGBsbw979D+ODH/yg5Jl805vehFwmiz179mB2fk6U0Gw+bxQ/Bg6RVKVylhuSaAo4MqiEBMx3M21F0JDKRbK5RNFMTO2GMErNIflmRLpVBdOmcvt/6zPaeZkNqTRE8FwfIZ4JAW2GLeT8jIlIpzkfDvp7++T/PKe28pgktrcJ7mn+tsoi+8NjcV9+L6nzszSp/aIfqROhZWTG83/sepq/E2WW3xEzkMYmNZWpHGkrSBqyTlIptYtCE/QjKZCobro+c8bLx+V/WgFaQQO9haKo3I2giWPHT+KOu+/CFVddjvvvv1/IJt0KOF44LkwQEZgeKn77W9/6ny7eddEHlGzqRKMILG8ElGwu7+uvZ68ICAL1en3b5PT0X1XrjadlMhlvMfLYlwTuhZ6iEIlWFIvC+a1vfQsTZ8fxa695LXbt2oHv3vo9LJTLKDdqQjYZOMT0QCQ7Vrk0FYaoYjI/ZlJVh3Un5XdDMtNk0hQmMqRS2pF9uZ2NgI/hZ5J9kqqS4r/pGSK1aIamD6kLh9V72t9mfSNsJUokSWAMFn8kb+M3l0lWbXCQkE2a7QEMDwyKqhqxQmTKDJ72UyWuQmo71tshR9IppFZqdpqqmFQruWy+6QvqtcmpJalpsmr9LdvHShq35JZkUkz8icKaHu5UQb3YVOuU5O5Jf4S8x4YY57IZVBZKolrzut51112455578LTrr8M999+Hf/nyFzEwMCDXjkrmzMyM+GzW61X6+Dbe8LrX/e7unRf+hZJNnWgUgeWNgJLN5X399ewVAUGgVqttnpye/thCpfpMz3U9U7pb6qAn6XUWSy+SgB0+fBRf+uK/YH56Cq9+1Sux9YLteGjfXpwcPyXkiqQ0k8uh0Wgi42aM76aoabZAuDEt+1QMhVCaICFD1gzJFDO5n22bzdMk05rRZXuSUZJLl56XxvfQKojmO4Ib07xNMunKsl0fUcnjqYbcLmx/OxG3N+Zsa9Zv+5aGkai82YwvqY+EnKXKXqaDhdqkr0O9tMOONDiteKaVz8iNELLsfJt8WhK66OdKU3m7rY5Ao7TCSrnS+m6KSV+2ZVWoCG5C+PkbybOomiJAu/Ac32DqRJJDk0STpvN9D+/HP3/x8+gb6JWE7vTPpLLN8cIcrLVahb+VX/PqV7/lwu07PpmUt9S7TRFQBJYpAko2l+mF19NWBNIIVOPqhsnT0x+eny8/z3EcX7TApGIOffBqtbqQTv6fJlOSwcMHD+HUseP43ve+g5e+7KW4+slXox4GKFUW4HoZTExPodDTJ8E9vuObqHFaaxEhk5CzWqMlih5JDSVQo/Dxm7UoY0igdGrZIWkkeUzWCwFMFEF+pxVCMqaYwTKJryQ1Pu5vvo2CGPO4bDMhap25LcMoaBNJkmxGvzNgSFTepsnmI1WMUtHo7baShO+POdI6otgf1Q+Gghs6K/8ujSongVwad9PZf7tPOyo+IfTGP9URsmmDsSRQyjGuCSaAii8IGeRyDm666ct4ZN9ePPd5z5Z8ml/4whfQN9gvLwJ9A/3tkpXWx5T5N7PZ7PxrX/Wa3965ffunlGzqfKMILG8ElGwu7+uvZ68ICAKVuLJm8tTsn83Oz78kjuMMg0RIEpthKIExjL4m2eL/SURIOvuL/Tj48BHUq1WcmTiFHTu2w8+ZABnhgK6LMHGKJLGxZJNkhu6B/MXz84my5yXKI7mfUSD5nfNzSxRJ/h4iJA0ShTLLNDwpj0Sa59vLNEMzFVM7cAfwGSjjmUAefsIgIWtJvk47HKyKmc9mheAxSEqIm+MJBiMjw+Lb2GrZPJtmT/6WJnxhGCyJJl9CGKNQiKrxqTT7pWuVi9KYuGx2ktDF5XOTTVJsMfsnVY/oCmAOYs7bukm0STLTLUUhXKq7TiSuA0Erwpmzc7jttjvlnF/84hdhYWEOn/uHz0q7zLPJgCA/mwH9Wnm9GTTFOukLs3PYtGnT7Aue/9y37ty6/e/UjK4TjSKwvBFQsrm8r7+evSIgCJTjeOXkyRPvnZyeeVUQBFmJYvZcqX9On7xyuSwExAaCkGwUC30SADQxPo51a8Zwy7e/jkp5Ds1mA9Vq2dTK9rIIopBxJvJhPXPJjZkIdqH4DBrjuommJkkyieL5Z0lSWjlMXzIGraSjsNMR5RLVbULCk3RAjLwm0UqSk0f0wVxUDNtR5WSMkckVGrYiiUSXnJJBIASLquaTrrkW69evR6VSS/xKjTpqCGIqqKczEigV9c5Sm5RuJTkRfUW5b8pvcqlKafNhmsAfG3W+VOk0hFWIZEI2baCXSWNlotO53i4HrYYotEG9gaDZQBxU0QybqFarKFUDHDo6jnxxGH/6vvdhaHgAf/d3f4tyaT4ZDzFc31wnL8tAJFOek9e9Vq4wXdL0f/gPv/SWnVu2/4OSTZ1oFIHljYCSzeV9/fXsFQFBYCGORyaOHfvD0+Pjb2g1w1yUImGub3wqSWRarUTZ9GlezWHNmrVo1iu443s3Y+O6UaxbOQS0moijFprNOrKZgsiY9I0kAWJ0dRi1DOFLPAONGduk7DEBNekIbPt/c3yryLVLZiZR2JKuh7pgKgG6CZ5Jk1i2T0KWHIekrVmDG4thXZKnW3Im5ncer8GIfJPkPiSJYwC3E2PTlm0YGRlBUG+1fR6XqJYS3MMgpMUp1uS2XEwqyiAkE24kNFz+bUfUJwqpJa7ijeoy2bv5FoWSZNoGGXW4Adj0RZYAkgRa07koqCSeco6hpKcSz8w4gIsGwpipkFwgU8SpszUcPjGOl/zyL+PoiZO47fs34+ypk2jUWqJg1huBpLFiX9KR/5Iua2Bg8iUv+qU3btuw4Z/UjK4TjSKwvBFQsrm8r7+evSIgCMRxPHTg2LF3nTxx+k2NVpAXUpbMDlY9M0E8Rsmi8kdyt27dOgz25nD7LV/D3MQJbF+3AkU/Qjbxv6Qp1s1k4WVzcLMZOFmqnR6LmgtJi5jgkZRLoqUjOKLuGfM3o8FtFDX5VeK+uSQ6m8FHNgDIfJvk8fwWC34SjR23WqKwMjG7/RaH0FbD5JtktHvGhyXW9CFlG17EIJoQ9XpTSBW7y3aLg/2i4kUtE2zUzoeZpFSyxFGSpdtPQkDbyySMofGdbG9CX9S2h+Zi7fM0iTbKbBLkc47KRZa8plVeSW8Ukowv5jQV0hm0TOS5uM7SfzNAENVRCyI04x7sPzqPbO9K/NLLXo65yjzuvON7Evxz5uQZk+uU/fWozYZtH1+OD/q1DgwMTLzoBb/4W9s3bvy8kk2daBSB5Y2Aks3lff317BUBSzb7Dhw59ntHjh57a63Z6BFLsph3XbSSKjMkVBmfUeKsMtNCFIZYs2YVxgZ7sefeWzF+ZA+OPHQ3No4NYLiYxXB/P4aGhuFmc8j2FOAVCmJujem0meTZzHlZQzaT1OjUJ6kzCpl1afNO8lgKuU1yQ6YCgcgXJUWQyVckxIn9XkwhZPpPUtVkzshmIN9cJgHLM+k8g2YyPjwhm5klAU3FXEGq+Diuj1xPHtWwhXrQRE9/r7gLZFwqm4/OhWmTsy8dXp1lLV20QiqO55qGrUuB8QmlL+pitD4V0MT3MnUA42qwaM4nmbQkmJAasmmUVUM+STZDUWejWoAoqCNoLmCuNIupUhULjQwyAxegb3QTnv7cF+LwiSN45MCPpaJQZZ4k3aSFIqGmWd66PfAYjWbNkk0qm/+sZFMnGkVgeSOgZHN5X389e0XAks3eg8ePv+3h/QfeUW3UCzT/0mxMQmJS5RizK2Im7Hbh+yZafc2qtdgwNoz7bv063OoEgpmj2L5mAPff/h2EjYohUq4n1WlCKoF02vSZ89KTqGdJUkQiRWLrkU4m5JKmbiGRicLKcpgMYqGil+SllO/E+TMdQJNWAQMbAHSO68z0RmHTJDgXU79HqmvIGskrVdWwYc6XKh4VzSb9PAt5POuFz8eKFQOIWxUmEDIELlUxqF1vvMMtQPqWqsQeE5tU5SLbTXM+Vo00Sq3Zd5EwiluDLU1pfT4TBZPXzbocSFtUeEVFNSZ0mrn5l3FzaNUCuC0XPkK0WgsIwiYCtwdhZhiFsUvhFFbj2mc8F6cmzuLEyYM4dvQw0KRrhS/VlWyddONmYUh8rV6hf+/4i1/4ojeqsqmTjCKgCCjZ1DGgCCgCJCE9B48f/+09D+37/XKtWiQZbFH5YhQzzaSxiUpnhAl987I+A0FyyGX6sXvbVpzYfw/mT+2DXz6FsUKEb/3LP2DqzByYHYhBKY2QRE3SWIJFbbJ5IOsDGSGMcgipqChWZ4lUTyc3N66Ooh9S7OQ6Kprt6G8bBU7FzvwZ30zzZ3/jqbRaVPjMH+NzaLQmaWV2SflO9hf+GAEMe2FBpKAJVAMgzAC5PuCd73kHNm7egDCsIIaJfiIZZqM2OMcoiCZvpfkYBdQmZQ8dBkLRDzRYEsEuRFVqngN+xpBRUZLpM5qQSZJHIY4SCGSglsy1AAAgAElEQVQDn8x6Er5WKwmKaplKULx2QaLm2jZaQYQwiIRsZmIffhShUZ8Wd4GB0bUojl6A/IonoO6vwBVPfjqijIsf/fhezE7PIKjS1YHXNZDzYfvsD795/Eq1xECq8Ze++CU0o39RA4R0klEEljcCSjaX9/XXs1cEBIE4jrMHjh17y4MP/Og/L9QqRd/LifmZ0df8MIUPSYvPNEJUNWn4jhysWrUF68ZW4MT+u5GtjyOaO4QtY3nc8a0vojI3Lsm+xfzr9SRs0jBLUUelnGUAzwnhsrqPVAYy5RQlGIb+kUvKNRo/RQa/tH/3/HY0ug0gaiubqe3SKYkWVVAHrbpJlBQyEX1izBeySrLZihHUA2R8RqNHqIUhnFwWlTDAG974RvQO9UnaH9LLdsCSYLkYqGRM20mwEd0CluTKZM3ygGFTsk/64yRtEHd+iMmS9aalxPnAmtwNLu0/qtKW5pKkthbVTolGD4xZP6g24UceoloVZ08fwkK5hPzgKHqGd2Bw3bWYahRx1VOeiXJQx0N77kdlbgFOK4NKuYaQiecRCcnkcamW8v+l8jyKheL4y3/5l6lskmymWbfedYqAIrDMEFCyucwuuJ6uInAuBOI4zu87dOgt99/3wHvmq+Vixs8jCI2J1Jhel5JNKm/NVoiRletw5aW78OD3v4whv4Q+TGFlbwuf//THsWq4FyvHRqWqTDbXK6QNNKWTzYXGJN+TpeGaPpEklySZhlilSdrS/to0SebXiKmPElt72nxuSJ3JFSokNEn5Y1ROQ85oJmdwED+WaMo3/UOZbjJ0kJEgJtYEp34ZIWR+yYyLZ73g+cgNrJCI7SCypvCl1XxIBe15SF/bNXwMpkx9xBTzNN63g7BspDwjzcXnMjn7hIzaSHprZl9iVk8VejfEG+JvSgxMPxbJqE19FEZN1BaqyEcZxI0Gzpw6iImZSbiFIXi9m1EcuwaTlQKue95LMDk/j5MnD2Ly7Dj8MIfSQgXIAUHUkoAgvozwm4SzVCqht1gcf/nLXvqmHZs3M0BoKZvW21ARUASWFQJKNpfV5daTVQTOjQDJ5t5Dh9545133/JeFcrnoZ0xuSfFDlIAgqlcNIUie1BhnScoQw6tX47LdO3Dkx3cClRNY2VPBymITt3/zc3CCeWxYt8bYyMlK3Iz4b3J/33MlYj3jBmxJVDraZW25SullEvBjsiLZso3G3s4666SJvstyl4tlHI2ZfTFQiCUyWXpTzPLsdSqASI4RNhKNEAgZHC4meMdEyUcxPCaRpyLoCCVGJWyhMDiIK590LQqrNgBxD6LYNwTWRpGT2LV9M016onZaJ5veKdnWod1eapFb5dLmDTX+mYYL2224YZK2KSGudIG1Smr6yraJN4ObkutnA4RMKVCjuDKCf3ZyCqhGiBpVTJ4+jvmFBfh9Y3CKW5AdvQqT1SKufMqNqAUBDjy8F5VSGdWFhqS+qjSrQjZrtZqMl3q9bpTNUokpoyZe9Ssvf/OOzZuZ+kjJpk4+isAyRkDJ5jK++HrqioBFgFWDDp08+Rs33/Kd987Oz/fm8gXUmibiWEiPJFgPELUC42PpuBLVPbpmDFdcfgkO/PB+OJVxbFnhYiRXwq1f+zQGCi2sXjmERhhhttzEjosvQ6GvH82giiiqIuPH8NCEQwmOaYtSpRQl8IdZdeBIP6S+Oqv5hCFqjUAqADGyPag3xW/Rpkjidg3xLY3gMqm8kFaTxqjFtD8SYG9qqJOQMccko+ol0yYrHlH9k0TxPrIMaqLpPAmQgp9BM3Lh5/oxMrIOucIwQicjVZKEbDqeJKxn++0UTAm5NBmKSEiN0sjKQQzYYRlPmugpvVqizW2Mm4BRXkkmJUhJ/E8tIXfQCpvIiLOr8em027G+ORVQQsg26WNLtZHnwspPEoUehugpFlCqVMU1oj43Dy8IMHn8BE6fnUG2fzWa2XXIr34SzlR8XHXNU1BrNHH86DFJ6F6tNSUqn3lXJaAoCIRo1ms1aZsVhPr6+iZf9YpXvPmCrVs/p9HoOtcoAssbASWby/v669krAkbZi2P/wNGjv/a1b97ygUqt2pfN9aBSr4n5WZQ3NyE0LeNfSYWzETSxet1q/MKVl+HgnofgN2axZYWPIX8et335ExjqbWHN2mHUghYmS3Vs330JCv0DaIZ1IK4gkwnhkiRFLAVJP05hhsbsbZU7iXw3yqEQP3jIZD3pFwmO72cMEW4ZUzSJnFRfT3w9zbJRK41Z2viLCvVjdLYEGvEkzTFFs/WYPzJjtucRfaM6cqlOEdYpor9/FVwvD1ZAkhryUmechNH0lx8qfebYzF9pyCYJO10FSHZbrWY7Gl/WxkwfZEznVDRZlz0MWyZhepLqKA5tdDzzfzIJuyGlvD5G4aT9n24IpuwkCWAmYzCQ6+h47epBXqYH4zNlrF65CgVEQjZnTkxgaqqMnqH1qPir4YxciVOlGFdf+xRUaw2cPHJCyOZ8vYFG0EiCkRbJZq1alesyNz3DAKHJV73ylW/avWPHTUo2daJRBJY3Ako2l/f117NXBNpkc/+hQ6/76jdu/m8zc7P9zCspwSMJ22z7HpLsUJaLmOi8jrXr1+HqJ16Fo/v2IhvMY9uYhwFvFt/70n/H6ACwectqVJp1jM9WsW33xegbGkbsMuilimyGNusWPKqaQhoTP0Oqkq4rxJGEjT6fodThjsTvU5S/kFHiGVEFjfKINskj8eSnp6dHFD2TA9KT7W0QC9P25DN5IaZSHShuwc3QxE9iS/7mG19HJpePTV10P5sXshkEGRQKI/CzBROMI6mLjIrYznPJ4Cep8Q7Jx0lzdzbroxXQp7EuZJOxTeIJGiVBQCJdhogS/0wJmCIpDZvGvp98JJk8I8cbNWQzHhrNauLnSvLMGuXm5YDrfd9sK+mlSIoT0s5k9M3Qx/4DU7hk9xMw1l9EML+AiSOnMT1dQW54PebjYeRXX4OjMy1c89SnoVKt4/SxU2IiJ9msN+tJpHtDfDU5HqqVimA+PzNLZfPsa1772jfu3r79C0o2daJRBJY3Ako2l/f117NXBNpk84d7977+q9/41p/WGo0B+kWSPNgAIUs2jc+mJ6SGVXVYQegpT7oaR/YnZHOlj0F/RpTNVSMuNm9Zg0qjglNTZWy58CL0DQ4gdKhmluG6TSFXYp6HUSWtEmmD0KW+uuuizrrdcSwE0hJGrvNcJmU3ZmJ+SBZpKg6aJiKcBNP4LC41QRu/TK7PyXatuCVR5S7rtvtZRKGLKFEmMxnm+GQSewhBy+b6USiOIoxMSigegx+b05P9okndKJcm4IkEkCS51WwKEaRSSRIbtKrIZBiBb0glcRWSmyjJtpylMbubFEZWnWX7TIbPIB+jXkZo1Gpw3dhg0KpJv4ivxYE1z4lfLpNHK87jvgeO44lXPhlrhgdQm53G9PEJzE5XURzbhAWMwhu9Ag+fruHJ110vdeDPHD/dVjZJNtlWvV41RLNabZPN0tw8k7qfes2rXvWW3Tt3KtnUeUYRWOYIKNlc5gNAT18RIAJxHLs/3r//DV/40lfeOz07O5zJ5oX0ULEyJmlbtzwxVUdUzhpYt3oDbnjqU3Dskb3wGrO4YHUGg940bv3K32DtaAbbd6zDQrWEk5MlbNq5C4X+PrTiGoLGHKK4gZGRYZSqJQkwIUnrKRSFTFmlbGBgQIhTuVwVMtPb3y81uSuVivytWGGi3RcWykI4uY41y0sLZUxPT2NoaIX8RiK4sLCAbCaP4eFhIW0TE5MoFgbEd5E+jwuVBTGh9/UOCDktzS9IX4ZX9Athm5mbRxhmsGJkHfLFEczOlOA5MQYH+2UQsQ/0H2Wfae6fX5gV7AYG+mS7ublZqWA0ONQv6aPm5maEfA4ODshxFhbmhJD29/eLT2elWpZz7OnJoSeXl/OjCduqtrmMh9mZCWSzGfT2mXOYnZ2F68UY6O2D60WYnJyUgKy+vj4h1TMzM9Knwf4heNk+3P2Dg7jy8idizXAfatMzKJ2dweRUGb1jm1D2VsEfuQo/OjyDpz79GXINxk+ebZPNWsMGBVXFV5PXkP3jtaOyOTg4ePLVr371W664+OLP612mCCgCyxsBJZvL+/rr2SsCVtks7Nn/yEs/+4+fe//JM6dH+wcH4flZITgmstkErdCzkaSQPoXNZoDVI6vw3Gc+A8cO7odTm8Su1XkMZqbx3S//DdaMuLjwwk0oN2o4Ob2ArTsvQu/wIOC0EIYlIZuF3h406fvHSj8M3En5WFrzL8miRDqz4k0mJ8fnsvXRpLJJokNSyk+hpyjLNJ2boBiay4Fmw/hQZjJZURIbzZasM+qtDRKikuoDkdmXcma+xxczezMIEbY8ZPKD6CmMoN6IwfApEkd7LNJyew6yvyRmZ3BPJCUcWSaT5NDzHYNtyyTJp/rJ7amginLJHR3jp0rVUs6ZpTabTWlfXALYpzorGBkFl8tUGVm/Pp9lcFOAZkBTd0sUYbZLMigKca4HrTiDe394EJddejnGBguoTk2iOjmP06emURjZgIq/Bv0bnop79pzFdc94FubnS5g8PSFtlOsNua401VPVbDA4qF4XEzsJMn02+/v7j77j7b/3+q0b192it5kioAgsbwSUbC7v6/9TO3umzuFznM9accgzBV5ENEsdZGlm6p/O0R9rDNt16QqBJgvO0o/dzmY1TK9tZ7RJfjzf8bhvZ5Fs/sb90+2mt7H9MCxpEa/OYzzeslCTc5yTbd9GiBinQvMX1Gq1XLVV7VvRt+Ik+37Xfff97mf/4aa3z5UWeleMjooKlmEEeKqedhS2EnLkSEWaNaOr8cLnPRfHD+xFVD6DnWsLWJGbxXeobI642Lljk6THOTldxpZdF2FgxQg8nySsLgnNpQ46fRtJ8MTkG0oJRt/PCnkkcbHkyvhwRmhKYJDP1DpCbmj6JvmkokjCQ+JH5XJocIWooTSZi8nd8+X3Rt3sXyz2ieJZrbMvEfKFnKRVojIXR56k9olCVsRpiuKY7+lBK3BRDzwhm7l8P9wkUCmMHemvmMOZMD3mObjIZjKo1Xg7kOTS/YCVfAIJGDKBRCYRulnvJ4SxLuQ0l6dPqiHV/DBnpnUN4He9VkUh7yOOWTGoJQFFEsTv0UUgQKNRZ5AO6o2q+I4SP0uA2V6tGePeHx3E5ZdfidXDBVQmJ9CYWRCyWRzbLNHoxbVPwe0PHMf1z3w25uYWMHV6AqWEbFYbdSlLSWJv/yoLJcGcqvLg4OCpt/3O77x+x9at30rGJy+8nSeMo+qjPyb306Pv0fT98Vgzhx3zSS2qJZum7z3xcEjW8v+8R9g/9ovLxjcCMNFrSbGppG/2fub+3M+2YxPX8zd7z0mhq457296DpqKAWW/bSPfJzlWP95w+1/zW3qcMOL2LfbDYtufBkjm2xK2xoBf/koJd9EK2OLpug/nLlsxlrA0WxXEcB47DV70IyC2Z7yXWzxTX4h9v7ZBpe6M+RAPJdZ5JwBk2y/aP10Ii9xzH4SEs1pwreePENdQGe9BTB8D8ZcSR25e5/WMNEF33s0Hg8Qbxz6ZXetSfKwSmphZ2Tk9P3rBQLl3SarbGgDgndbVbYej4bt1xnLrreiXHd6pO7DbjOA5jJ3adOHY5i8jJxk7kuC4nlshh+RS6ugGFlplkJAWjfNMhLfVhLIT8Hjsud5WHMh/5dJpjhG3Gi+Q4rAsouzsxs8kwfkMEO9d1HIcecnyOx5xss1EccbUjASmZjNnMcZNvqXLomEQ0pCaehIbA5c5eCy4zMnLqcyVXt/Q3km7TIVACp2UydBE7sRP6fpZTacvxXP5K1hW7/DOzruN5nn0oO5LekhpYHBMrJo+kM6GcfseA4ckSPz8y52S+48hnV5wYuVarlQ3D1oDrIy6VSnMz8+WBSqm85Stf+/qOvXv3YmTlSngZQwDlRCX1EQNzEp9CBg8FATau34iXPP95OPrIHtTnTuDCNXmM9VZw29f+B1aP+Lj0km1YqFVwdHwOa7fsQC9NzKykE1XguCF8IVRNY6r3GBRknvG2Ck7GXyS7JHDshwn0gRBLEjySTktKWYJxcHBQ/AtNcJEhgAwa4jLbJ4lk+h/uz2GSz2elDjuVR16YXK4HiA3pzGZ8kBNSNWQbQcuB6xVR6FsFxBmELQeFXEHM54boOtIfjv9yZQG5TLadgihoNaROJvvMPKG1GmvHh+ghySX9rpt3NFEh6X/ZaEhuU/aXfySl/I0KJUks963XysjlMubtIaDLw2KCfBJaIc5xop7GJjqdt5wQaT+Pu3/wMK666iqMDRewcPoU6jPzOHVyEoOrtqKZ34j+jdfj1nsO44ZnPQczM3NCNkXZbDRRrlVFObUuDfK9UJJjzM/P012hdu01T77zmquv+VT/UP8Bz3ULThyOeH42Q/dcIQcUdM29LeTHjeMg9hiR5fO2Y3FRuq1ypJhM+KI5C6lgvD3lW972MlBjN265ccz5Rm7BliFOpm0jMruhE7FglRCXyImyURSxJDz3zfuOV4HnlJzIyUVROBCEkZvPZuZCREJM3dhthJC8WDxmNnaiXKsZ5sM4zvmuE2UyWfo4hM1ms9iKoj4mbYiiyIkdJ3QcN3ARk5hlYyfOxLFjBrHcWpyrpPqnEbTZ/yjyOKu0IpkKZIbhfCLpDogXl3gzM7qOc1kYyaQVMiVs7PjC8ZL5guedpKLliZC3hdxfJkTAix0n4zixzz45iNjtDLOEGf4ZcSp0CRuciHkOhESzjpcbc7JzI8dxeV4R5y3HcVmMi/9n0Fzkuo6QS4r0juM0pGRYHNdjJ27EjBR0Y+kTK8i6Dlqe71U8xy97vjvheag7IYqu6886TivfilsbXQebXNfrd+AWozjMel52ttGsTS7MlweaQXAq63nHcrnc7UNDQ3M/Vw/RZdBZJZvL4CJ38xTn5mqbS6W5X73znntevW//vtX9/f25wcFBh4oT/5JayVGlWo2azSYnnKjVasnbqokWNmXuSAJ9L0MqZJ4brkuiZeIrJLG4mXPtOt/3SeRM4m1DGGXWTqJuuS+jpg25JA91HLZpchky0tl1ZXf7WxJ0YdtJch4KsWFf7Xbyf6Gy5pt5EtvtCkk0x4gl/WFyvPQxZJ3nCXl1PTeW83A4SXN7OQ7XCTslIeF6e/1MkM7iRzqbWuwknAIkU1BGoTz0ZD0fGWHkhmHo869Unid5Dffu2e8ePnaUGqMomrML86JW0X+QdN+mEuI3sSVhon/gxvUb8NpXvhyH9/0YzYVTuHBtHr3uJO745qewdX0ftl2wHvVWiIPHJ7Bu2w6Mrl6DBgnKwiQ8P0J/fy+CKBB/R35IFHm8cqkq5Nb6bFJVo2JGf0vm15ybmxMitWLFCpNcvFyVZaqFbKNaNSbdvr4BFItFqXbD9kg2uUziRh/O/mIfcoU8ao2q+EzmegpyzLBJH8s55HNZ8Zkk2Zydm4Pj5tDbN4qBgbVYKPE9gD6e/TIWuD0JMfvIa04c+SkWC8j4PqrVMoJGTXxIqT5SeWTO0UIhL2Z1nl8YBLKe6Z0kX+XCnKiTxJvrrbtAIZeXPtUqFXFL6Cv2yvLMzLQoqLxuYdBAqTQvwUZcJmuzPptchteDu3/0CC6++GJsXDWE5tw0SmfGcez4BFas3YaosAXFdU/FbfcfxdVPvk7M6DNnpwTXetTC1OyM5CIdHx8XIk+CyT9JHh9G2LdvH1atWhW8+z3vOT4yNFivVquZvr7eXKPRyPTk83Gj2RSC0jGm+d7HnAfm90TVSqqmCsMy0f/y50StkOPX/DHxP3/li66pEmVuEW5nt5fIsMgJo4gvuoYMmhdaLicqnLTl8aXTdYVILbHSmOpMZj++oEaRkFFG/gulDYIW7y/PBKaZl2XXlZdd0+cocrm/uSfNnGQ4pznj5HDSfuoWt793TgHSt6SPIgHS/9ouJ2m+zAt5MmclbcocFoZhe+LsmE8sxklAmikEYKtv2fZs9gXm4+W8FkVRHIZhnGR/sKpkRKU94kq+KAv5lnf2iBoA8/UmLjHS+SgMo3w+1+rt7Y2kAITvc0x7vu9n+vv787lcLkt/6Eql0tz7473xsWPH+IIWbd++fa5ard19/Y03/snY0NCD3Xzuads/OQJKNn9yzHSPBIFSqTRaKtVePz4x8evNsLWJD+9Dhw6J8rR582Z5SPLhQ7Mb1/GPDyqbYJrfzJNoE2cb3zWTD9GaTjsnSUv82vkSI0MEhVymyJ1ZNqbDFFlsR/LKtu31i/kX7YRs2+rcv3M9k3Kn+7R4LNOm/bSJbkJcbf+lbGGKM6YfCOcglz/x2GtXkkmOY/G1yiFJDkkao7pp+vzEJz+FQrEo6tXp8bMJcasiX+gRLK0fJV8i+Ldq5Sje8GuvxeH9P0J15gQuXJvDaKGKu27+e6wa9XHxRduwUK3hyJkZbNxOM/qYGBidqAbHpTnbRF7Xqg0hmRwz7HOtRusYhHhJwFA9kDRMXOY4sccncTTbN2Tc2bFQr1lfU0farFZrbXM0X3KogFZrZRTzPfCybK8hhDOTy6MnX0TUMsqp7/GFg2OFZusm4GTheUX09q1GoxnD8wtJuxSjGNFOH06atk0AFT80j3suUyw1xEeT5nFiSSUzikkujfrK5VDUWOOTSe5DtdAqmzZxuiibNFo6EWrlkviEZhM/VprM+YDOZY0qXamUkfXdJGLeqKX0GxWsckXcdt8eIZvrxvrQnJvA/KkzOH7sLEY27ERU3IzhLc/EV275Ia592o1oNAJRNqemplAJGqAZvVoqC9HkbyTC9iXzwMOGxL7uda/DmjVrkPGMPy63ZR9sWqr0PZIe3NbeTQU6IVOG/CTlU+24tq4F6XFux3Z7m6Q8qSVK6fVpt4L0cUTFT+rMp9tOt2nTSNk2jJpnFHR7Xy/yVHN26f2FqCUnmr7X28aejrnhXG0l9HTJvJDe3/oP23klPZ+2/Q0sy02+TR9Nk4sYkGjyvMz8LOuERJuiBFFgztnMc26Sf9W4d8h8ziIMnkm9ZYMOqZHSDYMpwRLiK/cO79eefE7aWrVqTJb5x5RhfIacPHkSe/c9hLNnz2LLxi3YvXs3Lr30Uj5raidPnrrzWc99xtvHhsYe+IknS92hqwgo2ewqvP9+G+db99zc3NMOHDr6/8B1L+UkwIcNH2ISIDA/L5PF9u3bMTQ0JKrMyTOn5dvWTjZmQRPwwI+dmCzpNMERxqxqSZwlf3ZyZsWY5K26TTa5ziibBv9OgmgJCe3WNJNa4pcmpenJuUOZXEpqKRWmCOSjyapZ3znZ2zbPN0I6iWZ6u3M9mB5rpNmHQ7oP9sFrg224jtfmhw/9GJ/7p5vwohe9CLfffjt+vGefkAVeUyp2pUpZHhiMbp6ZmcL6DWvx6ySbDxsz+q41OYwWq7jnu5/F6ECMi3dfgCk+ICYr2Lx9Nwr9g8jms+ihg1fcEFMyzcjtlww3I6SSFkYSqkWzcV4eWs1mSwgH1/Ea2yh2rjPVcYxfY9iKxJxt1U6maSJRtQ9Pqd7jOqA9t9Ey5mc/y9RLGRO4E7myPQ18jWpVxlImxxyfOZTLLfT1rxGfTa6oC6mkAmMGnBwDJB1NFAsFOUd+6MNJ1U3U4aSCEYkkSS37LcSbalOSd5Pb2+tkx8sSH86QZJ0Pd/pzmge7lBKl4G+UJPHmoN+EDfTig53byrKbxf17D2P3JRdh9WgBwfQ4Zk+dxokTZzC6fifQtxUDG58uZPNpNzwLlUoDZ4+flLGwUC9joVJGUGdU/4Qci3NA0GjioYcewq5du/C2t71NMgPwJaYnZwg29+V14nmTPHd+Fp0qzYsalWJ+LEmz/6f9XcZ1y6yzONn/22U7HtLE0f7ffqf7YPe3ZNMSyPMdg+ulrGuSy1TGXhIYZu/TpQTT9HfxHhZRtd2FNFG059rZv8VlW7p0cZ6z62w7dm5Nz4P2/+2xmmIBbWIdGVLJfhpSbYIEjcXfXg/jWuN6vmjRVkTgNpZ0t68Xg9sCkyrLHpeBa5ksxV1XlHzeb3z5I7FkhgbJ6uA4OHP2lKjke/bsQaNWxYYNG7Bz505s27ZNvrnMMfalL32pumblqi889znP+S3HceYfa07Udf/nEVCy+X8e838XR4zjePDw0aMfq9eCF45PTRY56fDBTkWMpITq2OnTp3HmzBmZPLbtuIAmNTE1UgXhg4lmWCpY6Qme4Fi1g7/baiyWQFqyaSexnNezRLm0hMoqnSQJ5yKLph2WA1wksucinZb4dq5rK58pstlJNM3y4oPFPmDS5LNT2ekkpT+twbL0Abf4gObxSdioEPL6ZfI5fPazn8Xf//3f4/ff/Qf47Gf+EQcOH8LWrVvl2tKPk9fT1L+exwU7tuE1r34Fju7fg7g2gQtWZ9HnTeH+W2/C6lEfl168A3PVKo6dWcDGbRei0D8shAgxCV1diJGQMFvhh0EyoXnxsEFDi7k3TZSB+ZiKQ1RVqAxKyUejtSSpjoxpjnjyIUayyXOVh2OS3FyUmKT6TphU3yHZZP5NWkZlDNGpkDXhXVOOMo5zaAYuBgfXIdPD0ptB+0XCkgw+OMkAiWs+Z5R784Blrk4e35TLpLMiz7H9gE+SuUtFoOQFRXDwAN8zMWQ2mEjOgS6NkhvU+JcYgtSStqnaS4Q9KxbZcpv077VR7yRHXhb37TmISy7ZjdUri2jOjGPu9CmcOH4GYxt2we3biuLap+Gr335IyCZTH50+elz6MFuZx1xpAbNTJr0TTem8Vw4+ckDGxzvf+U6MjY2ZhPlhiELeZDbg/212AeuSkR7jEr0i1zghYHR9tm7dqe9OsrmIoSGenWQzTRY7iWeaoHWSzXS76X7Y7bivJZttYvU4ZHPpPb1Y3amTUNv2OglkejkdC5Mmt3ab9Itp5/8Tx5p2d+KEYC6esyGaSz9Jha8E41rdWBSoXBIHBtzZfdgOr78cNyGjzCXLZdKC0MMAACAASURBVNnHY+lXH319RfT1F2XcjA4bt5hTp07ikUcewfe//32cOHFC0oU9+9nPxjNvfIa4nfA3quh8plBBf/jhh3HXXXcdes6znv3uLZs2sWLV+QLQflpTqrbzEyKgZPMnBEw3N35H8/PzNx45dvRjrQDbc4Uek5qmTh+0QEznnGT4ZtpoBe38e1SaNm3ZLGTU5uSbnp6R7U2qGvOmzHb44UPJBDiYh69VJNNv625sknZb0mbJHbexf3a9fCfkk9szsbaEXiYlDM9HStO/d/5fHuwp5fJc/zcEenHkdG6THlOdZNM+4P61484qhun90w9Nno9Vo63Kli8W8Od//ue446478Wd/9mf467/+a9z2/TtFQeA1lAc5/SrLZVxwwTa84fW/ikN7foS4PoEL1mbRG0/gB7ffJGb0nTs3ox608MjRSazatB3DI6uNr2F5DqxEPjw6LKa0aqUu14vtk4CVq/ythtHRUbk+xv83FLM+Sc1CqQIG3AwODIuJmz6ebDeX7RH/RCpo3IfnRr9Oqrb8jefONkSJm5+XlwHmyQyZo3J+RkjdwMAgWgFQYl5Onz6ePRKOMjdHsSSPfHEYw8MbUK0xXCRqR6GzUlArCsVETEJtI7T7B3rhu574X9JMzv6xXxJoU6qK+ke1j35oxsScN0nZg4a8lBV7e1DoMQTfBkLZVEYzs1NyrMG+fjk3WXZc9Pf3CS7TE4YEsg+M0Z2dnZF7jMtetoh7HzqESy65BOtWFtCaG8f8mdM4fuy0kE2ndwt6112HL3zzQVz7lBtE1Tp15Jjx6S3NIQhbiFqxmDN5r998883yIvmpT31Krpu9pzn2hLAnJIPHN/6ziyqZHZ9RUq60PV4TsklyKZ/YkB37xwpPaSKZVhE7iWJ6XVoJ7dw/vc7eP+civEKmRIU35NaSw/Mppp1tcHtHCgMsdRXoJJnnunfbhLPDj/tcx+icO9KkU47Vdk0wxH6R9Jq+pUksLQZW9eU6VhPjuOQLmp2DuUwLBLfj/cNxThM4xyzvb3ELyWflJZE+28wRy/uB4sTdd9+NH/7wh3If8D694rLLcOGFF+KCCy6QrArchvc12+DLzPatW4Sk3nzzzfOZbOaWZ91w42/09fVN/mvnS92vewgo2ewetv9uW2aao9OnT79vcnr6V/v7hvqbYaudvy+Xz8tkwAmGahn9uviw4x8nioOHD8nDlQ84kk6qOySq3IdKp5mYTK1lm1Ow/WBJEc62GTq0wTuJUpkQx7QPp5QNpG+lpNgxtbGtQppNEc3zkU5LVu0x0+SVhDVNHuUBkiKfi+TUDIe0ummXOwll58OgmwOJ2FtzM/HmNeNDgg/Rd7zjHbj19tvwz//8z/jYR/8S37v9NmzatMlEeeey8oBdtWo13vn2t+KRPQ9IgNBFGwsY8Kdw/22fw8gQcPHFF6DJYJEj41i9cTtWr91k/B8r82DRm3zRJCs3SiaJrzGpB60wSdJekP5xXPAlZHCQyqgnfsDczqYb4jp7/fgb27SmTb60kGxavE00uqnGwwo8mRyDmluoNRvIZnOS+D1u0ecyEJJIpdJ1QtTqzIKTh+MV0DewFoEkxTHjz6qmAU3ZvglqYJuiFmcyUlZSxnSdQUyG4PO6U3Glj6ZVKuUBzkQDie+ylKRMXAaIERVc7mvcH5pSdYjnygcucVmYnZHvvl7jQkCzI7fr7S2Y9fOzggODlpqxhzse2G98NlcVEM5NYGH8FE4eO4ORdTsQFTfBG34SvnfPYVx51TWiNpJsMhn9bHlO3Acmzk5Kmqr9+/fj6NGj+PCHPywvJSTJ4oZglcooKTua+EKK32wqrVOabC4hVwkReiyyaY9xPnJ5rt8toUx/dxJQ7pc2wy8lYol1oMOHtJO48hw7yeIiIaT7slVuTTUqE6tkMyIx+4KpDGUCcaiQ2wxr5u3V6o7nI6yPIpZty4Dp1aKbwlKimSQBWSSakVHOLdG0cxxLq7bdCJhDIfHJNCVi6d/BggJFuYe5LC+URUM6+ZLEsfTIgf2iYFKdpMvV9ddfj6c//eliJn947962iknXnVWrx8SFh/cwnx+7LrgAe/ftDe67794f3/isZ75r/djqb2rqo24+Mf71bSvZ/Ndjt2z3LJVKF01MTHzSy/hX9BYHUanXRNG0ExGBqQdNIZCcfPjteK6oH5wUqX5MTE0Kgbjm6mtk0uDDx0bbsh3x+5yba5MGySOY+OPZSUuUkcgQSClbKNbLpT6UxgxOZZFkdFHFbAf+MM3jYxBOW+bvXERT+tE+XhJKmigNdntLeNLm9DTpfLxB9NMinp0Kp8WJ14PnSBWKmJAQ8VpQkaaC9eY3v1lKRb7//e8XhfOLX/qKpMphBCmDbkZWjOGP/vDdOLDvAbTKZ3DZ1kEUnbO493ufETP6zl1bUG00cejkFNZuugArxtZKUvMoqklN9CYfSjSn+UmKosQEyZRH7CPJGB9MrdCY5GzwDX3IjBLLco+m5rkNHOJ+XOZ5WBM21VMSaX7sWDK5N5niqIZmGCCbz4EZEUgyo5aDnqxJSSS1zJm5gGmZXI7TSAKEfL/QTltqTPMtUTbFrJ2o9CSSJgCLQT0mMbssJ4nZPd+Vsc4+Meqd50JFU3w4M4v14RldbccN+20f6nxw89rZF6gwMO4CrFhEAs5AIZ4fTfPmfrF5OyOp8/7AvmPYffGFWD3Wg3h+HKWJ0zh1/CxWrL1AyOaCsxN7Di9g98WXS5qn8ZM0X85joVbC/MICWs0QBw8exm233YYPfvCDuPzyy437QELwGVMuZNk3Vgueu31JsP606XuAyqaQx44nUyfZpE+sEKyEbZ1PeTwf0bTEUghbEkB0rm0tkU2b3tPktpO0ptswvo7GhcLuk/6219MEwZPs0QdTtjBpI0wMuUk0lPp9cdkqvYtgdRLic80v6Zdb3ntmnw6yGRkybcmyLfeabp/XsVIrycuj9Dpiflf6dRozOe/PbCYn5NIq8Y1aHWfOnBL1kn6YBw8fwNZtm3HllVeKADE2MppU95qQ+YcvXlQ4aS6XLA4wbZOUbti4Tu65b37zm9O5TO5zv/jc575FzeeP90T52a1Xsvmzw/7n8shxHA9MTEz8x5mZmbeNrhwbo38dHwQkC0zQXa82pNoKzV00c9I8SvMmXeoWSnOyTBMe07VR6aQiwgCUXbsuxObNm5DLGWXU1nDmhMMJ2+YYbCVpMixRMH5fvpg/PZNuL8lQSVVg0V9TTOasey3EclGN8hz7m1GnOtVNS8p8Rpom5JLfXE4rmCY90yLhtOvsAyVtRn+8C9+pfnY+rB61P7OqmHR85/ykzWD2QWN/s+Y/S6rtA4a+myR3hw8fxvOf/3w84YrLhUx84AMfwOf/5YtSdYbBQoODQ/ij9/whDu17ELnWHK7YsQJx7TDu/u6nsXlDH3bs2oLZUhknziwI2cwV+0QV9dwQQbMmQTnGj9IEaomylwQhUMUT4kvyl2QosKY6PvyMCkhCxoj6wPiCgqqhqetuH4xUQsQdA8bkSfKTjoomFiS9HLckhcSSZJbZTtvjwYnRYPJ1l5V4CkI2m02uN6o9UxoGraak3GG0OT9MdcR10gZM7XO+HPEhzGNyPb9pUuQ3SSH7ReXTmpgtWfGzJtLeKrbWWsAXNru9qGqiPrXERYSKLB/u4hPLu1QCPJh0PiDDgpPrwQN7DuGi3buwaqQXUWkc5cnTOHVyHCPrdiHOb8ZUYx32HVnABRdeKi4KU2fHMT5+BrWgIn3Z89DDuOWWW/DHf/zHeOYzbsTE5JSQAV436w4j15XJ8aMIRSqaUYQmibAkzV86ZOVFwSQLktynXOC3EJkk27j11xQTbwfZTN8rnWrfudRMcx8YMmdJH4PFIjHP0zxOH9DFZUv6rEAoLy4kh7TQMJUu+S/ngkgQl+vAb7ts19uET2aMLgb6nO/+7LR+GHKa+LbStSBJJGp+Y3tmfafHZadyambLZFuT+EnUTqYsJqHnshD7kNnYzXq+UPEloxUF8DPm+th5hGVV6SZiySWv/fHjx2UeOXLkEB7Z/zDGJ86ICZxBZM95znMwtGJIcD5+9CjGxyeQz+ewcuUqcQWxLid88bMvxnxpZPsDg304cuhg+OMfP/TAjddd99tr1qy5Q1XNx3u6/OzWK9n82WH/c3nkRqNx8YmTJz6W7+l5Ym9vL5MiG58lVvZzONm6aDEBdkgTFNPj8OHHKiw0l9M8TuJYl29OWpSMSCgnJ6ZFmdy8aatEGPLNlSZ2kk4S1KnpCdAnjgoV+QAfzHwrJ2kNghi5TD/y2YJR5nJZ1BslZH1HFBVRIEGHdBMRKxG7XmJSj/lgNwpXmuSlTe1GwaS0xezJxnRql/kgihPymiafi9kDTSJySzrTxE9+S40CUR87RsUSFaL9IE5vJOnq5GHMba3Sarewymr7+MkBrNJJDNvpSRK1je2ICbbRwMDQED75yU/i7W9/O175ylfijW98Iz70kQ/jq1/9OoZHRzC2ciX+8PffifHDBzFajLBxOELRm8Ktt/wdNm/sx7YdG9GMHOw/eAajazdjbNV6if4uL0wjm3MxsmJYlL1a1SRENymWTEQ40yFR1WCSdbpYcCysGlspCgfHDInWwNCgLDPQjOOD17Kvr7ftE8yH0vAw825WRVEnSaOSzmOxbnhvsYhsLifjkzXafZcm5h6Jhi8vVJDLFkxd8SgQNb4VMzhoDVas2IpyJUC9EUg0PV926FNGvPkw5PgplxcS37N+FHp6MD09KeZlupFwm+npKfFXXrlypRCvufkZOW+aHY3aXJGa4yTH7DPXnTk9LiZztkHcxicnxGJQ7GEi+QClOfqhQn7juGB9d94rI6M851gCeTh+B/r64WTyuPeBvbhk926sXjuKcGEcpdkTGJ+YxsjYbji5zTg7P4wH953F5dc8FV4uh4P7Hsb8whwG+wu455578OWvfh2/9cY34xWveDlmZ+dEhS70ZDE5NSu4CcGW5JFGrUx/83fmdrf1XoTctD8klyRxsXmP4s7J/WdUTXnbMOsT5tf5kiYvTmKaTvshLh5ByJik7DHZD6wZO/1to7A719uXHSG+bDIpkSNGcJJg+820ninS1nn+9j40TbAtQzxJToVyt99SO/wpk5dLU2rVRIpzX9aO4HW3vq9M8ynbJG4ZCDnHhDJPx+4iLlFogvQ4bxlSaUr9tJoNuBkfrUYTjaCFnJ8TF5tWowU34yKTpytLkq6opwcZz6juBw4+jPvuuw979+6RMcf7l0rkU598LbZt22JSmOWYO7Yu9yVTka1ZNYZVK5nlISOWqmyO+TXNnE0Sy3uYePDZwD+O/x/ce89Evqfns894+tPfyvydP5cP1WXSaSWby+RC/zROM47j/tnZ2V8pVcrv7u3tXZNOJZM2S8kknpBQa1o3kYomN2P7jyoMA2R9TyYSBhrw4cuH6cYNm8V0MjqySogBq7GwrWqNtZdLKFfmTNQxyxc2IuSyg4hbnJCZzobqWBPZnCfkwcT+Uj2yuTjp2B7KpOx7zONofrcTvp3keVwqUvJ9jiAiUWxY9sckol/qq5k8N0ls0wpL5wPRmp3s/unHrZDHjiAK+3Ax1zNRRBJl05Bi0xd7zEcFYSQBFfYBLNH+Sf+tT5Y9rphrJUl1gPe+971iSn/Xu96Fl7/85fjYxz6GT33m01i7YSP++i8/iukjh4HyWTz5svXwgpO4/bufxprVOey8aDvmK1WcOLuA9Rt3otA3KNcbUQOtsIp8lgnTQ8k3KK4HnlGn+fAx/qS9bVOeUcjMOVOB5EOd6YhsUBkJm31JqNdpOjYfGSeJaTr9UiFm3IRgt0Lm1azB9ZgyKS8lTfggzMr4cOXlhAExfLmJnB70FjcgjLJS2M+a9qnkWfM9iZ15OBozsk0/JP6ukg/UmJV5zUS9dEyyfF5T+4IgImviHmBfCKgucr11KSABIB5M48R+NGrGJF8o9MjvzcTnk+3S0uDSVaLFykQBBoZGce/9Jk3R6NgogoXTKJdOC1FcMbobTmYTDp9wcfRMHVc97QaU63WcOXlK8obe/I2vMPoXr/nVX8OLX/xiubeMqwjTG5UwMMAgrWq7JOe5fRGTAoNCRqmQLSWC9p5I+yXaucWSsp6sSYmVNoWnFUz2lYqjVR75bZXIxfvLKoGGdPLlmCSTJlqTLcD4UlqfyXS+SVEFDbNsf5NcklTymwFUnSTbbm/Pb/F+TYKMhDQaLBZ9PhNwkgApO4/w3IScJpkJhNomm5Issn8knqLQigJryaaZr+juxHEXNSX3veQ9lpKuia8xX6ZN2ixjfSCvl4CzvkEU+4uibBJRigHMPHL08BHceeedOHDgEVEf161fg40bN+Liiy/C2rVrEQVNeVHkixnfInoHBqXwwvDAoLyA2Vy59pqyWIG4lEhpVzNHUO0k2dy/f3/91LGjd1xxxRXvWLNmzf0/jWecttE9BJRsdg/bf3ct1+P6ljMnxj/ek88/lZWCOElZMmn9Ke1JWzJj11v/JUtoJNghAuYXyiZYo2X81GzgBtVM+n6tXb9JohEZtdhgtG+LJtUWpqfHUaES5bgI6hGymSKCOvNmkrwEyGYAz0+lHQLLBvrtQCHH4zrjq2SJZKeyKSbOjEk5Y9fZ87PLbpIbcfH3Rboo23SoLp3l0xmAIg8b+yzpiEy15ilRdRYrGbX71FYuU2Z0IZrJA9iS6LTqKueTKLS2xGL6/GTblJsAtz9y5Iiom1/96lfxR+/9Y/zGb/wGfu8P3oVP/s/P4i8/8hFsWz2GE3vvxbWXr0WPM4EH7v48hodd7L5kO+bKFRw7MYM167eht28I2XwGmQwf5s12RRwhZEx8HhqVnKSF40vUKckf6ckDh0m8LWEjuSxXq23CxoebJRocJ+LrmbzkkEDwJYbHoLpIdYfbO3T3CAKQbDIVC8mmkApRih1k3JwoKCSbPcWC+G3OlQIUC+uRyw/CzVH1YZ5OpiBajJS2pJGlJKX9gMFHWTkHklD2z/aH45xj2j5oaQHgR3xRWybXrA1wKtDvudmUNETiE5c36+gLKub5JH0Sc3ZKOc+MwY0qKUlD/+BAOzl2b/8w7n3wIVy4cydGxkbQLJ1BrXIW0zPzWLHiQoTeOhw95ePB/Wdw+ZOeAla/5rl8+1vfxB23fg/Pec6z8MIXvFheClkByuT8ZOL/Vjv9lMHk0YEv7co5Qt7J2d3EfL502jRqn/l0vqjxt6YEbS2+XKXnH0vWrLKYJn1JmVcT3CIpokxaKN6INGLIa6YLydfK30VI5asXSSdpGy38UmtT9ESjCLLYacqMzvPi/GTN/2nzOkkvl42bREcuUVagTJTNxcwbSdR6QjbtOYsTgIxXvnRYc7z5ZlVOaqyhFE0yv1nSbJ1ueP58GauUa+If3dvbJ+PF+hFL1qIwELWR9wsLHpDs0RJwevw0HnzwB7jznjtw4thxEQsmJsbFb/cFL3iBqO9U2znusolvKMch70uq+fzOZvNCNk32BZOtiMexfth82bck084RJKU8n+985ztn14yN/s211177X9VX898+3VCy+W//Gv2b6CFr+s4uzL50dmbuvStWrNgg9Z+TgJ20snAusnku5UH2jRxU64H4CAVBU952xaRaq0kdaj5cxqem5C2ak9P69esxvGJQzIQs8+chRrVSEpNOFNCcToWzR4iEA05chgDQPu+wtrKzmCaJdbktPxMSR2Um9ZDhw4YugFQEbLlM+22ihU0ybX7sw0TM6fKwMUm7ZV2S7JlKnBA46ZUlM0ZJSUefWl81l2fnRMh4xhdWUr7wcRaxzHNofKqWPMzYH5ufcFGpse2QVIlfV6odUXZJ4BKznxRgTkz56WAvmrt4Pl/9xtfxB//pXTh09Aje85734KWv+BW8/0MfxpqVY9iychSZYBZXX7QSfnQS991xEzZvHsDGTWvkub734eMYGVmH0VVr5bxq9QXkqDxL1LYxdcrLgGd8E40bhiFafBiSIPKhNfz/+4jyAUwTuiHpJiI9nSDc1BE3KbMsSTVBMkYZkWvCkvX0r8yYRO8MQJI+eHR7oI+ayeFJsinHQUvKbLpeDvCK6O/bhCjOibIpylJKUbYKJfsrhQOyWcSRUfa5nQnwMS9WVJCEdHqs9mMDhfiwNdV2TPS6LxiIsl9lhSAmwDb3X51+r/QLpYJF02dgot/5wK7VqokPpymBSVJSaxj1lW1k8wXcdf8P5WVuzepRBNUpNOuTmJqZx+DQDrTiVbjrwWkEGMRlVz8ZmZ4CvvGNb+Dv/vaTeP7znoP/+PrXodjTL4TYY3Q8U+DQJ5blQysLQibSqr59AW3PEUabNyQztmUbO8ims0hWzzXPZHyjbKbbPtdyWvm0RM2OOWuFSfe1cx57VN/tMVPJKu3+6TNIR6OfCwuass34WmoBdpOXzsWXeJtk3byA2XPgdZflduCX8T0ldxbC2f5eNMNzX76UyPrkBV8cjTL0i0Q74Ky3tyjjt1DMgy9N8/NzOHbM+F/u2bMP+/btkUIdJPG7duzEZZddhrVr15iKUZmMVPqRudhx0F8siEsMxzqFA5NrlVYEUzHMzpPWF9m+uHHysH7P8vKfy4kCeuDAgcb+/fvvu/bqJ75n06ZN3/438ZDUTjwmAko2dYD8LyFQjatrJ45PfDyby90wNDRUEJNdUos6Pcna/6cn9/RDwiqc1s8zSB7qrdAom3x4kkjwwdts0PfTvPV7GfPQZ062DRvWy4TmxAHCRl38hBo1BncYdUzMQrEJGBHTZ+wzFhcRCadVER2m5kj7exkTZtpcxvK99B9MkzibemQxJUniTpaY02TypzkxQdUoilKhcUmAA8liJ8kUV32poZlsz74KLzXRqTZKVdoXhcX8muTqlgUuSxn5ZCWfZSTVSytQm86Jy5v4xPFRQ2WG/xjFhSoVretsuxmEyGc9TM8u4KMf+Qj+9H3vEzLz5x/6EK69/kbUq2V864ufxwVrB7BrUwF55yzuv/OfsHXzINZvHIPjenj4kZNCNkdWrhHf3bn5cclduWr1GrneNFmbtChGWWH5Sf7OBxSPRfcKjomR4RVC3mxt9OGREXmYcZ0QnaypfS45LMtleUgyzyZfYOg3xghv8WcExFeMvo5iqg/jVB3xXiFQrMfuO3nxl4QT4OwE+5zB0MhaDA1txexsTcYXfRMlrdDCgvSBfebY4/Fovucyk7uzygn7weAI9pO+bCSkVID4cOY5NpomwT794MTdpGGUO6pJbHtqamaJD+fE1Lgcv5A3qYTKCwtiuuc5ktDSZMn7j8fkg5/qk7Q3OIhCbxHfv+t+CRBau3Y1WpUZNJqTmJmlGXw7mvFK3PPAFGaqGTz7BS/EHffcjw9/+KO44WnX4XX/169ixdBQm+TyvrMpcNhv9l9ITeIreC4CKL7GDskmjb2Lyc3TKjtNwe1x35G2h/d1i2XJY0PArHqfntBsgJWdl9Lb8DcSnrSbDPeVl4+kKpBV1zvdhISoMtKeL54dymSaDFoXC0sO030jSQuTffnibD9y/jbyKVFt+bJo8TQ3r2uU1YRMPpoMJzMQb+J0blIJFDMBP/LSkXEluM6Sfb788n4zL2x1tMI69ux5CN/57i249957Jb2V5H4tFmUOvuHGZwrJ5IsFyaXNRMDgNI7pzRs2JmmOzPxq03hxvMhLWGLSsS+FFn/OoxY7+9LI/or/dBzjzjvvOL5m7dqP7Nq27dPFYvHM/9JDTDf6mSKgZPNnCv/Px8HjOM7MlmafPT0588HVq1dvNSqJKYFnfWnsmaQfKudTG9pKQuRIrkLm6RSfOlF/WKO6LkSWE/7E+BSazQB+Nm9SpiRO41w3OX4aT7zqSoyNDDMGGb3FftMNptRp1tulLmPQ95A+ZWZKF+s2524+7FIPsPRDrpOcdT40rXmHmVrS5r22wpUoFVZx+v/Yew9gy67rTG/dHF9OndDoBKAb3Q2ggUYkAEIEmINEcChKM5qh7JJtlV1je6Y8NSq7ZHs4palxlWpEJYYRJVkji6PAGYoKFCVmEoEIRG4QnYDO4fXL990cjutba697Tz80KakoUQTwblXX63vvOeees88+e//7X//611r2xLcjzObtpEB8zaTTD5N7GDGE0/sTEyA6WKxoyH3NhOyTsE9Ul19XTxO0vhcTpCG1ujHOgKfPfOYz8md/9mcaVp+YnpKP/MK/kx//wIPykZ/7V3LbDTvlpuvGZTi7KM8//WeyaUNOrr12m9TqDTl1el5mZq6WfGlYAWAvqku9sSq5vIW+Payq9kJaDcdYF+9f3v7gbg8t0v/QbDJxDWx0jM10ix1AH5Oe6ynpP34stQYKMolO12o/k1CmOluteNKRRC9j4e9MJM12i0CpRElCifiNpjVJzaUK3meZqGEmrXqOsX3FQk7/uiE1xu1MzMauDbLPSaixkLxp4zgPjuNSDwdHHnJncUY7kbCm5TqDBZnaLPXtwnoKHvyZ1cpDybTKAh55/HHZu3evbNg4I+3agrSa87K4UJHhsWuk1ZmWL33jmCxUEnLDwdvkI7/w76Veb8tv/uZvyjXbtlkGN5oH/GslZdn8iaRaZZHQQbYyDhHxrHJWMsbUW3gc66e10hLr216u8vKkoctHTNhQ6y9rcah/5koW/36NB7qFw8Nj8yosq4sxA2drwab9aFcLE/A3/gzFt/X943Ki/kIcTWYAiwkSDWMMrbkHxHw+0X7GvlcXEA2bE+fw7UK4XK8phNJj529jo11L/HyIuKRJ/Gm3tcgA/YaFz+kzJ+XFF5/XcpE4EKCTBFjif4n+kkhTMpOVkydO69jAgogIlDKYQ4TIs7p4BZg6oFc9dKgsZH3Y3Br43ttK2c0gL+I7nlPALJ/Tj0+ePFn9zksvfeX+B+7/uYmhoRdfG7Po+lmug831PvDXtsBqFM3MnT75iVQq/daNGzeWGBgcPMV3Xgs02CJE3AAAIABJREFUbcAfhHziYE637cEKUP8aXU9DOiH0zf9XVitSqVQ1nE79dDRhrKhZ2cK6MQAtLS3KU08/KRs2TEsxX1IGanLcKsww2Vu4MhgihxA6LJuGaACJSQMmznbEtZseBo+zHg4K+MtgaO1g5sVrGROfLPqAOyS2xMEt7eM1q31C83btT0ihgkp8gvCJgn3QWjkTEw99O5DOuCY0lrQVnzxN02jA3s+NSUddAJq4BpjfJiwhQIkkAH4PVo5s7Z/+mQ/LW+69R77w2c/I7Qeukfc+cEAyiVl5/qnPy/ad47Jj22bVgp08OS8TE5slV8TgmUxUQtdtaZCEk8kL1j68YBiVcUmZcbmHx/0+2f0UZbN5NcKCh3M3j0qSGewYVu3IaobTzjA2MJuuf+T4gCPed3tJ9blE50sIvqfm6TldxJgHaaQ+nCQIrVRhWK6WXG5EEAd3gs2SSwK4D4BFzjmZSUmtUlGfzhya0lBpC32oMTuWBELoU4F1wlg1XsrQdyz07hMx52RgPPgZ5mCB69Jt49NppVuVCQrWSq5j9b6RUo9TqnQ1JV8oyGNPPCl79lwn05s2Srs6L53OkiwsVWSovFNqzVH5i786JNNX7ZYXj74s/+YjvyCbtmyT97zzPXLTjTdqSFSSgJ2uZimbvCOExQHreJemMoFZT/T/wuYlfFzQ1GfzaIyPFf5/L+cJsGIscADt14PW2/u/63NVDx6YSa1uA7gK+5o11MCcnIiH9w9bHBjI89eVwKa3MYxrs1s1MO3Z5LHxLv58+3Mdf3ajHuXMcv1r134b2XPo/7Q944vJwLyaDAlxc0uTgzq6HZGIUGIyJAJqn1LgaWF6H6cUyKJPxfYLSy9JB7mHyUeoALVjxzbZf8M+dUeYmZmSTZs3aBlixuHz5y9qdGFsckq3nRwb1/7AM0h78rteKU6fgwAoPezvPrO6UIo5gfgYy+f+zHI8xn3OlXH/icefODU5NfHROw4e/GQikbBqDeuvH/oWWAebP/S36B/2BKkWVKlV3n765OlfmtmwYfv42Lj0ghDd9W9rV/V+xnE2cC3wVDDFBNNNqc0F4KzVgdGsqzWO+mq2qY7SkcpKVdrtjg6mhCKffPJx2bJli3zgAw/KX3zhTxV8UuqvUavJyFBJjb7JMo66Xl8bvaIlneg5qSfmq2uWvypRKBr4dK49fx24ldGJJ+4MBPg+ucSBrNpAqrZu4NtH9mdcE+p+fxri1lxSUPHAN8b8n8P7MMHFWVMHx6o/VcunwfmZ7ZP9GyQOeRjdNKBMbn4MTQBDU9frKaABvHllJ0sSYKLrypkTL0um15GluVPywD17ZWy4IS++8GXZtWtGNs5MSDZflmPHzkt5aEpGRsZ0cm40lyWby0gxX1S5BCbxnJNWENKQLMyiGbp7BSHOwcNotdWq6TmDLpDvTNtlVUqcNYQ1Yx+OpdnhVC3KW4a56h/VfzUJAWMMYRrQCqNoFYRyGau8QzJTtb4qiWRW0rlRZTabTbPjcU1ZP2Mc/8ieVdWicg/n2WzUlG0FYDoo5pxwQrBqQna9gE3YG17KlLaa/RJ/Wg621dHvOScFyZEleFAWkPvk9jDlYtHso+pVkycEjTUFGNiOcx4aHpWHHn5UNZsbNm2QbmtFet1lmV9clkJxsyyvFuVjn/ictKOCFEZG9PP5uSWJopQUsuaXCUtZKFF7vqHtTP/gWc7AlHXMvD7+DPjYoIw7OTmoXGKm4v1FVgBcVvPetC9xn00tUyk9fda15nysHnp8web3xAGkT3i+2CWbP97ffczyY6wd4xyw8VfruKe6JgMI3rDxRaduEzTbaz+38QSAzfM/aCPbzrL6NbM8DjxjCYJ6Pb22gk1LXWK/lLo56PUwcrAJWk7G2q5dp/ZVHXOQ4aBfFhkaGTWf2mRG9uzZr+4EV23ZKluvvkoXTSwwqfRDf0ZKQptu3LhZNm7caAucdEoToejbarweHDRoO9MOW8EIXYy1rVKYL8xcphDvF1ybazdt4YlGOa/Rlfn5udpjjz3x0Ps/8P7/bbxcfv4fdnZc//W/TQusg82/TWu9AbdtRI1rTh0//YulUun+DRs2aAkWBhsHZt+NzfTPHdSs3c4He+ml+0krPUGj2ZZW18oXMtAsV1b1+2a9qRo7GLUnnnxcrrnmGrnqqo3yzYe+IuWhvMxeOi/IxJaX5iWNjxyDr05ogzAxg7iymrESc2tlAHH21f3/1g6EDjyNQUqql6AxLu2+5tMnTWfibHIwix+3+tGQFprJkOUKQPSsV01QSif1ezSbnpAU/8t5DCocGciKs69cSzaYigPIlckLg77/HzYvW8hLuVAUjNyzGOSHhBQmDzdn9onEwRJ/CUnjYlQgvJWM5LFHviKlfEOmJ5LywvNfkau2jMv2HVulWu/IhfNVyeZGZGRsXAFSq72iYGRqfEaadYBgQ8jspwY4512jKhUJQeMTOuHWapZNDWgyw/CaMt/UMedcVlcroa64lcKDrWVhAgDiX2V1WQERxybM56FCPFlJtkGXyja00+joiCbWLC4sSSZVtMpDCXSmy6rZLA5NyujoDq0kxCTvEyyT6oCFiTS0SJ9TNj6V6Cc5mcYTH04rzUp4kvtC6LLVbvQ1m3y3ulLR/c3cvqntxP3hPS/qufN/LKRoJ820jyIZV91oSp8XTaoYGlIw7UlIsLRjYxPyla9+Q6u3TF+1VXrVeWnUZ2W1XpNUclQa7bL8Xx/5dTl+4qJkSzlptqxcZrk0oppakvES6YykMwagHSBgyl0oUAPbzOq9T3qf6wPQZCQJwGSMSVwLrtS/123UWORinq4f6lOomkKzIhqwkfrMBZDm4NDZQVYV/ozrb2n2vGeFDyQxzo77tlcEiwmRNus+vROXu1o4aPVyqr4/jL2zfPp8Krs9SGSz8dLAK4vTPkh2oBnSyI0h7UgvZYvFSOUEFA4IIX+kGGrObsmK3Y5JnriH6OBzhZLUGk3J5UvSqPNdXq7fs1duuumgzExvlPHxSU0Eevzbj2u/pP3Q/aLTNAYzJ2nuuVa5AsRmL7dpC8yqj0l+zS6P8DEVSY2XmnWph7cVz5KXNfVw+tNPP/3Kps2bfuWmvXv/4zqr+doCJOtg87V1v36gZ0sG+qVLl36qUl39P8fGxq4eHRmVbij54YPpWvYyDsTiE8CVQmSAyBTJO2p8zOBpVSmwy1DWhBV5Iqnm24BGWBtKnOHVds+9b5KvfPkL0u3V5Oabr5eR0Zykkh1VZ/baDQ0dEepOR8FaSE2PBzYjNgl6mN0E97BK8eztV2WJU4HlsmxwG8gJfVm4bVB2zidIwGjfh+8K2eA0Z9xk2bPF+asRcMByvJJKrHayed8NKgfFq4go+Rlsg+weXa49I8xKJjdVb/BehAmGUfSJvx/2CnY+KitAn0jYl8QpUjrUHF/U47GYzcni4nkZLQOYl+TlE9+Wq7ZMaJ3sRiuS8+dWRVJFmZjcIJICpNX0nDKS0SQordgDsxl8E0m8UWbWfTepekOwL/jtDeQLAGw0mlYbHdBjSSHWf/i/1n5vGbviC6X+IqBrTGEvSpn3n8AsZjXRqtloSSph9b0TSeyR0CeSaEZm7Q6tk074Ms52KWOnwkALh7vPKj6bDmAMbJmEYnA9Pe1HvKztw/Ydu29sx3Gd6fNJnOfFWUK/PrbLZ7P9rGJlbEMtdu2Xga3OZUvy6Le+Lfv3HZCZjTPSqi9KvXlBavWqZPGtTQzLhYtNmZ1flsIwYXJLqAFktuqwlhkFa7SJapODvyQ6VmQOJJ+oLypdJ1YUoW9BpP6glw9prx4nBv63DkR1D7LXFZRZW3v4Pq5J5lozasfkFXKMKdQKYrB6nC9gM1iFxdPwYAP53N0Z3LTdtaYWpLCkw3hRCGIJ8QWf9wcfby4HX1C7XelFuBawn959q/SExGjtatfrAaE1J8EHmJtOSUctjtIScR+8IppWLepKLpNSqyy9Dq0wRZSHwhuRNLopqbTwti3I8WMnBPXGvr03yq5d12rxgK997RvS7rX1GYbFVA1xZACZFmxh55UHPNNnrX/6y0/dgeMgkjJI5rJtkasECU2Q8vhzrOC42dTFGAuzY0ePVS5cuPDFO+6+619Pj4wc+4FOhus/9n23wDrY/L6b8PV7gFpU23rq6KnfKJeH7p2ens6nU2lpdwb1qRnM1zKX3ho+MfikfsVWipKSBmyofohB10oGKkjoMxVWO7rdgNWpyZGjL8nEmAnQ/8sf/q686c7r5a67bpRabV5azWVJJ1rSa7clRwWKVFrqlbqFuzUhAf2WTehu8B4kgH2wqUxoAHcGWGxA9Cx0/ADRpg3+xpKMPKs2lG/TEFqscsqVss/7xyUbV210BubRPohzPv3zCpOR76chqwBM4qyQ+wg6yNSrCNotnXAtdm9elp7S7hWSYvozv7++vW1q2fbgDMLfev9aTBqRlIoiS0tnpFI5K5NTQ2r6LpKV8+fr0monZWrjJklnE9JJ1CSTTEivHumCALMqnaR1QqMknoXP+GshPwunqm+h3pRg2xSirIRvvdqIhadN88hkZeb/Zgk0SJqx5CNAkJWyTCtTGynr2tD2xrO1q5Ude+a/qdecllYnKyMj27VspZpmh2QMZ/GcdbIQoekDtba6Wjq5ds4WA65Lpe8PogUGMHWiZhmmGtAQ7iejJOg5rWdacohbxLiWMxe8OdM50716aJN7p/dLa6+X5MnHX5Lr99wgk5s3inQonDAnyyuXJJksAbslSpRVzlIcSotgbN82z1PWTX5dusiKlTXknDSBTkGd1Zg0cMb1BCZQn0dKfJpZuPdPDa0HYOR6Se+DPpb4QohugKZWf6UXaWUbHCR8ceXtwnvad3CfrBRpP7FGoWeQ1wQzdr+evmIllHF08OzyGWTmem2xCIqdp6PoWLGINQXfE0l6TwPlpxWe0HYiidEsyljI9ZnNUE5T32vYfjB1w2Z2AKehdKq2F4vLblsKVAhrN1nfGVDMFaXRwuBfZPM1N0p+w245enpRvvPiEZme2iQ33HBA8rmyvPidw7K4uKxspjL3QVMNmLVoCh7LbUmk+F2TRMRfaxlh18BbN7Bz5y/3CPDq90aTikL0jGeDhS1M6uzsrDzz9DOvTE1P/uodBw9+KpFIVF6/M+/r88rWwebr875+31cVRVF6fn7+n8wtLnxkempqK6wmWk0Ghwz6MK9csaZiTRxs+gSiY/EV00XxsiSMDtgMuquQhelVQzCvViub5RVZXlrQ8OjIcEm++KW/lOWF0/L2txyQ7VePyhNPfF1Gyilp1Zek3WpKgoSAelt9KmEIUlAemn0+yPpUFmGNT97aCuODFXnQPl5WYDJoohRk2mSqoCwG7PKZ7Kt8OC9jAMLEyn4wi85+GaJIvtoUem06rf1af/C2/5D2gJm01Wz2sJz9NTaSdgcsUqnHwTOef5lkxiY5E3D2J784CPdKKgqCAR4wiw1APEk0hPFWRZJVyeWTWgEqkx2SS5daslxpydTMRukmO9LsLEo6IVLODGkssolXI96PIWuaxB+diChrR6JQB/1uS3KEbZmEwntC4Lz3bHOvIqSekvW6TowwmxQA8AnNPCvbluWaL5jFUNcWTmlOisVCJ1JDb8CMZs2melLHqzOB5m1YwWa7DVA3XRogluN5ONmz0NFMqpVM1s7RdZuYrntCC4bZ/DZ6ZWXjNEsXYNqWdqtlpf0Cy4O+VSUMZJ7ju9mwa4RJpO948tPo8LDe64XlBd1XDe671ibGdKZlqDwpX/vas7J/70HZsnWLiFRFEnNSWV2QqAeoxvA+pWUNE5mmJFJd6UJ/RTDIWTWSzyogGpQ/pPxkvD+ptjL4z3IcvveytnQxSpn2gXAA7QqsQ+KUa/YcIBvQNn0i4eBe2/5vLL4lh8GWsp9qinleAMLhuVcpS1hc2fLBmE9/Ji9jT912KPZMxwEvgDOl0klPSDLEpb8dKmD5uWnyTri+gbSmK50ufaqjERVd/AEUfRxhbAjOBA6gtVJRkn5pi7Mezy+RoQi9Js+iaby7JLm1GzKUy0gEO64SiK6sVpty7JUzUiqPy5vf/SEpbT0ojz57XCorNblh/81yzTW7pdnoyrnzl/oJPzx3ZofGWA27zoIjo64SbVZjuhh+Ndj0RYPes9i46Yuy+OKMbVyi4wtCfR5zWSUbzp8/3zh14uSXDxy8+f/YMjPz7Pc9wa0f4AfeAutg8wfe5K+NH6xWq5suXLz4H0vl0luGh4cLeaxMPLSZTGk4XfWPMW3U2iu7Uhh9LRh1/7h+mDdwWO6/ZixVUmqrK7K6siwT4yNy6eJZ+ewff0b279kqd9+6XZq183L61CHZvn1GmU30cVGLacQGYzOiJHvXbFoM/NoERU3rOBiOJxDwOQOfT0Y6OAbmxa5DeSVlYd3A5XKwar/tYcN+bfXQCMq4BGrV/DEvB5ta+z1WBi+uNb28rdeO9AMm1Mo7xsvtWWKTg0eYFOAm791sXj3+XFbAYiAwq76dM7S8b2HLk0GvZaCN8nW5AqddlW6vKUPlMcnkhmVpsSuX5lZkfHJKWlFDas055XAmypPSa0b9snnZnJmsY5+jmq1QZ5yQHe8B70x6OBaYhrOskxQgi99nAnQgRvZ8vpDVSZMwnJmqR7p4UZsXfDizGSkWStLqdGV5eVEAgWPjI+qzOT+/KMXcsII9fDZXa4CxtGQLozI6skMaDVjwpB6Pc2NSdBN61R63Wqot5fep5KPesZ4VHyr8EN53n07KPOo15k3/pmUDGw3BJglw52CV39DQPwlB1Yb+30ORbnY/NjKkz82lhXltj2LZTOBVsxnM8oeGZ+Sxbx2R/Xtvkw2bN0vUWZFEZkV6UU2SmaLmn3QjC5N2essSJdsqeYBJpPILz1Y6ZD/TfyxHJji2hv4TDzs7Q+/9iF4Lc4VW10GaL4h0nQSjq/jJngtnhQmDqwRaxZaDyk3IcHim9PlXRwJ7ds2ayL7TQg1GtvZtxuKLv/iY5c/nlcCofaYB6VjlHgettojl/NAy2vgSnthYpS9GKAWhQN5QQcl8cb04hPneDtrAGGzaTxe1eiwAYEp6bKSSBnPIiKKmJLotSXZbkuqw2E5Jq9aWbz35jBw7dlr23XRQbnvze+TobCRPHTopM9ObZM/u/TI0PKb2VvVaU3XiRC5YLKWyJjnye6AJW8r4e0LT5VCiz14GmYmugWOMpgNN5DtKYBCaTyR0Mcb95pnz7c+ePSunzp45VSgWfvmaAwd+czyRWH5tzKLrZxlvgXWwud4fXtUC+GouLC3808WFxZ/fctVV23QKCYNCXysW7C18te4HWTtwX2kgv2xAD4OwglYmgn4I17omA0+7WZfaakUnkaFSVn77//2UnD93Sj7wo/fLtVeX5Oh3HpGxcdgbprqmqrGa1baMDY0HPWBXgQ/Mm06IKbUMVlbDSwPGy8zFGwSm4XJL9VdB6hB2t9rDca2SDrAB3Prx1/p3Olj3CS0O3i+bdK7QTz3UarOZaU4vZ5CtxnL/mH36wczr/fWqLN8wM3JOfbCtJFBCdbAextQQMdIHSUguPyTtrpUATWUjabUreu3FwpAkE0Wpr6bk4uyiTExPSC/VkVZ3ScPo2SgnqZ6FyxQMpE1zSRKITkjBvgoPVvoeVk58D5gzvaPpNJmkrJ/aJOghOvS/qtlsMnnaRGzMqLFRafSFlIWMsNNCsxlpOJ2mIvM7kywY2BFzR1DH/FRZxkZ3SiQ5tUyybHXTaLpeb5C0Yufi4XC2s6QRyzaP10S3sPFAh2th6jCpB6stfsOfRwVoofCMtl0AqPw/nzVLJDKFNWSeNeazG8vazmRH5OFHjsj+fbepJo97lsyQcd/ScGurQQJcXsEOYNPCvizSYNyx7IFEQz8YpAEhCzloT8w1QR84j1M44IpZCwWd6qB7x7YFzMXWUXFJiG7fDyd7vw/ykL7JullQ9Qj3IkvA4NzEzH3058/LFSMvsWcuPo4ZeDRZTjdBbfEgRwkm8QBNpAEmkTAm2PZ3Y/bgikH8AU0wCzqP/sQqKXnIXKUI+uzadXrfAuCnSAxSoJpEJNT33kxLR9LJnghsfKstqUJJVs7PyRf+8uuSKQzJO9/9AcmNbJEvPv6KXFpuy4EDt8q2q3dqeH1lmVKoBvZM15pQGyvtR8HrkvNwYHglZw8Hl3ELufgc4WMI90LlLKGSmAJPDdNboQaelUOHDtVn5+e+euddd/785MjIM4lEzPF+ff5+zbTAOth8zdyqH9yJ4qu5ePbsbydTyftmZmYKVnZvAP58IjfB+KAKjw8w8TP1/b4by8lkpZNmyOkkQGTbetqlsYfNek0K+YxcvHBSPvHxX5O9e3bJO99xt1TmXpL5iy/JdddtEkmsSipiYukKOUKFXEkF8YTyOgJQCJbpmr2JoB0boHBdoaaxT279ySWYT7vWTP/2vfQsKWhtzWUFF+FAfebyMu3m5ffSj8d+HkbXYwRmU0v5XIEZ4LMB02Bg8/JXYHXDh86QxCuy2IQ20NIpwxpjIPrZ+kGTp5cVEol6WEuR7KPlH4uqZzTdaUcS6ZZ6UHar1AVPSbuZlUuzSwo2JYOZ/KqCTWkmJB1llGWydgsm9Vq9iTD1wNNVM+mDWbp0rZY4zJCDLEu8QVdoNkq8J+kHloSJ0ZKHzLfS7wtg0zSbKWVF6SNa2rJHabyCSDckkSUItXf0/LpSUGYzmSqq1nOgwxx4RXIexmxZZR3KVfrLE4T0PFNBitGvgBMSg9AwaznNbB/wa9g0WFP1ryFWK9tBNL9DljCTNZnhGvbEzgmgEjMLT6dH5dFvHZO9e2+XjZs3S68Lo7kq7Q7Z6HlpN9H+GeOUSFi4Ny2YcuOSwLOTVHN+ElwcAPvYYO9pZ3u6177644lalNlzZJIVrRFrfRnwqh5gCGdx87ej9MGtSh4g/8zfUxNqErBvtr2uC9TRgQo59r3fF/OejLRd4uDTa9CqXZCWL7Vz8AWMnndwilc5SbpreJpQvobP7b65JjyNLyoLQQXNYUzrs5sssrJWKjdIAXSrkPSnzKH6ZLIzOk7Psg9eoGoqzzEZMy1Lv6Xem9ynjvBUqRyW5m925Dvffk5eOnxSbjxwl+y45S6ZPbcqX37ylFx93c2y+7q9ysLWG6QbmWuF2jkljVHmkunLPKdedhUgqNWHYmNGv4+H59lBZX9MIaoS8yWmCTmOL6LyBWy0zEmCeYdn94UXnj+TLxU//uY3vek/JBKJxg9uJlz/pb/LFlgHm3+Xrfk6OFYURYVqtfrBC7MX/+3U1NRWs5mxUoJx/aJrqXTwjzFh8YHnMubtu+g2lRkJgNU1VJrTHXzrtEl7Hem2W9JuV+QvP/9ZOfLS8/Lgg++S6fGcVBZPSjaJPQzsQlOiTlVZnVyuKL0WzEbGwFGoGCQwKZqEg2+fAdG1rIVeg7IJgDUvHUeYahBe9gQcmLMrDbY2oGqNlMF+V+wfg2oqa8Em7IiyXeEpXQvsdTKMZaN7ksKV7omzQHatIZtVJzNL0IozPP5ePwtZse4YgLZsMAGT5WqJOs0WkzumU4TWG5LNsp1IPl2Ueq0j3U5WLszOy9jYiCTSXekl6xrSzCcKVoc8mJSTNe3hOoAmx1Z2O5hzZ7I2EaoBd8uSgiysboDHFkDGilqiTk/QRGJ+7wsAqutwParpQ7ZBtSL1VBXJZEMiThsj+I5kUyGcBwh1ZjM5LKOj26QnBdWukcSUDqFeN7QGaBmbGnxLAwjme0tkMhCKbRaTuINHe2YG2j80kl7iz03H9X0yo9fsbJMvCpATcAxC+/RNs5VJSKHI+46eE+wmjH25PCkPP3JYrr3ugFaEQSqQyjSk0axLNlNQ3WayhzVPV5IZq7/tYdtOqydpTO57Ven0iCYMFkdkyNPLYKust5mmT5/vsGhxkp2kQ6oesaA0TaCoLlSlh2Qps7ppARYBdgEYKrsbiQAUAZftph5fgRk179stjW7o9oSUFWwCCjVLKwYu3cOTZzCwh87Eqml6z87B/8+zY1l7AfV2TN+regOLmCSR5fA7yFewWdLn3yMP/pcQOL/HWWYlySINAK8L70FCkep3ScxR4Gvhel3shQiGLdS9pjqoMqGZ6SpToGYaUYd6QzKlklTPn5VvfP1RyeTH5O773i0tKcszL52XajQue266U8rFIbX1wh8VLSwSFOQdSBwocqDOEbQFLHe/lKcxkAqQQ8KVy4xMeur13EPRiwA06QmeFEaCHjZKyD/oLxR8OH36rJZVpYxrrVZrnDl79ht79l3/b7Zt3vzI62CKfcNewjrYfMPe+itfeL1e37a0UvlYN4reMjExkXMPtMtATcgKjjNEccAVB2+ut7oiKFVT9OALFwZNtQLSQdhW7NVaTUrlgqRTXTlx/JD8/n/6uGzZNCI/+Y/eLRfPvyK1yqxcv2e7zM6ekly6LaMjealV5mVx7qKyodXKskxNTOpgWVld0VCwhj2FMoY5idpmf+KAxkEXA6rVpyZxxUJgBmIsw5hXH/SEKhgeTvXvDLQlNKnJK+IwgShjESpqdJhEQvY62jsSZXhZIhb1iY1VNsPmmEaW6h86oFtVFX5bgU9gVvz32M+rFDlw64fhFJBFVlYuhMyV7QkLC0tWySnTp22UAZwnTGenkUizk9Lz08SQYF8U2Ec8H2EHYUyWFpdVX4k/KnrL2blZGRkd0kmu1TRQxMur4KiBeaetJfCY5NyTkvdcB5MhCSqqh8yanhHLHpgQwuZeCx1PTSYwKlABLrk2jNYBkitLC4LPphqeR6J+gl3pyPjIqGriqJyUTmRldGxYokRXLs3PSbeXluGxTTI1sVuqNWz3k1r2EWDBOXE/OEeALcwiiRpaai/lmk3z0eSaGo26entSoYXz5hr45+CS/1Mbnf3Zh+NRtYVrHh4e1WvkN/nOfTh10tZrxAsxpd60ANoNM5v0nM4PJsklAAAgAElEQVSdO6f+iJMTE5JKFeXhbz4tk1Ob1XtUk6aaqwpO7RzSgnk+SE7LZ6YMwJP8Qv81+QHZ+23B2gmWEK0rDJtld1siC04Tyh4G/STVgDS5RsPuJGMZ66v2TiExyN0GlItt4XjQlexlFjmWUEZH1ASWXkcyKquIpN1qSBSKBPDsklwGCIe55hlT4/nAJLMQQT6BpRPPezpp7DdJP7yMvYP5NqZdJThe773TlUzKGPS6VqGiLGlBF2MA5tVqXRPQtKSpJJQZB2zTTrxvonHOFzT03cOwM0mBC2PSXZJRKOa135JRznm5D64lITE2NHScaLYS0kaOkshIL52RVKYgd97xJuGXpNOWYy88Iy+8eFh2XX+z7HvTu+T0xUi++fgR2bXrgGzZslMXlfmiSUbcBYD765p5x9f9SE1gJz3Ur9r7kNgUZy59lhnYOAUNqkaWqF5kiyky6vH8RS/68Lce1T5NWcwnnnj8zM5du355987tv5RQ0f3667XaAutg87V65/4ezjuKoonF5cp/12w2/qdkOr3FJzDNDo0zaCG7sK+7CecSD78OBpkrdzELR9mkw0ThPoTtDhnOaUkmsgpqiCB1ey1JJdvy2f/yO3Ly6NPy4Hvuk51XT8mlCyelXITFTEiv25CUNKSQT8iliyfl3CvHJJ3uKXtWr1b6iSNM0JCVTDrKhkWml3J/Rk1K0GW5MXYO9gY6RQ8DWai/reypVc/gmpiYTJdnGcR9bSD1flWXFMJ3wdeSzFwYPAZtAAcZoxo27yUUFFgSgWks2c4TkTRrHPCXtCxc1YilyFAGvJMQYBnNJL5wXvw2/wYTmV0zYJKJGGaR37fqNuizBjW7uTYqz3COXo2nUW8aaFJtYFWvk+38mtnfALDp0ywEHELumnVr7Q5zQpt7O3NfvB353KsWuZYrPhlqmD2YdPfD4vgKxpJJ2I/z9Gx1+ppbrdBuuQDgWXyoFlRLL9L/7F6mxIyrJWlJS5HAXA3L2MgOafdy1qbBfkjDpyH87/27Watrwg9AiHPQ3wz13Ot1AEpbv+9nm4fJ1+8D16ftFJ7BtSy0P2fevi4h8IQhgFScGfUFopnPj8jSYl2TWdif66QNWBzxHnCGVtp+P1jV9NqhhKhlzdv2VJ9Bb5tWM3xnTpVl7Jiuty/fVFsrpC4Dz9QOJTmDdo/r0zAtUXOvax/6Vy5ttjt6nyiiENg2A4tIOjS3HGpUATJAUDXHAZA6g8x9hFGjRCq/4clnfKaAEhulUNe+iG2WWkv1NCtf+1ysVjoJUthMeVlV758+XnrlG09e4957f9dxB3aYRKm2FQiwhEXri1oZSC2xglYT9r9vN8c2HWl3qJyVlUxuXKqNhLSTeVmoNGRiZrPcce9bJKrUpVWryTe/+iXJFofkjje/SzKjW+XPv3lU6u2C3HbzvSJdJCM5/UeCnIF30xZ7f3KwGI9iaR8PC2+uob8ojmX3D+YE96MlAuK2XikdJxl/iIrgb/vKqTPy2GOPydve9jY5cuRIZ2Fh/mv7b7z5X2/bNPXU38OUt37IH2ALrIPNH2Bj/7D/VLXVunllcemjEsld2UI+5ck/Dhbi54/foa9gfaC5EsCMs5yvClcnAINm8eKDOCtdAEgqmZN6syUR4cdOXeYunpLf/8+/IXt3bZT3vutumb/wiki3JmPDhGmXZWy4IElpSLe9KmfPHJVGZUEyaSqpDMtqZVkHb2pBo+Fyaw39LG/GwQoonFEMBtgeorRwqDGZvPwv2iIMrg1YGbhz7VEceNugPNAJejnCaoMEkZQyCsac2iSH3Q9UmybuJC1sDCCAGWEyzeSyxsCg0wpsnYfcKciSzeaUabTQMqAhZ8CTsGtkk4iHXR18sr0yS+jwQoa87+PlHXUCJnoZrHk432bLmDjvC5yrh9l8YqUdc8GsHbaTbdSKR+uyWyg8HnJzQOV9wrdhO7fu8QxsZZ2CDECZ28C+8RnnxTWrdlOzurEosmpPvABTia4lCsGm2zmYPg2wqQA6lVfdJ8ym1m9P5KTaSMnI0DYtW6lJIF2z7dI2CCUC+X8qnejb4sAK2mLDEi14ERbNlzFINzsivydxSYPXktZkIayhwjVpn01bPev4gijOWvtz6dfPMYZHynqusLiFfElSKctqVwCnFbAsEUVVJ1jodC2hCgbb2s0WYWxLJj0yCq0gg19px6QNqWxKMnicIlPoRbooIlEEg3COy6IJcOmLD7UyCtnn/D66XACft1VGM54TClz1+Usngq+mMeLZbLCKCo4FLDBVMtGzEqCForGZHlEggk2iG6DX7kNIcArJdGqPFJhPyiumzd/JjJLCM67yDIBjs6W2Ux5dMLauFRZyVh3H+7ZV27G+yPFh2OtVWwzwnFLFKl66EoBvtd9DUliI3sO6qqxVUpIvD8nySlMyuTGptVOy2k7L8RNn5c673yJX79lLto8cO3xEjr10XLbu3CvX3/UOOXL0gjz/8oJMbtwpe687IJWlqtYx97HNmV9bOJobiI9n/qz1x/6YTtwjHAPgaVpw29YzvYJNW/AUZTwhmoXjwsLConz0V39N3vGOd8jMzIycOnXqVLFY+Pi+3dd+anh4eO6Hff5cP7/v3QLrYHO9h4QBV1nN/6Ferf7zVDq9ARNfN4O+UljEweba5vtu4PJKx9BBSU2rDWx6yFcr+0QJWa3VRcNI3Zp8/k//UI4efkre/+43y7YtI7J06bRs3jAmzVpFMumeFNDh9apy7vRRuXDhhEyOlqTXrkm72dDs4gEjBnPqBkUktpAQ0tBQKwOp19h2oOPMDcfgM8/A1NAP1i9pxO1kDcOSGOvBy+UDgwnVvvcQlQKLZFpahCS1VrGxNg4ckGMZAydqVp3EcidmeOzbw6p5yE2ZzVhWq7GlVs/cJ1q3mYkDGrsPxkK6vZLfL87TNbvKvoXwol9Lp4vdkAEWXsbOonccTLhm4dPS83fbIffAjLOe8XazpIRBOT8N3wYbqr7tT61mtiwpA9YKDnPmi8lv+jnwux5e1mz5AIiZSLNBVgHY9HAsSTUMjOyTSeYkk6VdulKt1xRsZvITMj66U9ptNGzGkNGeeu8CGAeUaYUglQhi1m3slIGSIOXQNjP2yk29mXjdzFsXCz1jvHm5HMJlDnzmyRq6UFA21hho04Vaf2UbwD3fA5zpm846E4Y35jNoSDumfc2mbZtabdWY6WBBhL2Qg+VUkhA4CUKdfoUgpA30SVhFfc6o+a7Mp+giCea33qTCly0G+ix0FMLiXg43hK3bhIphOdMGaH2BAhBToN2GLcbiyAAkEQnqyeuYohn6tnhyhtekKmgsexo5KRG6bTWVDXWZCQATxpnr5jc5+Q4Ri4RIKV+QVte0rwr2U2gqI6k3av3FgC9m/NrcGss8Vu0+6eJCs8NaKg8gjKySnTCOtHUB0JFcxoCaj0PIMbjubqsrlWpT8qVRaXUyslIXyRQm5NSFFRkZ3yh33/9W1Zo2V5fksYefkHRmVPbdcLfkR7bLlx9+RjKj07Ljmn2S6GalkB9SsOlRGV9MG9kQZDIxf18H4tpR1oDNQeZ9AJlrwKYDewekjCdD5SENp//xH/+xHDn+svzMz/wMZVY7586dffjGAwf/1y3TY8+sT9Ov/RZYB5uv/Xv4d3IF1WrrwEpl6ZeiKLonlUolGYh9QLjS3zjY/F7sZRxkvorZ1KnWkjhgOAGZGk6Ckeh0tB726OiwnDl3XD7zh78ju3ZMywP3HZRec04yiaaMlLLSrlWlkCEMGEmzsShHX3pGKwlNjpWl12mqETwD/PTkuE4S1IoGoIxPjmv4t1pZ1YnUNGtd1cQxGTM5M6jPz1/SSYXwMS8YIa4DXR7fnzl3Vid21xr6gM17BTmVmpmHF4u6DyEjjsH76Q1bZH5hWWo1Yw8QxKNfRJvHa2JqUicgPadEWr/nRaYmTMjI+JhO6IsLy7o/dcSNtapowgG6PSZXanSTMsCEwrVwPPd7LA8N6XuunWvkWtyzkvMfm5jQ84WR5HvaiePxnv8PDw8pKAO0cM1sw/71ul0zn3FO/AaT2NTUlE5qqodMp/X4qrcklJZI9EER79mOc2Y/zsHfM3nznvOYUO2hgSqdzHMZBWdcH+3Id7Qb58g5A1I4B76fnb0gw0W7T4BNADCTYRGmOdQZl25Spmdo966cPX8OGCVTMztlcvJamZvHWiitjDmISFmsyHSnsFFcA+pjzpdrw8eT8O/IyEjQoa7IwtKijI+PST5fkEplRVqNlpTLpul0X07uIewc1wcTRrtyb7mGxcV5vV6tktT2hKABm728sqjtD1MESECzSZtQAhBGcP7SRQUz/IaxpHYvWFzRX+fmLhlYLeT695Zngm03bJiW1eUF8ydNpmRkbFRrcC+vrCiAGh0bk1azIfOLCypnoT8DzNC+En71e6s15HuRtgvtRt/ge/pXJpOWxfl5vYaxkVE9V+3PsLTDZdVzc01IEibGxjUZrFZZUUawVChqNj7Hq9VXta/QTnPz89Jpt/W+TYyP6vk1Q39F0tBptbQv8JuT42OaGLaytKwRl/HRMY0OLC/bMzQ9Oa3b0b9oX49asAijP9DOPJvx/kv/4H1leUk2b5zSRKRaHYAcmb43ndaEttXqii6CuU76zfz8XHiGptXj9PzFeUQfMjGzTS4t1mW1nZNLi2153/s/JLmpaWlcOC0XL5yR4y+fkS2bb5Jrb35ATr5ckReOnJbRjdNyzbXXy/zcily9dWd/Mc61KJMdmOf+2P/XuQ3F/EPjUZ0+MA37O3M+mLSo1JWXF77zkvze7/2e/PRP/7T27UOHDl0YHi5/6u47bv93CbVCWH+91ltgHWy+1u/g38H5R1E0srS08t9WVqv/KpNJb1QWhZBtCJ/EdTrOPq31T/tugDOu9bwS2PR60AjMAVQQg5oooRmQHRkdKcnnPvcHcvrUd+RDH3ynbJouyMrCGSlkI4laVRkrlaWFLi0jsrJyUS6cfVnKxZR02zUpFxH3N9T6hGQJDwtTs9n1mK6JdFDkLJ4xP6bb85As1+4JU6otTBrbRIYmZuP4YlJWE6BOpZskCRPtniYCZPGSIzyPPrEDY5GRdDYntXrIhA3JMRbCMg1nrmBsK7pQZZs83BaShjIkF8BeELoMjIcyoWjeQo1m110BNj1M68yLhsNjYT3awNvIJx2qknio3cO2HJ9jWHg+JI0E31X3vESb6owc525h2oF+VBcUhDhLpb58wBk5+omH8jgfd0TgM4BbnIF2ZtRD94Rg+UxD44FJBMQAHozh7eiEzu83qQGe9lrNqYFHYdp6t8onelQ1ghmPtFpPL6KC0KhMTFwj3V5emWTNzg9WR17ZBdCq56Aa4IFPLayZsnTBVxCtrBJyJFhR57xrk72xtdb3OI4uZjiH1ap+73ZO6CtNe2tsrksO+trZnrHabK/XHPxG7V6iyTQAbs+6/ZaG7NOm4wPEaWi7LwNwfW0khWxO2q26Ajf25xxgizkHju/hdmV8k8bQcixLBjNgBsh0xlblGHjkqmeqyT3IJnfG2Pq/9RsGCoAoyeMsGgFsLCoBtaqf7JksQYsu8Iw069qGfGaLCmO4OafVVasupd8nzW+VkL23K/fF241t2LfWqJrOOhcqWAFOOSf9TYvYkOCGdRUabBK9AKn5LCVARd9b0pMxyABNvk+nTFKikpVgSq/uCT2rUMUL6Q6VmBotSvyi1xyTuhTk6edfkd1775Trb71DpFWXZnVJnnr6cUlnRuSWg++TdjQtX3v4sCRzQ7Jz93b9vXJpTA3dV1etIIFrf10W0J9eYiUyfT64bOq5zKzevlHpQ5CXOAMaD8OzDe13/vx5+cRvfEoXGx/+8Ifl+PHj3cOHDz/8vh977/84MTR06O9gils/xA9BC6yDzR+Cm/APfQqrq62bVmsrH223WncnEomUTtaB2fRwsK9Qnam8Uq3b/io4XFBf17Om7Jtfr/4OFS40e9NLxyWVJWBSHhrOS2VlXv7g939Ltm0dl3e8/W7pthal16Kyi0gmEUmxNEQGkLRbVTl/7oRaHw2VYRQXpJBPSzFv1i1MKPweGdBY1cAa8b6QH1b20MPsfOZhVgc/TOgeqvYQpofzSmUSCCwBAuYDsODm7gzmTDa8Z/Ji8kkn01LAfT6KjAHK5i2bOSS1MJEWC2XL+g0m4YBKXkySgGMHhYSmTcgfSjoyQXXCJJ5i0sT2BuF9rg/QHHggk7Dw4qDEop6DVzQKIn9lubJZKRQsHA/g4vcd7NCuzgKb9m/AiNOWPjGtrXjDMbjWWtOO75Mc1+kTFJ9zza4JdbaF/dge4NnEuDxMahYetiQXB8t+LGeXvbKPTtp5QqCW4KL1pkhi0ux6c6uhD2ZTAK6qlgjMksyRyMrKqsjY2E4plqfVwlDbbFAiJvY4W+hcJQOplGbbcm6u4+O6MmTOr8Asc98MaPBMeLvB+BNK9rC3SyIAbxyLRRTbevtplCC4CdB/+N738UUT2+qiSssdthVMe/+ybSzUq+0SGWgDpLv+1bW49eqq6hWpjmQhfHtO7H5af7VEI5JgHETaoskXaugPHUS6JED3TxgIbeGvG6QSuvALINIAWlsZy1KpINl0RjWk3dA32N8ScYxhdxCtevDQPnzn8g9AIgsnLz2p553PKJMcly14WV0H19oXdVHZ6ZeXZaFO8QHC740q3qVpIbnJwvEtrZbFYrRQLsrS8oLed9Vca0lLsyEzRwDTgnJdMML+HONtiYY7my1IWrKyVGlLtVuSE+dW5L0/9k8sQSvRkvn5C3L48GG5avt+uWrvO+W5J0/Jd47NybZrrpet26aUFd+x/TrVm3vb+zjo/WgtsHTCoE9AqMn/wHk/Vv1X+1T8u8H/B7XdeXS+9KWvyB/90R9p+HzPnj3y1FNPXdy6desnb9y7+xcSiYTpOtZfr/kWWAebr/lb+P1dQBRFpcXFxQ/XG62fF5ENrotjgGQAioNNfsnZzu9WGeJKgHPtoBPfhokV6w4An7qjSEpWKkuaQLBhw5j8xec/Iy8ffV7e/a575eotY9KoXZKhIpU32kIecLfe1Gze+dmzcvLUcRkdyko+l9TqGd1OU8N6MDas2gGdAENNaFCdXUKQa8EmeKKFayo5RyY5tFhxgby3h7N0npDR13uF5A/ToNrj5e3obJYBIZJ0gk5QfayNffL2B3zYOQcPTKyOYropt2tyxtBZR5ch+KTKxOQTh2s+lTXBxjyFkbmFZ5VJBZQGRs8TUjws2GyaBRPJTEyw7GOhVwu7D4CMMaE+sTjj5jpBwDDH5r3+I/ciaNhoK9e9OrNJSM1Dms6S+1/VZMZsmmxxYEDJmU625bo5Rzu2aQP1PktXskHTh0aY8wZsYvRuFYRakkmS/KTpMRpOTeK7mRpRsAmzmSIEr5V8PIHG2tUBsD2dTP4D308AIN9bdroxxK7XNZ2p6Xd5NpxhMyBvukIH5JqAFGqAe3t6//U+a8DbmNEBq2isk/4Geko9opUt0Hvndlacs2p0DcCq80EbDSaLmKSy+TxfMLAsorRKUZdsc9dwRlbBSzWpasaoZVF5rzW8wrWwmLNEonSw1QzRhLQlrbmTQC5EJ9ie54P7UihmpcFik0SzYEtEu3E8Fh5+H7y/crwamtHQ12hrhNHebjCjXJuC0zalGgdWSfbs91S76fdAn9GEeU+6blblE4HpHSS1DTxhOSfTYDalUC7omMT4x4txAYaU/kRjYA2n9k+8j2whbNr2jjRrbSkXhkWSw/LC0TnZtutG2X3gDtGKFlKTRx/+mpSGxmXvjffJSmNSvv3cOUlkp2T39Xtl9uIrMjU9Lhs3bJVGgwVuUerBccKfryuN2/HZRkGxRqP+5mBzLWnx9NPPyic/+Um59dZb5cEHH8Rfs7W4uPDorbff+s/Hy+Xnv7/ZbX3vH6YWWAebP0x34x/gXJrN5u6zZ89/IpPNKqvpwIQB2QX8VzqtOLO5FmDGt79S6Pyy7xlQE2lZrTc0Yxm/u4W5WdkwMy6d5or8xm/8shy44Rp559vvksryeTWRLuXIVm+raL9MGL1elVeOH1b7o5XKvIbeCzlCTy1lFpiUNNsyEcns/JxOsmipmNjxfywU8Cm0SiswngyITM5sB8tKm7iecXFpQbfjPec7NwczkVOWjZd6KwbLHhgV10fG/R85JpnA41NjsrS0oOcRT56xjG07R36L7WkjfpNzcd0oYScmbbbnpe+TgRkmRFYu63s0awBrNHBMVpwTSUccj+vmeH5NXDP6SyYzzn9kdFSPzz+ORzvyPftwTeghOR4TrF+jgVFjH7kGztl1dujmeLE/kzTfm8YTC5eBNpZrBmRMT0/r/aBdPYzOveE9x3DdH2CCz7Bu4bq4B36O3BvOyXw/M9pOHHtuflaGigW9Liy3VDtIX5kYU4YabSxgEx9MKgstVyrS7aWkUJqRzZv2SaVGZSqRbK6gYVMHRbSDLSzs3tGOFq5d0fdoIbHU4feQWKh5djKpLB30FtubDrWu1zA0XNJz5PirK9h4WaIVoIpjuA8n7cM10l76G8WiUFeae8z+fM733Gv25/vF+QUrK5pDo5zWewFbTRtzbzHXBlziF0n2dK3W0D7LvlPTEzJ74ayCpmK+JKWhojTrLVmuLCnTODI2LJ1WVxaW5jW8PKo15yNZXF5QjSfnyH1aWVlWMDo8MqJ/OT7nOjo0rOdx4eI5vX8zU5P6nFyam1Vt88QkGuSkLM3P6TUND5Fdn5JKZVnBGhnOnCeaUvrG0MiwPqvq0RrM9ek/85fmlD3kfJAGsK0yv4mkjE+M6vtqdVX9MblXjGncx2q9rv2Tc9NojOpIh/Ve45/Kc0EZUPq/yzjsmSvo9uh1ZzZOqxn96sqKNOot9U8le7+6UpFGuyGjw2W9dxxrYWFJhkbGZHR0XFaWKzI/uywTozPS6ZWkUi/LwTsfkEyRcaglZ04dkvPnz8n2HftlcvN+OXKiJY8/c0J2XneT6ncvXjwhe667VvI5tveEyUH1MB+jHUhemaF034J4VbUB8NTIRgDiJgtpqbWTs/RobX/3d39Xzpw5Kz/7sz+rmtonn3js7LZtO3/99ltuwFdzvVrQPwAm+Pv6yXWw+ffVsq+B41IDfXW1/oHZ2dlfzGQzm50FUDaBUE8wQP5eYNPB5HcDlX8d2ESzqfrJDl5zaKuaWi1oaqos3/jqF+T0iRfl3rtulN3XbpR2c0mSUUsKOaAuJQC7Gq66eOGcVCuLks7gL0mIhrCmMR39MFlgNjUUmDWNG/83RiJpXnmwDWSdEmJVxgK7lY6+1woxlGLEN1CLGzKQprRyBkbsvIeZgVHxmuYAOsJlSBJ0e8pkhv0xZzaGxBKi4oDd5QfKpKi8YOCzSLUbkg9w3ESfCPMFQIozW8qCJI25YmAHQDChOCDmPdcACPHwJ/vE7YQA/cpqhhC1TzZrmW62oQ1VV4csAW2hMosWyvZzdybYFzAWuhadwOMsoIeD+c51hy5rsLCxXRO/6WxSvO20fGhgg/2vs7P2m2ZIrgxe8HdV9o8qf2rQrTWFtF114UWBxjxsU1tW1bg7Jdn8pGzYcL1U6+RhZVQ+4bXP/Xr5bWNXLQzt4UljjBPKyCqIDjIBC1X3pN20xBSuk7ZCA+ksM7q3VoMCAcZ8cmzVhVKWkPraFAfgOsICDjDqn5u9FKFpNJloKi3UTfa4+h72zO+We0EIlxdaRWf5AIe6fdB0GitN5SSrxOT3QPtev6Kp+SnS37g+knnY3/qjORcA6gHlzngpq8Z1ePuHWvd8r9ZBAiNsbaT7o8lshzZKm19oohf6HjraDiUbOcdg0ZTOSrPT1AQ69s1n8n2LJXfn6f8NfpC0i4fJNRMcyzGM5hNIDnJaIQlGF8yWSmCphFa31zdvh8ltNbRyuZQKZbVSApSj+ywN28IIbbdFB3LKyJqbQkPbQsP4ibSOM+0WCwUKIfSk001KJl2Wwy9dlOv23ScbNu+Q/MiISGtFjhx5RiqrNdl/4M1SbQ3JQ0+elF5mVG657W6ZvXRBhgpp2bVtuy6yXCMeH+fXhs+vBDq1j3h5sytUiHNnC49ucN9HhsdkebWi/eHzn/+8/MlnPydvfvOb5Z3vfKdWCzp65KVvvvVtD/zL8aGhF14DU+j6Kf4tWmAdbP4tGuv1tmkURVfPzS1+tFJZeU8mm0375MyAjT2Ih3GvdN1elsy/+26gMj5oXWkbJjQFt62eaQJrNZkcH5ZGbVF++1O/Krcc2CX33X2jpKKaZJKUoeuoRozjEvKqLC8o81EsoM1sW1JQo6oTJXqytSBMJ/60hXq16oiCTiYfJguOmbQ60l2zaIGhIeROOLHdbakGU1fravGSUEan3mgOJhczllNmBcsXKoqgoVINYND2YX6tpuHBHsjBFufE+Xp4UUNtTWsfB3mDWtNm786U6QklFmodlM9U3V3HEkgAxv1QYfAL1d+LTLvI/1V/lk6H+z5IsuE4TLLK0DStdKn5i3b7x1cWQy1+rG09TOtJDYPkg0F5ULsHA39J70seZgdMwAh5aF3DdqEs5EBTZhIEZ0sAmx6C10VMYI37bRyZJyYvDaFGtsABpHGNhKYxGWdRoNeQQmfZlk7U0kUHCUKdXlFmpndLJ8precJuLIzYv4ae+Wn6vYkDTw/xW5taQo4C7wBA9X0oKsCixJNTvO57X7/ZwUoH4200nhyBtjXdKto/QFmpVNbrsefAyo6b/UwygG0zD0dry3YcG4aTc8AmqZizCjZ69ADi3ZqJ5LshPb5ZBXm7ev+1RB+rqe1g2mUitC1gikWcjzNch92XTD9RiPMA7GtfJtweGtjGlYEnqJ2b3TN3NqNtSdjLFQGUZjOVpLa9bkcbWW1x2ov9WVjqPaOSj4arTTeqAJjqEoB4Quz4cAIms9RdF0kAcik3SRJNL6FgFtlEDl0yDgX4X5EAhGVq6NsAACAASURBVEcpzyHPbQiJM67QbjxPOu4GSYu2iXqbhkVZitKfsN1t9cbqtCMpDk3KmXMrcvZ8Te5/4MclnSlKIpOQ2Qun5NTZozIxvUWu3nFQjp+uyONPn5I9+2+TcfWvPCE37t8jpXxRWsgkAN6xkrV2rwelJv3ee9++nOW8HEJQNWrtmI+1FNfH50Q8sMB66qmn5Ld+67eklC9rBvrVV22WZ5999szmzRv/w8Eb9398ndV8vaENE+qsv96ALRBFUXJlZeWts7PzH4ui3g5NWgnJGQ42XXu2dpWr7EeIlqwFkP7e9/EJKN7E/X00w9HMyysrJBMwsdZl48yEfOuRL8u3n/iafPDB+2X3zg2yunhWyOdIYq6tLBAsgsjRIy9It9uS0ZEhqdaWBfygVVrIAu2btJupORMOE4yXrIRhUk89sqTDRMI+yo7EdH+WoGJaQ78uY4CMgXAwxr7OusQZOA0fBQNuTyziPYybGzyn08a28hvu5akm5C3L/KZtnBX0BBNl7LodrWXNy8zXB36MHM/rKANL40DNwU0iVkdcwVxfE2jtwG+4JlM1nSEs5u3kLKOzcTAwHk52KYKzkAY8Bub3XCuaz3ibeAY7x+B7D//GM5Y5jupOFYhY8pT/BsBB2afQjq5LVfBEaDRtwJntyTouZoNet2NJYwCpUqmoDLV6UKapjc6031bmG+sjNHKAzVY3K2mYsZhBuYIdzU43xprfdb2kJXiZFte0lgOTdGdCaXPV1iYsoQaTdN57lMFMzOkLlLc0hpBzVo9VsqYbxlQqeCFTu0bhAGNKYSzbCm54hmCIRfWOqSQLFphP6zuAOvondkvIUPw9iUTGuJGwZOeJVZMxzKb/HXwfdKdeRztt7UJ7OMut5x6Y6P6isGfHB4T68XSfsCj1hCc1WyfjPUOykzGdbA/zSdjffDwtq58FV61e79s7IRECTPGsIB/AS5TwPteXSWR0e1vw4DcaFhvcqxTl2GG5LSNfs8nzRatQ1LQ699j4cE6a3ITbgjo84MZgYJjn2MYSi45oTXmcOMIiyscYHRdZRAXnAqyQYKXLQ6PK0rYob5kqyrEzy3L19n1y3bW3iGRL0lyZl5deelE6iZ7sueGg9BIT8vjTJ6TZLcn+m2+XY6+8rHKI6/deq/eW4hkwuWvHeC8ycaWp8fJtByF4nT/6tdrtmCRL8UyvLK/qX9wnXn75ZdVpUkr17Q+8Q+6//35ZXpyvHzt27Gtvf8tb/+eRkfyxN+CU/Lq/5HWw+bq/xVe+wCiKhk+fPv3/zM0t/LNSqVQsBksZZ4+0/nWok3ulI3yvBKH49s7a+GeXgVNWwVpusSPNBut9RP0JqVWX5M8/92nZd90Wuf++A5KVqrSbi5KWMMGQudnBKqYpzz37qIwMF3Si6HSa0mlZ8gLaKQMUhBLJBDavQ/dzJISsYcwKNZNzfT9IAAeDPBMtn7sWy6voeAjQTLJFVqhUlDELFV4aog4haQOTdQUNTPaege0Z4IS1V1dM68XE7V6Jpj00fVinaSFqrsntawy0SLDwMZ0pM4aGydUKhsnXkkLYx3w5TR8J0HYNJ56BkC5kpdJW5muYCb6bkW6P9RHH47o4nifsWK3pnLYzbeTvCfFZu1uVFPSRvNAKcp0jI6bh9PswNDzcrwmuodaY9pXr5pyMEbFMZwewHJ/zGhoa1vvqSUuAHq113sWBwPSSnvyl55jP6Gccb2VlScr5nL1vox1cUeCAdyhgE51cIkrJyMgQ1vmyXFnR2uhDI5tkZnqPLK60JZ0rqKUV1+QMpIIeQE67refIPchqDW6rfW51yzOyUsE7tN733VRdarPVLxvKNbh/KdetzD9G89rfuEbzZAVUUYOeRRaaSoAKdej5fHFxWZ8ptRlKRqoLRLoCKMpkk1pdi3KI7M926nlar+r2XPfSwqKCKLSuZkFl+lradBgt4YLpfV2vy/6cE9fnCwX6G4ALTR7b8p724d5iwN6omaOA3Te7Jt7T/4H53EcAL30jmzHrIo5j2taEthHtjyclIBX3AAuzm3co951/Wl41b5pMmF/6ynBpKHhmYnxPVntWq2LBiHLO5TJuFebhynvavROZqTvtMjw0qu0JqOevWiFljKGkLUxnzfZmu8XzYdrYhtRXq+odmkKzrtfYlpHykBYRqFYregzanGuoVOtSrzdlbHxaq3EmUzl56eUz0s1PypvufbuU0V5mcjJ76qScOHlKNl29SzZt3S3HzlTkiWeOy959t8vQ6LQcOX5Mbr7lpr5LAcx5PIweJws8UsHz+2owap8RodHv+wN8KK1J0bQQidBxsd7U/rC4uCSf/vSn5fkXXpSd23fIW+9/QHbs2CHfefH5k1NTMx+77aa9v5ZIJGwVtf56XbXAOth8Xd3Ov9nFRFGUrtfrd7zyyisfW12t7ScRAGbTLVJU04b9S8y6Zu2RHWzGmb6/fhW8ZguqfUSmvaM2LskQDMRPP/2oHD70hPw3P/WjcvWmslQWz0gxg0aT0HhW0qmcNBsAxUWZvXRcSmU0fG0rS9cwuxWbnNFuQf4xmVrygPtkpmG/8LQkDBbCxJydhlRVM2eZsPyfycn1jJ5pqqwjerpeQ1kXD20ONGu24vfQp4fHPYTq7CnhOG/DOPOIFpUJG7BsxwnZ6D2yfQn/JVQOAJegg3rwQaQkoOknrUKLazYVQJORnDCvUCYYwpNU0PGsaJ/YjFUMtdpDiJoJ3gEAx3dwqSxerLoNjNtajSVtRxtqEscwzIwBZM1mD7ZMfQ1nLJSs4cuYdpNt1C5I/RwNhKNx48X16eQYson5v4exXXeoDFzwNdTQb7sl+RAypswnL9hApk7C6MooC7ICmEqzrgJsJlLDsmHmeml2soKkVsuLBg9W/iqwCwDYz6tQMo9JQIUvLBT0RGhlTYfK9agPZ6gp708L52Gay4RaPXEcfoPrsoWHuRsor6Q17S0kbzIFlwyYZtNBj+oACQm3G6bZxMIGJW8oV2nMvUhTyy0iMUj3a4yb5jOteul2qKOdS+d0ocPiiD6YTWU10SWdSEulVtFKPLliTrWJ1UZVP6f/4Y9pXp60m1lgAe40cpEK0YPANHIfkLm4NKNYsoIB/swSruecPKRvsgFbNGu2OuwuYJJQNeNbJFIqFPR93zEiSbt1NFGLl7LQwTOV46D3VleLoDm2RLCg7w1taudvTKu5C1h/5Z/3X2WQtdytJXvBXNYbVRkqDavsAMAMI62Mb8KkP+g0BW2u4Nmbl4cef0527L9Xdu+7SQrDRenOz8vhFw9Lu5eR6w+8SRrdkjz0+IvSTpTk4K33yPGXTymDfeDgTTK3MB+sv6z051ow2Q+rX8E/U5+QIB3pAwh3yghhdGIA/uzS5zds3KzJbJ/+9H+Wp59+WkrlYbU5eu+73yPLi0v1c6dPf+WOu+78uQ3j61rNv9ks/trbah1svvbu2fd9xrVabcvCwsK/OHny5H/fanXKW7ZskVLZtFc+OQE24yvTtT/qmk3f/kp6TAdJ8X0vG9QSPZ2YlOmqNxVsrlaX5NtPPizbr5qQdz1wu6R7C9JtLko5HykLopNYIifLlZbMzZ6VbK4uqSRJiz0dPAk7GwBKquckWd2oRaJesCLCBTo2WFLppN3o9IX48fNjEnFxuyfh8L3LC2Cl+E00n/3wqV8sQFpLE7ppeEi6ILknAEc9PskYISMh3pYaXlOLlGA74/ZATIKUSERzhjm0hveSWvPdAJa1p5ZlTCdUJzqwmDHDeA2vB4mBqDbX7EssHJrpg2wNXwZNKN9rWC9pdkyuk2TS9AScuB5PgZsm4pgW0vuWh7h98sfcxbZzsDioIe+TdFzLuFbagebO283C18G+J9S29j7ox3cAYiBEhLrbnAtgUwGYOuGQsGFJK7kMYATD7rZqzXpRRurNtExP7ZZkZkTBJgDGTdy5Z7pIEdP7udbVr8ETqSyk3NYkL/a97N4HjaAtejIKhujHtJPLCUg864PsNQlCahIfZCAOOl2DSAgWMOULG2sf2oxQb1uZKsCOJh9hvaSLjfAZoKtlGkLTMXYkrQCVxU9KQ6iEo037rMZkupgjQQdPzzZ14dvUmMd83UzrddxgI0BN3zjck1ZCzfJEAEMJEplsEWGgPqOuCn5v3WKKv/6Mc28BsSZFIcnPbI18IW3MHgW67TdswWIyIRLF/OXPVD+RiwWfnvJgP3/OuEe8WPz6oszvRx/EBY0u2nhdBPYs/J+KTIKhFl1pO1drcLyI8WBFjpCVpZWanLtUlxvveq+MTk5LLtuV2eOH5eTLZ2Tj5utkyzW3y9GTC/Lkcy/L9TfeKqXimBw7fkJ27Nglk9PTstqsGJiPhdAvG5uDjtOvf/Dd5ZCB67c+FLaMgU0dU0JVpFarLV/96lflmw89EhZjKXnf+94n+/fuk+eee+bkxNjEr9x24+5PJhIJK5+2/nrdtcA62Hzd3dLvfUFkoF+4dOHHFi4t/dvTZ85cx6pz165daiEDePGsaQcjcZ2iH9mBpQNOf6/7+8QQVsRolHzg18kxJiA3MXlXs7RPnDwrnXZTThx7SebOHZUff//9smUqL6uV01IqJSQHawKQFJIH0jK3sCJnT78iY6NMCg0pFfOB4SC8Rnk3JgHN1tGQoWXhop/DMoasTgtX+vWRTBRnoywpB22gMU9s58ya+WPCVOC7aK3iIMjZYTRtzqgw6HqCjOvBLHEkoZq8y7LJO3juGSB1sOWTn7ZfAGXKjGIiDxtL1jESrmxKQWgLn0Em0JRV7nF2x0GdT7yqAQ2VdmgpKuEACkhsIrsWE3POnfPxRJdB8o1lM8Oo1Vt1ZazSubRqBZ115LwBooFcu6wf8J0DVrJ7ASmAklwmryCl3cQFoNt/bzktkaSTuAa0FJ84A8hxYK8Bms7Y6WchQcflIAb+HcQbSCLsymetjlkXcT8Jv8JsNWqN/nV3ey31Q4wkK+nsmExO7pJqPSUFFmk904x6P+i3swIS0zZam5gMxAGgMZGYqg+qxnDeuk3CzOlNH+nZ5yRx2eIgpwydSRVc1+fyBWfquS5Cr/wOEQFj2e26vb9alraxnIBQXRRorXNAYlKfE2PJLdvdWERzgYARlQ7JVYP+oYyxZtwPKjn5oovzds2mazSbVP/K4jkbsvEDK+iRAGNnbRFM33aWGrbRE+c8gYl28P5K4hyJfizayBZv1pvKDnrSmAGkUKM+JIM5WOR8I2LVgVW3vhRqpYfz1Prq0lOrJF7+3PtzDlA3TbGNMc6cxvW6dp8sAYwKXyzkWCQr+I+QolSljDQgnZZKpSqtblKKpQlJ50py5Ohp2XjVbrnuxrslidXSuaNy5tTLUq10ZN9N90gyv1Ue/vYxqTRTsu/G2+T5Qy/JUHlE9u27QUP06RxANiQ/OUsZEKMtAF6dNGQj3RrI0C/iMJh3uomugmcWXKZXFnnkkUfkC1/4ghSKZb2eLVu2yj/+iZ+Us6dP1c+ePfO1B+65918MD+cPv8Gm4zfU5a6DzTfU7Va2cuLk2fP/9tTpMx+uVCrFlVCnG20ddbLzhOfC5ObaMx+YHTR6iNKrpihghBVQy6GQWQvSiZLSbpqlDmMSPFmGkCHIUchsrkmt1ZZnn3tB5hdXZceWTfLIX/2JvPvNB+Tug1ulUzktndSqtLqYH49Kqw74KChAO3vutMzPnZd0oiX5QkoKuUE5Pk1uKKCpTKhGjcmM8C4Dvuolc1ndHpCj1V1yWZ3cHaBYcgAJCtSntjCll0nE55BQLD6ZePMBQAxQGNPkIT3NYk/bROIgVavutNBemeYNPRe6QNoOg2zLLG5aTe2k1TYHYKNJYyJ1/aLVku5ZLemE9H0NuQ5I0manodo/fAUBHPwGwIQFhWoF0SYCBLVdzFtRE1EKeT0Pske7ra6GDDkHtuc6vNa56tHqTWXlhodGpFqvaqJIroD2tdjXT/JbpsOLlLXmmpBs0B6Ly8t6Lmg+uSfNWlP1u+VCWf+2G20FzaU8OruMVFeqCmrHhsd0wVKrmEk794XjIjeAgbR7TY1vq2+tSQkqeej0vTx5zzXQrlqLOgOwc/mBhcF7AXwS6hwdG9FzmptfBLbJ2MQWmdl4rdQbIu0eVahMD0w9eF4cH9CArRGMpIMiwKaHVUk04ZzanZZWwGF/7gN9kP0dFBFOdZ0qfYf+jKaPQgiEi1uNqoajvSBAX+aRI1NeZHnJ+g6WO/Tj1VV+Y6B9VRATGFiOQ7vob+ayUhwqSq2yquFd9JD4VnIfyVIvF82btl7Fk/VyTXG8/wL2qM/OvaK/cs30X17UgGfBwoLX3pcVynidca0pr4lay/qMkPnOve7rqkm+SZm3LS+taa9etxWJAPGFvJTyBVmprmh43zXMXKNds2mE8c7lvfuh8r1n0vPMcT5x0O8MM4lF1FZnvOgbzwe9Lu+d9ec55xxpF/e6VW/bVlPGR8p671ebuFewwCtp/603VqS2uiBDpayeV63aUKut7NAG6aaG5fjpBbn3vrfJ+PikSKsm58+9LM88+6zccdePyMj4djl0bEmeOzwrN9z6I9KNsvLNhx+V++//ESkVctKg6lI2bwwq5WbDAtbYywHIdLY9zniSxa8LXdhflv0BoAK+XQqCLrxYxKXDqpM99NAj8tBDD+n3rpf+Rw9+UHZsu1qOfOeFM2ND5Y9v23bTr01MJMwweP31umyBdbD5urytV76oKIpSi5XGXa+ceOXXTp09fYMOIupzZ/q0eDiSyYtJ1w2nnUXSDNBgxWO6rqBN1PR0C99qmJgMy4iklpLqwWBUMClu9lrSbDelWl+V5dVl+fbTT+mEeOCWO6RdWZLDj35R7rlpq9xzw0Yp5BuSnRlWANvpwU52pZjNy5lTr2i4vVRIixDqizrqZ5nOZe16gg8mfzkHsogLZG5jLVKDRehKIVtQyxLs8SrVFWXQAJdMMqqpy+akUluRZJRSmRR/ncVEY5bCt3K4LFU1jQ92LTGdHoMsIKZdb0uz25RcKifpfFrL1akVSDojuWJBJ3Pug7er++vBtGo5xpCIYCwIIWwAbaNvWUQmdLVWUfDB7/FSEKN1xG3ybbVtcuV+OojhPmmYOIRjlc1Rnz/TzTlDRYIEE6Xv70lMFtqlbSwLGWCnzHFIzgF4qSYzmw0T8YD9pZ9RMpTtx0ZG9Fw9ucYTrfg9tvM65nHGzNhS09KWS4MEIU+08mv0Y3IMrs3LJ3pWv4U7seWBByPr3yyCNOu+m9BSiVhYZbMprcG9itZPSPYZk4mpbdKLclJvdCSTM50qRgecgz0XxhbCmPKCAeZz0xEjRzDGHy9YkyvYfh7e9QWe2/kAMOOLGXM7SEqrsRrC3MYaep1y1xKqRZeWNA16SGy6wn3meJ6sxvFpY+1bungyJlNBenVV2VcFl1pj3hLetCKj+l4OKkj5OfpvMMF49roz9e6mQJvR9l6eU0EMQ1JoQ23TIGcwn09rK2cJNWufa2jWFJTCSOsCs8n5WNKdvg/Aj77Fc83+ytZnkpLNWwIRbRRP7HJ2Vp/jdLpfrIHFEfsCQFXzjNdtsA2LPz9cs4frTdYzYL+9/zVqVclr0lFeWoK3cU9lGiwOksp1tqTVXNWSuxKlpdpMSTs1KkdOzsvw9E655977ReorIp26HHrpBSFBffu1+ySdn5KvP3xMEtlp2XbdzfL0c4d1kX/rrbdICsa0XpOMJHXh69ERB5RUJ/I+yGfOQPtfnTJi8wXWTt5G/K3D0na7Ksvi9ZnP/Fc5dOiQbsN4Rltu27ZN3veeH5XZC+cbqwuXHt61c9v/vXXr1ocTDErrr9dtC6yDzdftrX31hS1G0Wh1du5fvvTS4f/l9Lmzww4+nNFzxlI1bAF8enjQJ0IGHQeefMZAqZNryi2DzNJDw0GU/Gua1YlqKKOetAgndptSqVaU3aosL8r27dvlnjfdLX/+md+TTO2M3HvTDqnOfkcSiaZcf/NBaQFKpjbJODHzbk0OPf+UZqIz2I8OlyzsTCgbIKxl9dBrdtTuZLg8rGbdMH1E1fPZgrQ0ax2WlWQPTNfxVUS2ZYDLQXi715FyoSQ9/PbqTNLGOqnVSaOtZfcIGxMad+Ad197BILl2DQqy02trm+DbiUYMz8pSwarFaPgPs2n3GewR8rRQnGss+Z7wFJOkTbzubUgolCQE04oxoOt9Cz6BzsrGDcKNRcU+yJJueOkkH8KL/I4xhlZb2lmLAZgiSSGtoXpAnYeHCct6CFTBXtBkunm772+m4knNRI7rWj287tKDeNjVw88aOvZkjO5gkeSAShNAYIuZxIN+bnDeBlgUGGRI7LGEFMAm1kAOaACbmIPD9LeQCbCESaYkStJ/UjI+cbVk8iOSSJJA4jXg7dngGLSfSRjsXC2Bx8Kt2lfQNBIazhiwBxxxn1XnFkLyvMfwXEELOsiQ9OPPou6Pli94qypADfef43DvWEw4E8dnyuhjC9WiYpOxWGrijmE8CUpdNI5Wy9yz0rutZlho2QLBzxPGsVgwoO3ha783JhHo6nPoCykHKRZqdosuA4Xsp/0l1ADXRRILjhCK9msAfHqI3iUlGvVFR0xZTA2ND/TRHEf7d5CDOCvn4AodqZcPtedhUErV74W3N8fS3wk+spxHG6/QtOk+/XMfefne+69LIbiX/GOfHFrp8Ix3eJC00INlsqcTPSmVc1q4AmCbThUknR2VuZVIzl6qyV33vkuGymPSri4pu33o8IuyYes22XbNfjl5viJf+voLctc975FOoihff+hxufPO26VYykttdVnHHPqBZtgH6YH5rxrW83Z1sGnzQyiZGSswQVt6uVjVlmfMoxfw/sKhQ/Lwww/L/Pyijpkbpmf0PhAlefe73y1bt1wl58+ePplJJT5+2y0HfiWRSJjFxvrrddsC62DzdXtrrwA26/Vtp0+c+r1jx47fRRUHX5ECAjUrOuSqkO1M5Q0+h2Hz7/kLSEKLo95s1PTumG8lIRX+8rlqfsJLs0O7PV1BK/ODPk8iWVxZ1jJzJPp+8P3vk5PHj8pjX/tTuWXnqOzbOSm//5u/qivxxZrI73z6L2VsLCkf+tCPys7tk5oQRAlB1Q/CUhJ2TBmDxkDudje8d70h2lFn7zyzlypJhHpgKxj8NcM0MnDMe8J6bn2kbBcTYp2wpbG+OgkEDVdco2YT7oClcvCgICQM6A5qzGjaQIoO9AHwasKCamBFs6DjIJUa3RhXk8mNps5rUQOqlRnS+9mxbPVwv7i/2O8AepEv4B9IJRMmYczl+RvPcPZwrtqShvPm3ONgkHMulIpaApT/q1WTLlJsHw9NUtaTkDXn7SUKeQ8AowyiT3DeDsp8ekJHhI1PsV/uj3vC9x4i18VBqC3Pufn9cNDgQMCZpr6mLmgLAZzsx+IFcK/HADy1ATuUUIXZsmozK7Wqgs1sfkSmpndIJ8IEHtmJZRs76HbpgPp2JpF0mGE3oVC2UwseWKA63oktBQHW/7B3soQcZBgWmq9r2Ny/R5Jg2evGwntFIbvujoaL3XdTAWTTgCrHc7Dr/RvrH2N0zdcSmTVgjqQ912SaRrerDB6LuFazoc8vIJfPYREdTPrxuT8wtlyjl35km7h+ke+JROAegRcjekwHsb5Y4De43x42p8Qn7egsurG7xshqclOIsphpPZWUBo4aVmnLGOfBAoZwb16fr/4iIOZ3yXb8vtudeV/y8Q2PUl9sqzk7HqokHCVEXQX4y3tAGPIbxlWsjvhbreBKkFb7KMYpqlNx43imTRtbly6LXUqptnpSXSVBbVRqrZxs3HKtbN57u7QuLUl2fFiOPvm4LNersv/WO6XWSsq3nj4q1UZB7njTO+RPPv8lDc+/9a33a6SDdYU9X9YeLKDN0cIXTAPzftpwMHYFcXoY131R7klejPFYrB05ckSOHTsmS5SjjSKZmpqxvl6t6XOMzdFP/PiH2K564dzZb968f//Pb9o09eQbaBp+w17qOth8g9z6KIrKp85f/Jnnnnv+f59fWpzyDGIGWi0rhuE56SYB5AAe+ZzJTPNswudrv/ftFHySQR3a09iAwSqZAYdqFUym7W6kNcWry0ty7fbNctct++VPPvOfJNeelw++84B884v/VRbOnZUHP/AT8onf/px88SuvyO13TMuPve8+ScolGR/PKytZU51eW8bGJ3QgsxrGpnED1DAR4enH4IrHH+c0Ozun33uN7wahpODpx3bmCZiUoaGyTkroy5hkpiYn9e/FixcVILA/E8HshYu6Yjed3sBn0/WNsD99X8KgTwRo0f4cg9JxTJT5UKObiQc9F+UyJ6YmlZGdX1xQMD82MW41u8P78ckxaeEXWakoWBzFF1N6sriMP6SoZhMwd/HSrDTrDZmamVSQObdwSUFnsVzQ79me3/F62rShywmmpzfI+fPnFSziu4nujsmX94Bb2oAbrbrSVEqvCV0g18C21s+S2o7oSzdt2qTboSMlqQdfQffxpH3X+mxyDNe28hscn7Zm/2qjru/Zj2Nw3rS71xHnXnJN7M89Yx+29VDo0tKKyg+GR7jXbdXuce85ZqKblMWFOelwr6dGVB5ycXZOesmsTExfJRs27JJKrS2pTEFyeQoimOYyHsr3kK8DEvS/DmB4HswrtKrnZ9dQUxBA9jQuCWzLOWPCzTEIV3MMwC9m5LwsnBt0qd2WrK5UFQTi5wjzz3MGiJ2ZnNJJn3rUXCPaWTSf8/OzVhs9X1CWC1DQpBa6eqqW1HhbAXIxL3jx1jQisaTbT09Pyuyli3perkEGtHHvAau0I8Dp0qVL/d/kWBwTjTT9GfuppZUlzYLXJMWegRaAysTomJ4z/Y/9ZqamtZ04Hu/pj+lM1vpWryfDI0Pa770+PD6h9Ae2p63ZHu0q3+tipViQsbEROXf+TF9PqfrImnmJen+O60y13brd/riycWaD3sN6tarlbYfwKyZ0X6upZnd8RNdbnQAAIABJREFUdFQrCS0tLMjSyopsmJ6WvNakn9fIjj8PqzXGLtMQl4ZLekzaYWiIhc0WOXd+QZqttFy1ZY/s2n1ApJsTyZVk7sxZ+fO/+ivZe9NNcstdb5a//MZjcmGuJfe//QNy7uKK/OEffFZ+8h//lEzPTOjYRV9A31yr28Kq2TIJgUtZXK/qCU/QCHzvC0CX6Lishb7k95z7zv1Bl+qLc3Th3MNC1vxu77jjDrn6qqvk5MmTJ4q5zMdvO3jTLya0vvD66/XeAutg8/V+h8P1La62bjxx4vjHnn/x0F0MFGrO3Wwo2+QhUGeYfGDxQUZZghhbGf+/jxJG2KHTJC8IlSa1wK1kHgOSJsc0qU7SlUYdY+dFyUok733bvXL26LPy/GNflAPXTMrWqZ780f/3KflnP/lP5eUTl+Sjv/4FDdU++OB9cvCW7ZKUCzK9oayDpqQx005oGBOmxytzqO1Pyv3wrHa4ZXkOwqTKvgCAQ21p2sBZO2d8LVkH7WFGUvgQhjJ/Fq4O11THh9Ayx2GU2i2Uol1lWtV6KKYxG7BuhALJduf7UF4yZK97m2v1Etc7xlwCCDNiuD8I24cwMro8mB/Cn82GMkWwyV6rnWxxfA+5DjSshL+4d5TVg8mizB7Z7FhLNUM40cObLrMwBsvrdZNhbywR7KZqS3tdTRxpUeO+0ZC8JrpYuN4Y3VAWUKO2luUO0NI2asHI4RwAsxNJp40B6v/P3puAS35V5d6r5uHUqTP3PCad7k530kk6CQkBQpowBXAAnFC8gLMX9V4V9FNBRQEFBD7CIIhEREACEhlUEEmAkATIPHfSnfSU7j5Dn7FOzeO9v7X2qqoO4X7P/a5cTTj1dD91avoP+7//e7/7Xe96F5Vw0loLnhUPTBXPfA9Chn6sx6iVcUxSwDF2Q+GBRXaNp9sO+XXg+zCPLkkgWYe/NcO4bfKADmHVWFv/U5u6JUmRaEYmVm2VWDIn9aYx/c4MOXMNmIJZdvmGJqBhpgOjBKsXTagMwxhoVmWwq5wnNcc18V6zvvVe69ptWW1zzybnHnO5i34vYqHOfoYYho39EVZg0djfNgm11jE3BLLVkQoQ9jaXAdOUutSC6xXV7G6rCmOvzf6I/sOx9P+GRSnnz+KIUDUuBz0WsqX9U+l5ZBD4SXZQKba0H3qlHSMqKQmJTCZopvmet5OW4IzqGMZ+PGLhGlA/HpMHkFwI8ElZXw3epbCLyGrcook7xOQuXL+I+fDi6kDtcioxxZL6OTIcGOi0VqsiuYwQPppn/FTRlVrWv7+2vm9yIn5Hf1EmHC2tRn0I4ZtEgM7HPpQEiGLgn5dSEVnMgJx15vmSHNkoncW6VrP6nd9/gxw9OS1veee75O79h+TIVEEuesbzZPW6M+SGG74lw/lhefrTny7/9q//Il+78Ru6MG20kDOZXAhm2RlgWtv7b3fMD7XPPaSu4f+UFbzw9uUa+ELVwSf35dq1a3UcUBlQKyKbN2+Wfc9+NouD4vETJ75+7o5df7px4/itPyBT8A/8aa6AzR+ALgCr+djkzCsfefTRPz4+eXK1hmeDwXlEdWhmQ2MaMwMyDig9XPL4Z2825UO1TDEzA2HcaAjH2+CMGbZazChzU5NapSEL88tSrzTkzI3r5AWXXyDXf/Hj0ph/RH5o3175xpc+LiODWbns6VfKm//s/XLP/pZs2ZqTl/3olbJ5U1YGMgWp1Ga1ykd+dFTyg6NSLFfU6ogqQmofgn9n3XRp2H2gi6NcGucAu8EgD7uBDx4zKxY/TEieKayDcK2ujI8moEQ7GgJFM8lrvDWpGILBNvonTwQwDZzSwPqsPoohS90BvOlc0ahFpFgsmARAs6GtTCUVe3iP71sYNirZ3IAyNqVKWUEJjAzbsXKFZi+Ctq2ttcnN9C4Rj6tmlYSR/NCQ1oCu1qvqc0jWOokSTNIw12SRx6nKxGQIiAsghwkDdhBWmL9hfGCSNcybTKvVkVdz0ZAmBtfBoJ8QKJn6HlJXo3Mx43K2z8TvZu8mQeiBeQNTCW0n+oyGeeNkXAN0LcQIaEhlYPusrCXt4WyKG9B7prv3aweiDn4BsuwHFomQJYsKtqN6XMALNeATMSlWClpBCBatFaEd2jK2aotWZMEntNqn9XN9bZsklHZLQRiLA5g+7jPM4i2BDXCF5tJcGvhnyUAGNixSYOdFRrxLM9waR/WEmNKHDHL6C4sb14zymrZJJxN6vQnjIq8YGRnWawBLrFWxggVVpCXSxK8Tk3qSgwJL35Ud1HEHqGm/YXsw5cXysuQGyOZPqDm762M1MQdNcr2m50s/wc/SQR/7pX8g56C/YHjPuMH26IKEtr10LSBucCCrr2H+6E9WK5064WaernpgXJiaxtb1h+M5D5cxUMRBa5n3WfzgbYnZfCKaULN5c2GICSb1XBdkCRSewBWBhEISDAHHJBiqjIDyoexfiNl3pN3CWxK/0phksmmplKv6GveBdAbZi5WX5TWLNKIzGsJXc/+k3r/lckHHzkw+J9VaQ4pVwHpWVq85Q/KZVRJpDUirmpQv/9uN8r6/vlZ+4bW/ILsuvFRuuuN+2bBtj2zZvkd9iL/4hX+RH3v5y+VLX/iiXP/VL+t9NzQ6JnUWAO2YJY1FWmZzFTGtscL7AOJ9HjDNsSWG2qK+TyaVNtDpCwmPLHTUvzehDD37YZF1+TOeKZs3bpLDhw8fSiWT77z4wj0fiSDMX3n8QLTACtj8AbjMlUply8HDRz+0/+DB55Uq5YgL+pl8yMY27U6v9nf/a9fr9YvGfdWr2iTQCWxTAJudNtyHGXRTT5qSeDCEbIfwTb1UlYXZJYlHkvLsS/dKNrIk13/hb2TP1mE5d+uIfPuGL8p5u8+Rk9M1+chHb5R6W2Tfvj1y5XP2yvTUfskNVCU3EJHMYEqWCgVJpHI62RAe7jIOCYTrSWWO8G8kLJjLDuoAvrRQkHQ2pZU6FpbmQ4nMqAwM5PSYTUto4VzYErdJUYucuFU54uGhT7aHMbtPaKob7bTVQggmqF9fRuYrGkt8LAkvwfxRLhAhFeCL8wAYVWE8ADpps3Ny8ESpPZgfmEuuEcfEBKs+hDppDyhTWSgWNQwv0bjkMllBnwtgyQ3llbkslIrBlzOhIIDjBRTAhOrEEMJqrCFIsCpXAZlYxQAAM2rG7XY3autSLUmn2dHsetrIGGwmSKv3DnNTLpZUk0ZYnDalYgpt7JY9bI/274K1UPmFY+E3LpHgb46xV0Y0awlgfWysJzP1Z+C77ZU6DaTTukDQTOwweXboK574oZV12hpCV9YvyWKsoe0o0ZQMDE3IqjXbpNWOSRMIzTkGFpC+4cwpiwFPpoPZRLLCpMt15jX9EnTFggSZhLOz9puoXksAFskctIv2RUqfYu+UQKtIOJTSkDFlY5EpoCmGueb6U+e+Uaso6BulLGIyIbOzp7S/oR1kf5ViVY8RTaca0cN0hYpaPJcKy9qPSWbhmX5SVDeGiEZHAP6ud+S86b+0O2CSRRHMarFU6Gp6+Zxrx/kj42BRR4SF13wfRpSQMu3hkgr1PyVxjgVLp9PVUHId6TNYYjH+JDNJPa5yrYJwWWKU8YzbIolj5H7BdaJcreh+Ac1DgzktQ8qii0Un9yGgzDWYgGu1SMN1IhaVocG8vkZzCbj0Y6BdaH8YWxYZfj8xDnDfFpcKeh3GR0aV0aVdWXQkSDjEgL9S03uY6xBLYPBelip+srGoZCm924jK1q3nSL2clFY1JbXlqLz5re+WQjsqb3rH1bL/0Ak5VW7Kmi3nyFm7zpePfvyTujC98Lxz5Z1/8XYZSCbNegp9MpA2aYtkstPjaO1D5Md12R45cS25j/ks+hx4arJV8C71ccPlQySV6f2dSsnyUkF2bDtLLr/8cpk/NVe+8647bnzh8174W+Pjg/t/AKbflVMMLbACNp/iXaHT6aSmZxdeftc997x9dmF+PROdesJR6APBP+wT8LCvtN33YjE9zOKf62uAqiYWGbMZbVsVFyx5OlGyLjEJt1A6gOPUyRmJtDoyNjguP/Yjz5WvXPcRWThxl7zgsh3y8J03SSYq8sxLr5D3fvCTcvudJVm3SeTXfu01UimdlOWloxKJlmVshFX+mDx28jGp1ZuSyQ3I2lVrZaGwoH6MaJ6GB4f1dZWkjE5TPyfcN31yWj/HrxH/PdVPZhiIR/QYXV8GS5bPDcrMzIxOVK7RnJpCY9nSiYuJY3ZmTifPVatWqfbv2LFjarQ+PjamGsoTJ05YVjC1pseGpLCwKMvlkmRTaRlfvUoWZxd18mZSWrN+nU6MaCyZfDdu3qTg1hkcNJhMIIBsTc7JUrIw+BS2O8qUMFnOLy7oczJtmsyTU5MKnEfHx1SzdnJyUpmo0bExyQ0MyOTUlL6GAQU0u04Pn8I1E2tkcXlRa2zDeK1fv1FrqaOT47tozmZmpzWsCKiknUhKoU3IxEbjxuR6ampazc9Xr16t7XzixGRXX8nE5iCedqR9XZcHq8ok6a9hK9kv3wekwDSrL2HFatBrOw8NdduN17DZMNlca/Y9MTGh1/TUqTkFcny/Wit2w6uU1AQ8L8zNKru4evWYNJpVmZtflFKtJavXbZUNm3dKsViXSrMuo2MTCo5cHzwyOqT7YX+uyQT0Ly4XZHlpUYZh5HM5mVtYkMLivIxwXdIZPQcAqss4YKvxcuRacs58XiwsaX9H68pn5QpJalHzmZWOlIrLmsjDdeUZ3Sn35/joiH7OtQUU8XvaZnF+WUEHWeuAIqy56INca7R3c6dmlaEGZNG/FubmZblUlPzggH6ODpCFAH9zT9DOCuzSGQWPuA147fL169fqvcC1hDWeWL1aGrWaTM9O66Jn1do1mqA0PXtKQSPXnrZgH/Tf4dERZVa5J+kzgB6u7czsjDTrTcnmsnrecwuzusgEzOZz1ncYswCGQ7m8zM7Pa1Qim8vJ2MiITM5MSb1SlaHRERnMDuj9iCUZi7A1E6sUFM5Oz+jzhrXrFEzymmOgvwP6q1h/YdWl3p+Ulqxp4t3I8LAuDqanpnQRuWpiQgbzeZmanNT7eOOWzcraLszgnRvV8pmpbEJK5UVZrhQkkhRZvWGdVk3buHGHVJdT0q4PyG3f3C9vfvu18lO/9HJ5wY+9Um6794DUYgNy3qX7ZHaxIu9//1/Kq171s/LFz31W9t9/n+w66ywpFJdVCpLK5KQCR4CMptOWaMSSFJ3JNKBpsiJ/v/9zZzo9w55nl6q4zRjjm7LsOGJUa/L8K58rVKq74/bbDq0aH3v/9m3n/W0+H5l7ik+/K6fX1wIrYPMp3h3K5c76A4cf+tAjhw9fVa3XNE6iSUFt+S6g+UQgExDa/+jX9Cig1BrqBAWD3ZFWjrAQoIbRo2iDyIqtSGW5INFWR+anZuXKy6+Q1UMJ+cKnrpazN+XkknPWyo1f+We55IJL5PixWXn/h74u5F1cfMkGufI5T5NOZ0FiQnnIqOSyCWm2ylIqF2VwaFiq+FYmkhomhqmKJTgemCPeh/GkxjXhfcuiZfLEf5DJk0GUyYUHE5vWK85mpNOEnbWKLTB6ACd/MLAyifKs38e0vk+CEE1Qg72mCRbFYkmGhvLGSgUfR8LmtaqVqVMGMJTMUysVQmpo3YJOz9tftXjoubQEXEuZXNo3Rm1zrGkkoucDM0ICB+cZi1t4kzAnvyuSQJMe6FZWAayRLWtZtEnVrhGehiFGU8hzOpVVH0+e1Q0y2AZx7JqJjNbPLaD0XAiPUsFINHHGdKc9SyfC4GhLNaRpQTs9V5/Y+v92ppH3PLPdWTR+aW0TVW9PAJOzrZ5B7OE+z2C2aibG4PNfGf6g3SV06XpG9WDtmAVNs472FCeDmnDE5VpbUtkRWbv2TGlFEjphA9564e2eDpfwpGvdLNTf638wnCS5sX/kDzzDxKvWM5TvbFOxKPQDq9Vt1X5oA/6Tpd5WzaVXampLpWoFAdyvlKiCtYMledDHud70f+3HJbPu4Tee/MEd7Iyst5UxtragJEuf1apuK2hn1e6MDHTC4/WagtaB/KCCR46TtuT77Nc0pCxIYdViyhRy3p7FDfPK+y494dhcH6gyh1BvnHMFpGv7t7g2ZQXNgETkAGg7h/IjCjbdaQFNpm9f+7/aTSH1QTpEP+zJOVyDCbvMecMg8z0WeDyzMADcet/rD+G7tMYZQWe8AdseWVL7p2ZDBrKDUivVJRlLh86EjrUu0WRHFkun9H7Zfc4FsrDYkNnppowNbpV3v/0aOTFTkdf/2TtkptKUhw5NyaYd58u5Fz1L3v7u9ymQ37l9m3zoA++R1RPj0q6bL26jE5VYKiU1XCYAg1S5cm/kIJ8yYGl+my7L+F5g00Pobp/mDgEw7RqWbzV1IX7lFftk6uRkaWZq8t8uOP/C319hNZ/iwOMJTm8FbD6Fr3mn04lPzy5cddc997x3bnFhM+G6BhYdYcIlHMscxoTmzOb/itV8fFMxyDNRqMYn1PImzAsDoLrFiKhucCCXkXKpIEtzs7I0MyVnbdosP/2TPyHXXvM+WZ68W17zUy+UB++8UQqnZuWivc+Ut7/j/XL8uK28X/fbL5By6aSMjyYklTY2A51Vp1WVVNoyi8sM4GgYCZdncgqKSIghQQkGs1gpSqVY0USjkfyQYHm0vLgk6YGsDAzmlHlhUmWgJHwGaGvWrDY0PppoQNFo0kZM4oCZ5aUlnfAZZGF9nFnTcHsypkwgViNoHKnEwj74PoAHTRoZ2wqsxDSant2p1k25gdOMoglH8T6TOJMoljGEB0sAC/R9aKoAKNSLJsuZyTgWUz0Yk392MKcautmFecmmMnrehPtgWAn3EV5Nx9NSaVQUPAJiAZuAz3Sa7NyiZsUCPmGxPOO0WKR6DKUKqQxiBvRMTrUGOrCIJNOWOESyhNv9zM8taLgSUAwTSvv4pEb/8gQX1woyObM/2optsH/P+CasSgIXv1ftXiiRyGuuh1ZgChZHbIe+omHXSkW/r3pZwp6NhpQrBd2+aZdBKjGtmx6PRaRcLSp7BXiq1JFlRFU/NzA0qsBNE1Ta5KuxGIhoVSD2Q3jSz4ljVhPxOMbXVQN7maSCfcK2vEYzi3yC81DZSgCSCqzRPpLgFbTWAC51QcA3NniJ2r4M8DPPO8DThVCovw5jyf0Jk+dJcZqnExLZFLgmzAPULYgsXF5TFpVqSYBHfs91RSqhQLDT0vPifLiusFmAOhhJrxrjcg/AE+FwDMC1XCi10jX8XdX+CMPKdXE9LkBRgWrwH9VkH732ZQWlJPKgPWUxhUYQ2avKFGpINQaVZecc+J0z8K5ZNms0A1cmSVEZdzfhkP4JuKb/AzaXlmDHRber38f6LSRQuuSIbfI3/ckztGkjl394X6X/UVCCaEOt2lawSSIS17AjdUkPRKUVqao2ed36LVIqRaReG5Sbv7FfPvxX18vPvfaX5fx9V8qXv3mrjK87Sy7bd5XceMtd8hdXv0/+6E1vks9ed60cO/SI7Dlnl0xPTmmpXioAtaMxqWE3RVKk1rUHaBu49P8OLr2P4AvrWs5+ZtND6jyrBEa1z6bjVPY5InLxxRfLutWr5a477zy0ft3at527a+c1kUgkFH1/Ck/AK6d2WgusgM2ncIdYrFS2Hjvy2FseeGj/jzWbzQRgE/shEhWYoBQIKIP3vwab/WwmzeWvAZtkgsNUMGGpx2YoXamsVTSm+kQm0Jnpk9KslqSyOCMve/ELZSgTl+s+/kG56rIdMp5tyz99/jNy+TP2ydRMRT7811/RMP/LXnq+PH/fLrnt21+STRvHNHM2ljKN01AuIQuL5u8IAEQ7SMINkwWThzMhHAbgwsM8mjSRTurvaANCYhGq9QRzdbc6YhIlTE15QH6veq9USgqLi1bLGQY1HpWlhUULaWcy3clEq/NEooL1itsI0UAcowEdBnoLjRaXjVVlGz6pq/6w09bve7UVJihNvOiIMplMshLD79Qsq2DiuA5M9mjSYHrZBudF2JNsUE8MQqNmmjmbfNy2yM8RD1QFR/G4hjIx4K/XGpoFri4GISnHGTTO0fsE4VS3AXKQiXE+k7azxyQjEG41HaxpVb1EIWFR9u3HxLXmvW5Zz+C1qECDCTyRVvBEX3b2SK9TkBowAdI/PJSrCVeBCeW4tZITCV8VK5moIeVESjpNszJKabIMpQSrqp8DbCYzeVm3brvEUlllyQEDntDFNrSEppi20MBMXLIZS0LjOEyragbXnpEPULXqPLaASYbKQp7MxO/ZB7/nc86BvqmLu8DSsm+O08ObgCFNdiNJLG8VXRaXFizjPmX+ogApmGnvg9qfgnaVtkMaQD8k+Uh1tU0zxOe3tGtpuax9lO/wnnnPUoEIw/y2JtiwfY5R5Qpq94SWNa72YoBSEt/ojyzyAG/0X/o5/ZVw/GJhSZlQPqd/A+DcwJ97VMtftin1mNAwO9tzdpZz4Dp4glYunVPNMswrEQzakfuDNqLfsF3+7tcQO+vrWlbXpSqoZ08hudLBGH3I9cd8xj669kzB05d2JfpD1CMZS8jCfIl8fo0sJOMxqVSLUm8sS34oLTvO3ilzC2Wp1dOSTK2TN7zxPdJqDMsfvu29ct/xEzJdasiFl+yTzOAaed3v/qFsP+cc2XzGZvnCFz4n69aYxAN/URac6iaBRlt9SM0v2QCm+Wh6hMHBZpfZ/B5g06+Dj4GtBgtUrr3NB+NjI7Jv3z45dOBAeXJy8uuXX/bsXx8eTh96Ck+7K6f2PVpgBWw+RbtGp9PJHDlx4lUHDjz6+7ML8xu1zBgJQTAmURIP8IUzqx5nNfuTgPxvB5f9Ok1vMqpdIDbXQTbCCtnAD2EpPoO3iycyqvtq1kpSXjolW9eNyo++6Er50j9eK4XpA3LVpdvl4bu/owL4y571XPnrj31WvnPbMWGOf8dbXyPHD94k9dKkrFs/IbPzc9IQYzPHR3Jy8sRRzbxmkkALuFwsSHG5pFmf7rXodZP5nJAimksmewAMEwpsH4CFiZDzwNuOZ5jDgVxWTuGtiL5xdFQHUTz/eMB0DA/nVYvlEymTyuzcnLJI6VRGa2qfnJrqsmgcN+dA+Dmbyal2UDVxDWMZAHZYRTnw4jUZ8AAM2p9jgNk8NT+nkydMG8wBWkDe5zXaN0zWCWOh7QNM8RpQwueEHdHE8f38yLAyt5wzkwyAgXPEx5NzhkE1X82iMrEwSLQjIIljBCxzjOgATQ5gmk1C5XyOfdH4+CrtZ7On5nUfhNTIaEXLCoNFbXXed29E9zFkcuac2T/XC90e7QyY5Rj5vFSpyvDQqH4OUHMgxjYAJBwD14RrzWee3c9rAAETPszl2NiITu56zM22jI2OK9g8NT2jYHN4NC+NZkUWFgtSaXRkfPVG2bTpbCnXKMFqNegBVn4OXGev8a0eqmmr0c3+8V11mxgANECI1647pbSoazY5/xqlBfEpDPXcqTPO+apUgHrZhZIkkykZGKAGvYF0QAR6Y343M2P9b3SMRYBou9G/c9ms6SFnJrXvAX55do9JamjTTu5RCUtP/1heLijw53jGxyeksLikHpJ8xnmYTrWsiWSAydJySfs0x7BmzRoFmwuLc8qIjo2PaFY7GmMWT2gyYUIBl5ogNJhTUHxqDg1mS9sZsOkLQo6XfaLhxJ4exp7+v7C8oMwo/TGfH9T+aUUNUjIyNKLgkgQfwCx6WbbHcXnCGn/znwf9jetAX+Fh40hDt8kDTad7vPpCg/1yrXmf/tuvg6ZN6ZMcM5+Pj49JKpWWudklIs7KPuKrSiRocWlWLrzgfJUKFQqYxA/JPfun5N3v+ZL8xCt+Sp7/0lfIl2+9VXIT6+RZz36xfOGLX5HPXPfP8qa3vFX+6q//UrXq4xNjOoYND49Ko2oZ4gDzWJwFA1IU0OZ3s5o9ZtMqffWH07vMphrxp5SVVq/WsIjjc9L+uT7nn3eubNq0Se6+/fbD+aH81ZfsPf99K6zmUxR0/H+c1grYfIpe98Vq9YxHH374rx89dHQf4JJa1DBSDJysbAl58Xg82OwHnM5gfK/QOoCSEmu6ihUyG4GeoeSjBnhj0miKZXhHWjLz2CH5pVf9hGSjZbnmL98lz754u+xem5HvfO1rsveiy+X+A5Py15/4V3lsWuS1v3ixXPmsnXLwjq/I1g1U+IlKud6QRjShYd9UpKXA1kNRDKYq1K9ikxPV9zVTF5/HZl0y6axmyQMwse5BAK/6PdUDGvvEQGzJPGg2LTzmIS/XB/Kef48JGu2mZ1CrzyFuTxGYtoZOGhiPO0PJNggxkmlMxrbWPq9YLWpnQqhi42FU1Tyhyww1ogFlziB6xrNr8VzX5hOda6hcH8ZxA7CYzE7TgcbxCTRvxq6UAKaMzGMYrChh4l51FiZo10aybwdJXo4R4G/sLRY2WTVuR+9GIhf7cCCFObmZnVvtemdVPIyn/TR4IXKuqlFEUxueXbsHK03o37PR+a4yxsVi95ycMWYfzthqSLVVV2sgGFs0m9buIqm4WfHwHbKQcVRotq24QamKlc+QbNy4XX02kTYos6/eieZdqPdQSLjjfb9+1peMCXOtKPpbX+xxfHbNQ8nUED43qyzTrar+MmLsI4ANuYgybikLfbtzQSZlv2GxYmDBzkf9Pqkg06rr9QE49sCt1R1XFj0Wt3B53Zh9wu9cL4Ckh/DxzvTa5VxHNM6cq2o/6d+5jCaLweCR3Z8bNG2tsrUtk9+o7KJGBjz3hflP0q/M/5QqTu4rSgUkztW+D3MKm00iih2PZcLDonL89ENYUwebnKvfV7qQiltfItpTa/bKVPo97wyfL7Y9NO5Z1y5dYBHBo+vlmUr1oiaB1XaZh/djtuFaWNoJQFsq13XhYv69SdU6Ygt10XkXyOTUnESieYklJ+SdV39CTsw15Q/+8J1yYrkqJ8olWbt1m4yObpAofgKsAAAgAElEQVTf/b0/lmc8Y5+sWbdebvjm9ZLJZbUiETKbaCSpIXpAfBzrrSienhFpkdj5BGDTwaWXlX082OS1RpViVo+ea+yFQrjGSEgA1s965mVy8ODB5Ual8tW9e/b+ztBQ+pGn6JS7clorYPMHrw8sLnZGZmaPvvbIsaO/Pjc/vwrLEgADIW0GAh1cNfmlrv6U/czm48GmA6EnYjYxHBatDY1PIPYkiM3NG7AN7GzFZLnI+zFZXpyV8aGU/NYv/6xc+/EPyH23fU1+4+d+TOYevlUOPfiwXHzZS+SaT3xRbr7nMZlYl5T//tpXSHXxERmWecnF65aBnc3K4PhqHZQ7tZKunhnQYLHQFrppcjeRIvhikuCiZRdjZpTOfF2pED7sSCZUsKGX8BltoskwYdJ1z0smXOpdM+EycS0tLnZNxQGVhLZhTgGqDOLziwWdXD2xBTNlJhh+m84kpVC08DkMjE4+TTOepv0BoRg8K7jodILxeUNZJ1qWYwIgaMY355Bhn5aE4eDSw4eud/MQp3ocBj2VTeTGTLusQI26Q1ugJVRATkJSxiyR/BjZjod4kQXQ/jqJh7KhgAXVWIba5zAgpqW0Ouo8qEjDa/bhIUgP4Xq/M9mDheXc69P/jsYxRjcQreHvMNGzPdrK2W2/rj7J94c9E4SHK2XV9cKS4XdJ+D8qprFDw0uVFcAmTFulirl7XNauP1N9NmutmkYLeNCGQCUHvgoCYwbu2I4vCNRrtO94u9+P9rKC7T40iYsl4gAwzaDddai0I8yrSQjsGAB/mvATEbN20qQWTDstKSoZt+PRzH30ngH0+XXmDBw463FRuhIdJFnF1CoPQA6RKvcEDHk6RQJaNGTG26JNK48Fv1SOgTbl2XWXfg1g3gEq/J59cZ8CnNEIApSrdfxNo1rpyc3ceZ97VEEwCWrNlvYRJARetjKTSWtVH79PkBGwTxajnKv2X5LdgtG9g0xfiDm46tqOaT13K8Hq14TXOGx4KNnHUV+8qcwgeOX6Qsu3ZyH5lFogMQaVw6JFK5oRpchmZWJ4XIayw1IpoV0alNvvPSJ/ec0N8uM/+0p53g/9lPzTjbfIpj27ZMd5F8onP/YPct1n/0l+53ffKNd97h8lP5ZXn04Wu1kKJzRjIhi501Zq7lrWdu1EU+oV6+Da9dNEH/o1mv1g08cL3ktFTZLkxATXjntvOD+opSk3blgnt33n1kObN218y3m7dnxshdX8wcMjfsYrzOZT7Np3Op3o1MLCCw7sP/DWmVOnzndrI5g0dDowMQpKEnGzgokYI+IgosvMBJbGV/bOqPmgooAyMJsqaG9Vg2ebhelbbSaPuE7Oi1QLirXkZVftk3RzUa77xAfkykt3y6pBkVu/+kV57rOvlGOTFfm7a/9ZHjou8qu/dpWcs2Nc7rrlX2TLWEzirZICh6VSWZKDec0eHx8elqUFC98xYWRSJKOY2TeTsk/+PrEraER2T8Z6wpIalPkh4zca0TAng6YL+gHITCJMFkyQluCSUiaISYSsd1KYlpeLkhkwHSkTMriDZ3RnhNA8GQXPQ2Vhi1Yz2EOjXhYPSrR/Uu5nVFUD1rYkG35LdiyTAWyOJjZQ8SRYwXBeXg7TEh1igTExPRb7YDIwjdWAMimEYz2BgcmCc/btaZnEuoEZBxqAffRfaCUzGavIYsyoJfFgG0S2Pd8ntAnvzWudyLSKi9XMpj3odwAHjonrQ5t5ONivE9dYNW4hSciBs55PKi3xZEqZNDJ7ScBBi4qJudfwxoKHsKlZdIlqLAF/ZBMj9sgNwtiVAkjsqAdruxVRf0AYvnQmIbVWRfXN1WZHBvITsnbdWdJsRyVKdak42erm2wnb1/V/rJQ0xMhD/RpbLT1vPqdvEXaHpXTWjXY05tVYI2W/SBySllAXHBZepQKpuCbqIMfQalZ4gWpWdUdq5YqGpDGohz3lc+6LIdVUdrRdFCSEMqIsBunXWpAAs28WWWTFq5F3VEPaXGMHYzBjhPq5/lotql6XwvKithnZ9ZVSNWiSLUEEbSR6ZUAOsg6Oj/6ji6yMMXyARBLlAD+ATdWQUhxCWpJIplXGQT/3mvBos1nUKSgbGJSF2Tk9fwPloUZ9woAhcgLXgHL9BweschqMNVEGrgv9RkPLibi2HYssACz9hzA+Y4QnPPF98yO1RRLXUcdGQhpUAUNTDUPJ/ZxOKfjnHsBnk/sFayW+x2s+x0yecHehUpKBwQF1moDRnBgelTO37JB6ibro6OKH5a8++jnZf3he3vKuD8nMclNOFiuybudOiWcG5PWve4M849IrZN36TXL7nXfI8Niw4EKHI0WpXJXB4TFpwTI3W5IfYBHFGMB206cxmw4wndH0cfQJwSZShTDucP1YDNCXS8sFlUxccP4eLKLKC/NzX911ztlvWDM6et9TbLpdOZ3/jRZYAZv/G431ZPhqp9NJP/DQgT965NFDv7pUKAylSCSo17QSBcDTBnezTgEMkCDjTImfn6/Q+8PoWvawD4Dq5BMShJj8GpVlNZpuN6tqJo61RrsD2GxKYXFBtm9eK6/58RfLtR96h1RmDsgrf3ifHDtwt0wdPy4XXXypfOozn5Pb7i7Ihq1R+ZVf/QU5/Mi9MnnsAZnIRiUVrctQPqtAMKJ+gBnJDw0rAGGCzw7is7lGDatLJRJHYl1toYv5VS/WqKs+kYkWfRiTWK1e1DJ9I2QWt9vd+tm5bE4nr7k5q7s8PJjX0B5sooGHjCWeFEsK4AFE2SwelXOayASQQt91/PhxbTcmSoAUYMG1hWvXr1NNnFu5UGua8DI+lgz6eFh6FjvZtuyDawXgRWeay5PgA0Be0GOC5WW2A8Q0Oy0ZzA/ofrWWumbQDgi2TF7/PZcb1Oz9kyenFFwwERPSQ9fKg/NHY8kxAoQ4J9g/N8GOJci4zSj4UHlClKSPIZ2oqTuu2sBcTsEknpKE8mBxOI8TJ47qdchmnXGq9mqtU/O7ZOAvl8vrPtHVqb6RY87l9DVZ4CMjo1ryr1wsahZ+Eh3fMGxQSWtRA7LIWsc9ACkJ2fqY3+PvqDW8E3EZG81LobCo51Gr1mX16rXSqDVlcW5e22B4JCdlaldjBt6KyvDYOlm/6WwpFKoiiZgMDg+ZW4B6fVq9diZ1jpd2oY3wX2R/LgOwkHRFqiWssYYU7ANE+T5JL14NCU0v1xmQA2jykDZgC2BVKgO8LLGFvl4tm9URbKM6DiwvKShdNT6m13ieuuQko2WtTGixVNNt0lfJiK+U8Ee1qjz4VM4top1tqd4xnUpKtVRWoIQmGG0sfYVxJZcekMxgVmqlqmqnaTft70sFBWuaLLJqQmUnrslEg9mQprY999aggq2OWm2pSwPtkMzI7NyMgk8iBfT7+YVZjTJolCCd1v7Jg35BW9DOtuiLyJpVq2VyekrPTX03Bwe1ZCOVtfh8LGfJZ4BiQCHnxTih2fbtlkyMjmkkCPcKQCLeusiQluYX9JozrvCYmjyh2fcTY+MKYmempvU1CXq5/KAuuNGKch1oy9mZU5rIhGZ0cCgnc/MzWhyB8xkfGZcNazfJ0MCYnJouSX54k+w/OC1vfMtn5VW/+jPyjOf+kNx67wFZu22nrDpju3zwI38r+/cflN/49f8u//iPX9D7HDswXQAGlxBIBSQxgGHGArM7Yqim+pFpNvuZTPfZ1Gz/0yoK2WuVHeHtpQmjZsUG6aAkRKshF++9UDW799177+Fdu3e+ZeuGDZ+JRCKFJ8McunKM358WWAGb3592/Q/b6tzy8u6DBw9ec/TIY0/TSjOEV9FdwZCoTs10WQ4wWW0ru9eykJ0zGB5OcoDpYLP/xFQ/lohIg+xoWCNpquUODEy5zr5EtUitekVe/VM/KrHyKfmnj75XrrjwTDl305Bc/6UvysUXXSJzCwX51D/cIIWiyCt+5pnqpVkuzko+HZWBRFvKhTkZSFv94GQqIzXE/pm8Dt7DQ5aFDoDREGzbMpO1Uk3d9JAwoXzeCDY4TBoWWq2q8TzhSmVFmga8VRwPUaE2M6ah1MoimmUaBmUYMrKeVdOXkrim42NNUjOmi6zMbMY0mXEE89SKjqj1CgwQSJ2QKNcEY3zC5YAiqtb4a0AUzIHWKidblvB5NKHgFiDBcXItdRLRGcQ0noTWeebaxVXL1tCJUjWZKWPhnDmLRTjWtjJnGvLXRBYynsmwpqJJqputTN/x8Lle+2hE0gNpKRStqpKySzFkCpa5rKBHKyklZXFhWX03YWR1kYJFSjohnQbHbsfE++pZ2rEwL+0J+6r9Nug3YSTZj35fragyykRpxnFgrHl2RpnjsiQnywx3mQLPAEjqgwPI6UNkhHPcgwOD0iL5h8o1mnWdkGqjooFqbI+SmWHZuGmnNDsxqWKSnTW/VLuv6tYXlTnFlqlj2eEBTJ6uW6WSjrFjrpllGzzQvPE7zkNZ5z5NJp+rI0LcFhpcU64X7VSr1FWXSZlN2OiG3gMiWQzbVUtpdeq57mR3z80boNYKXIGx1BB+1Jg+wrtoWvFk1MmixT1mZTj9OgPKqOBDGUci4pwz11TD/oTHO/jathQ0UwoURplFEmUqa02rU26RAbTlPf0ux+G2SdrfQh/zULQt4izL3xlJIhIwlVrDXFnzlI5/WpYTJhIP3OBLq30hZtfOmU2YWz2GdifUsO8xne72oImWWMiFrP1kKsgGAnPOfeEViQDZMKEqo1AmNaGLJMAv+udWlNrxSGgsax8pzsZ1W2TrpjOktIy2NiONVk7e88FPykI1Kq974zvk4cdOSTOekW3nXSiT82V501vfJnv3XiQbNmyUQ48e6Sbh0WZEGzzq0n0mCz20N7IXHg4oPURumlmYSxtndEwMWev8DeOPLImH9nHV7FJCtSarxsZl966zWRCWC4vzN5y5Y/vvrBsfX6kW9B+GCv5z7HgFbP7nuA7/Lkex2FkcmX509nWHjhz/lZmZmVFW4FgTMbixWleAGUoR+sTLd3ziViaz/d3VhGz1akD0tA4TJXxnNYuxZmGgdCBQaRCSs9J0W9ZNyC/97E/IJ/7qXdI49Yi8+mXPlwe+81WZOvKoXP7MZ8tN37xFbrvjpKzdGJOfffWr5OZbbpTBLOLzlgLOwuKMZBKW8ZhK56SGLi2ZU1++NatGNeNW7WLUkiiqE7SVJDQvQl6T7KBm6ICtYO9iS3vTHOk5Brsf/gbs6PbCyp7XmrGatpKMmvWr/o7Nro8lDA+TMFncVCChAg+TMwlNmL83Og2Jtik/l5V2HRPqqtUYTyYM7APCmsYi8ZpJzS1gCBMzCXI8fM4zbZuKEubtWTnB+AAS9BywilLPRbNFUg1f8MDjPZ20YSVC8gfMGqCIiS+TpP0AJlhJGfNhGsCEMj4qQ8C0PBGTxdKSggJC9J7Fa8AvqudDEk9HazEDaEyywbXk2GAQKdupQIPz7QIOC0e7pRHHC7AAvNsEF9PkBwXbOqlagoL3U/o0v/eseQ/1e6KHbQN/RhKR6up3ODI6rOF4MnQBmxqaVj1mS2rNqqSzWanVI9JoJ2TDpp2SHhiSDjW/WwYSNClLzdd7fqGAm35wFKfWecjc93ZQcBd+p6FN2sB1qGnTa9IPeHBNnIWif2j4O2gedWHYCtrRTktZVjSd6r0ZMW1rRBNwOD5AblwqtYqGydX3tWV6YB4KkFiIkhwW75Wz5TgAyKplrVG4IKt15dtNQBM1vtEiovGkv1nZyHgqIU38VONRaaHB1P6EsXtb/7NNrq9HVLzP2uLOxiP6tCaeBMmCg3NPeCJLHRDJ/l1Ww/0OgwnIpF/zGvcBxkPuH7SKUUEzSrlG8CXaVvUCUnBKBSYqA9H0gFZ/zff0td4TSHfwZMXvExlBqet7a+VCsXaq6CIR5hTGm8UibhK8hjmmdjwsLotftrl5w2YZHpqQ6cmCjI5tlbvuPSxvePOX5Dd+52dl7+Uvlm/f97Ccdc5eGd2wSd79gQ/Jt269U1796p+TI0eOqgxBq3ZpgU9rYusvXhO+rSDRwSZJZk8ENvHZ5TuqQ+5/DiCV3znYVJN7FiGMp52WnL19h0yMj8nBAweOrR4fe8fOndv/JhKJoDxdefwAt8AK2HyKXHzKUp6YnX3uww8+/OdTs6fOoXKNgpeOsUyATSY32D1nNhnEPbSuonZW4SGL1ift7wU0jWkga5REoLoOuMrSaQas6fsI36Hf+aVXvUJi9WW57mMfkKfv3iSX7TlDPvqBd8oPX/U8WV4oyde/+U3BA/qSZ1yi7MeBg/tl47oJWZybkoEkXuwNyaQAMtQnZtBPSBzNGskjKdgo83azydSOQbWE1ExWLWEjsE8m7tdKLTo5xKTVtOQDapUz2PeSXszAHQbCB1X2Y4xSXLV0npQDKPHsTP89bYEtECE6A6Vkbhs4UhYSA/ZUSllXZQ4icckOpNU7Ee0Tx6leilUAqSXnsB1nmjXRqd1RVlkZTPRTSRI1IspUM9m44TLm2W7ajF6xP5s8FjUdq08qGarKhCo0HCO6PMK3ylIp05jpVlwCAESTKVkuFhXEAypoawVPYoBUASBJaJp4Y21GuFO1i+jf0MrFjKlkUldmkwo3TcvcB9QQbkVz6QlWBvYt+UMTbcK197bpT16ibXkNs+l9md/pvcC1UGYxrvW7U6mkyQWSaXVpoI49i4fsQErrb3M/VeoRYzY3ny3tSAIndwXJHkLkHvLrrZM9rHJgIhU4h+pFXD/uG9Wsqsk5Gc0GpF3zyf3jvzWTclhA8+GkDdA6qmYTFtS1182O9leOm+0BNpGLUAOc4yoWinoNjAltqGE9WklN3InaIgUgqgszrf5kx+RuDZyPA3farVExxtg0nuYaoKAwvPbvuu7ZNdT0XQAi4Q93ZPBKXM6KKyMcWGr6gvdnFhCcC5/BxBPW52HHYEl+9Cke9FdkJXyf7ZsH66IlpcWTkkzl1CnB9+nJax758Spf+v3A7jkA5j6FqVRGOSxOXcdp16rZtQPSQgGhHTlOHXvrdQ2lE4ovFpd0rNi1a5dsWLdJGnWuX0xSmdXyrquvkSOTJfmDt75X9h+fk/Toetl5wUVy38FD8gd/+CbZ97zny8aNm1QixFjGddNKYBrBsOSu72Y1fbFloNIXMD6O0Z/62U4/dyIttkgLYXmtpsTEYf8nxkZk69atUimXajMzMzect3vn74yOjt7/FJlmV07j/6AFVsDm/0Hj/Wf6ablcXn/gseO/+8D9D7y6VKkMMlnCfKgus9E4DWwyyJHRqcCSRPKQBc2qXsFYAI0GKO2hg21gV/x9BjGyUqmYg9VPjCzUwMgwKVaLS3Leru3y4z/yAvn037xPFk4clF/+mR+Ru27+qkwfe1iefunT5Os3fkfuuX9aNp05Ij/60pfKv91wvSZrjI3mZGF2RuKRmgykEpJM4A0KyxBVgJNIZqzGe6sh1J1GLwmgIKvbtIBpBZuUqgQoDY/ktZydZtDGrboHrFu1BBtioVbag9rTDLh4dTKZmS8hvpqE6ZuyvFzR9sim41pmDm1ik+SHjGk43XycQV/rNs/MdCcZ9Iwcs4b94nHV9i0tzitgYFLAt5OwPeCAh9YZD9YzXApec22YVJhQ0J1qbXRMsQFFgzkNXzKBOVh1DRtG6jCibnhuICwl2YFkV/MJ2CUhgsncElXQM46oEwDAiLKXDhQJ+RGCG8oNBeP6ivYDdHdYTDnzi48mLBF6Wo4RHSkgA50dobih/KgysJppHzHTeMATSUsshKjhDQOEfpK2cN/C+flFfT08NqrXSa99OGY/RmV+Q610/gYAsA/Xvqrxu9bgHlHtI+ANsD8xsUoZV3R59IXxiREF4JiBVxtRGV+1UTZuOVsWChURqiflSLQSBTXqD6l1yTvajmgc7ZjTet24x1hEANS0vrt6MQ7qYodz8Axyc02weuuUPaVmNp+5XIDFFJ+j7yXRJouDAlZNlaDZTKbUiH2e2uidltZGp08sLKCPxGdzMIDsJSlXSzI8Oq4Me7FclUYTV4mI6nfnT5nnKkbjtDOsoGZYJ2J6bZYXlnRB4ECONtZIAkAwm9VwslfoQoPM53im8iDcSjvDBnJM3EOMH14kgDZQXXSIIihbnkxou2kIPZGUwYGM3qPIWxRkxWFpuX9sQcc9qPXgNSSf7t6jutBIJCU3OCSFomllVU4QtK8OFmEJaXf2yTGyPfbNfc5v0GBy//rnyD64b+gLXI+BgVzXv9TN772YA8mCuXRaJsZGtU3oMy+66iUyODisJu+JRF4OH12QP3vndfLKX3yVrN1+vjwyVZA9T98nnfSAvPO975fDR4/Kq1/9GuyFVP+cI7ktlCVVa6fgPKGAUsPnDjwNbMa+Zxg9hM8BlXyvr066g1MFz4Fs8Apyu3eerfs8/tixx8Ynxt+2e/s2qgXZoLny+IFugRWw+RS4/J1OJ3ZsZv45D+5/8N1Hjx3dDbPoOjcGRiZzZxxIDlJ2oWU2Jm595EDTmU2apZ9JA2h2Q+le1gyDI8JqVIApVSSRoaKK+SPWyosS7zTkv/78K6S2NCWfueZ9cuXTz5MLtm+QD179dnnx86+Qw4ePyO33PirLVZE9e8+X57/oKvnOd76jWi5kjp1GVeIxWDtYPbMFisXTguUS7KaFF9uCp6BVCCKLldA+zE1cLZnQawGsmdBhpzh3NHro1aqwis22Zsia3VBDCjqpmP5QNW4NC59nQ8Y5CRe0g4WJk9KuE2o0dor3mGR4dtE9+0N8QFtiD6QZx01D7YA7AC/7sInJylIaM2ghzR4LbRnxbMcz2LX8aBsNHBnA5nkJUGMfvLZKLiYjUGYiHlOTdxJdVPNJO6WsrJ8zRYT3SJRxJod2VJaHEqAk2GTSge0yz74BrkfbmCGy4rPZlGb3A4o433QipYlH0zMnZWQ4JxvXrpYm5Ro1JJpU7WqcakcwjSE8r/2S8CsG1EFP5sejPqhkAFtBcg33YtfUqhM/RqoakVgypq/REMbIck7FpVau6fuwrOgR+R7nbAA1qmCT60HWPBWE8K/UNtQa81hllSSWTkqtCSM+oJpNiaWlTOgThjcaVYbOJ3VlrxpmyQT7z3WoqYbTXAv4nEWF6jXDog5Q6As9S8KwOujEQj20bPKXwMxTkrJeMUaPrGZY0wb3SPD2bJMQiM45oQtFs8Yy94l2k8z/QXnooYdkcnpS8sMjUiZBqt7WBEKuSwbGtR2xCjS0NGMJ2lR1cOjoYqFJSILKNNyTIfyvTHuot672SSxmm03TUQcwqoAXhrtY6WqIlRltWxv4ApdtOuvItXYbKx+bWLjUargpeF8xKygWVy6t8CpcqjWEra0Z9qHEaDKb1rKuaKbRSBMO5xw5XrTTHh6vspihEEJuQC2TqmX8eJGoGMPKQphxg+NgP9UqURD+NgstjoG2YIFq176s0ZGJ/LACNrTeANsL916sTpjRWEaqjbh8+CP/IPPliPz8r/2e3Ht4WtZs2yNnX3SZ/NMNX5c/f+e75CUvfrFs2bJJy+OyiAJsent5BMX7pL22CAnHzXM8bk4Dzmz2NJvBDilibHeX0exqN0NkC0lF8G8lkW/7mdtkfm6uOjt76uvnn3Peb46P5x96CkyxK6fw79ACK2Dz36ER/6M3MVMsrnnkkWNveOCB+19TLBWzTNQaxg6ecKr/agG6LIR+GtikhnjQRel5tGyS7Z/kHWT2h9aZgGwQAqw0pEMCTQu9FAlJJWlVlmXH1tXyshc8S+686V9l/tiD8tM/+nz5/Kc/JjMnDstlF++VO+/ZL3c/UJR2QmQwPyQjE+PK5AwMZlX7o6Wl23WRjmm3dFJNpAneqzyASTVB4kvbrFQIB/oA6/kyWtVCw+ghkSAeF7Ko2VanXZdhSg02zOCa7RkotFJ+WBt55RZ0a8YEGMPjejISK/pDbFQD0kzjUEvdwk+E+i0M7VnbFm6PBLbYwphMtgAJD/PyW/PuTOk5cF0MhMRD8lJVw3h6/UIbWSiZydqShNxEHEDVaJOtnVBtHZM0YWELORpQ0N91PS9tAgJAapvGTGuoJU81+aejIWhRVtZq1uMR6LY5aDRTyaw069ghZTTBa2FhUiZGM9Jp1SSVSGtmMeUOAf4K/Jj98alE00k5zWxWWSqXKbhWFjaSMKFayvB5Kq5aRZhVElFMDxLRRQvZ2bgNkDhDvwJkcZz6ebcmPTXfizIyOqRgU6V7zY6G+QGCtYZlmQ+NDGsYvVwT2bhxh2SHx6UVsRrf2kYB4PtiIBaAiFtNoZvUxULVrKV8gdAgyz2EojlXVnBM4B5ip4qQAzgF2EHqwj2tmklC9S1sFEnesWvBQ63Aklxbu870JfOjFbUoon1vv+1uZbzXbdospRqLKmPGcFugrQhzc29pmJRGBqgkIlQ/1UVGFuAftMouY+jXXHKe7AdJAn9znvRn7duEedNp1Ur2+qD97Qltdk8Y2AbkuqTE7xVArrWjJUhp7W+YPc2OtmIFBqrMt1MTAfU6mTZZQSf3CYsvtKScMiVstbBOVGU0tA+fu4aa49Byr9j8lM1Kyq8PJvbW/nafquVcKO+p91g7mPpzn7Uiko6mpFIoapa+htpbIuVqQ/JDE3Lbnfvlwx/9qvzUf3mlDKw5QxabSdlz2XOkHE3LW999tRw9cVJe8ZMvl4X5eWWh6c8sclUSEUL2DiSN1bSFjtYFCIRBMtYDmw44/Vp42/n81g9IbXzEe97GD+aDM888U1LxOCzt0cHB3DvP27Xz45FIxKwyVh4/8C2wAjaf5F2g0+nED0/PXnXvvfe9/cH9+3dqti+h86BJc4aTjEdPOngisNkFko8DmzoYh+SgfrDpNXUZdBeWijIyvlpmF0maiUq1vCzxTkVefOWlsn1dXq7//Mfl8r07JNUpynV/f60889LdUiouy623HRNKg1PEggmcakOQXYxjkBtqxB4VQYoI/mUsVk4w5BYgMQpIfSoAACAASURBVGMCh9Dkc+Yoy/40j2siREp2RmAc8L/DHsX2w4ayWcMlJJLzW05TyUEYoxrsJkkV6Ahtn8jXeI/v8jnf5Td8X+0OY4SVzDy+tIyfo0ijZseMHI/j4HucI88cM/iKY9MkibiIJo6zXbMa1Cx/nnnN+6rt45gSwcJEaxz3vkeqE2QE5T5h5MKlQ1qobcq+yEXRqnWWUN49d/9uMhlVgNGJ2cSvkzFMXcR0rK7D00SPqDGzWPEos4aOLZWVdism1XJLlgtVWTcxIS95yRVy/73fkuF8VAYycTWz1ozktFU0Um1g1ELcPFcI57bNBB9wQtiS7+FTyLEUChYi1ySkiCg7DXOri45UUhOyAF8wtcgLKsWSbo/rTfY4iRrIDzgG5AuATcAbYHNidFyBFuFbGnBoKKefsb1ipSmp7JiCzXqbNooqAOehmeHB75F29fruHCMhX4CJgwAF58FmyEPmVLpyzZ+CbxL7tKKV6fC4f3VxEDfw1Gk2FLh6NjmMJKCak9QElpioJRRgezCX0+RAQKYdQ0rB/l133i/PevYVcuYll4qUKtrZl2fnNcyuGdPaWdHa0Fk70mk3pN4MRvYRog6KOFQGombwrFfUcIcEHDNr535QxjidUMZZy9nq/dxRn1KiDwpk4rFuohxAB4achQXXjWsOCNTFbcMWTV65SV0DQkUwryaVSJjO2fWRClYV0NvCjtf0VSIjvkj1RbYDMV/caUGHAIgdOPLM9jxb3llTtTVL2GIVSQzXzp+xBnPrNHV7qLX0f6wTsWz6RlsXRxIh+SYtV3/wozI5W5XX/vYfyR0PHZELnvU8OWPPxfIP//JVecd7PyBX/dAPy4Xn7dGSo/QPQvwwxezTWXsFjgFoBqm45UU6CEd3HJjNx4NJb4fvBTb5vFYtK8glQeiiiy6S6ZMnq4sLCzfs3rH7tyYm8g8/yafXlcP/d2yBFbD579iY/xGbmi2X1z9w4NE/ueuOu3+6VCqlfVXr2ebYgPA3gKDLcAYRvw6mYSXsA62znM7WefjcWYv+wRa2g0kYSxuAXKUWPDvrZZkYzsgv/swPyYPf/jeZfvQu+blXvES+8vlr5fjhg3Lu2dttMGzUNASO/QzmzUza6Kh0cg5AwsNlvn8qE7XIOO1gZYJQPaH2Kr7SJtxjBRIddLb1tX4eQkdm7k1gsCWdKJOfMWrOXEZDRpCB67DtwEQF0vc0OxASWmCUeFaDGAAIMV01syYgjpVSRCdPLGJ436xjOjYhs2+ANHIBfdbUWD0+neBhI/RQLKSpVU8MdmtmsJ6pol4H2w1loZjUAaKqrSV8pqJb+7sniaB4nenbeguLACzUwoYSk8Z8EkpXRk5COUVF6TCkCnEVjxB2LyyWJD84IccOTcp1n/qyjI1k5Rd+/uVyx+3Xy7YzR6RZX5a5GUtmWLNqlWbrqpF8zLS0CjYrxvYRauX//JzVrx4dGVHfTfSPXiUoh3ciHpZkoKdSMpDLaRYxWlMqsYyMjspyoaCvadqx8XHNMp9fWOiCTWyy0GWSmDSUH9b+odus1mTN+tXS7tTl1Oy8lOttWbdhu2zefLYslSpSrFVkMNQ2V02miAzksgouYemtulJaxkfR5U3qcU9MjGnI9Mjhw3pPDg2ZlyjaQpNTWIGBYqEQwKfpe9Emsk3C3/ifzs3OyuLivLbZ0OCw+p8iywC0pRIw+DFZmJ/VfjQ0mJdmuyMLc4vanrFoUtKpnNx51/2y98JLZPe5e2R6bl6oyqQelmnqjCd1ZUOVHPxKy8Vl7WP0CZUoxBLSoRypevBaf9aeSb/TEoh2X2hee3gGfCr44Q6I0sdtMavjDn2TbQXmjUUE90lQTGjPVckBEQZLr1ZNtj1sKvNEOAW7vnryb4RSnz5W2H1jUhy//x+/sPZIyePf790/7Ndsf3r3Tygry72uD/ucNuqOo+GkiIQo08qNCm5XGURa7n/woFzzsc/LK171c5IcWiNLzYQ87YoXyORyVf7kz98t04WC/Nwv/bJUlgvq/elJSug2NXkMu6e+sLkByV643MaFMH66LKovUagfaDoL7wlc7vSg0pd6VfXEWzdtVtD58EMPPbZ6zeq3n7tz+4cikYhlx608Vlrg8U42Ky3y5GoBqgUdnpl57rdvu/M9jz5yeKcPOL6qZcAh9OPaQ2U5CacHsKkDfChX2a+TUs1gCP3ADDlwVbYh1Gi2VT8sXkeTEmLJAUsuQKdWK8rLrnqO7Nm+Vr75z5+SPdsmZCTVkhv++XOSHyApJKeM1lAuLdkETFhEspmcWgVRDcZW3Rb20XC1h33UfNiYLACSAk5C9zyHYzaQBjgzOMakZN810MfDJzVCoAAojKXV8kmtUGBcIqFCjigzZr+z33YnM60HzMQL82fg9bTJEHoRrR5hdqVi+0FkOL5OS1LUQebDcNw8ky3vrwnldqL+OeG9aBeUWriV8Rx/E9Ni2X87S9fZaVt2SyF6HzdI3gIhBk89kx4ErRYgQBnVlmoibYuWNAQoVGBOVjeVjFJpvQYwOO1mQ/K5EclnJuSBex+VD7//Y5L6nzajf/jGX5EjR26XsdGWJOJY5XRU9zaQ4bcdTQwxYJsw2x1o2BCG1kVSw7Kj23iFBhmDasVCNRxPnPE+6uyVJxXpvRD8OtkO+9TJsglbmxRYRc7fLIGSEmlZBRr4Ofw3G20Yp5iCzXgqL2vXnqmazWqLko5Wi1uBhLQ1KYbjsGsDC+3WURQcwNfUsrdh2fgex24TOfIGCwsbILKSkC7rAAyrQ0Lw4lSJRNPC7TDLvcxvvDZhuCNSKS5rpRrNTidsjLQV4/JiTYZGJuS22+9RsHnGtrNkfnFJsupfW5XlxWUpFysykB4wj0iqQNU5FtoulDHFFitiYVhzDWLc0Fc6tfAa6029I3XFBzPaXVnxDb3PuAvtHrPa5wpadcGHpIdD7oHVftDK4owFqskHevev+tRyy/SBVdZZLAZNYdFbXqnVVEh87IHF3jzg42Lv3rJ7zMYCZAFW8lItl3xCVd9c7lNTHvSPD71xwBaN3EP4BVukKKbXp95sy79+5Wsyv1yTX3/dG+SBQyfk/Ev3yfjGbfL3n/+ivPP9H5IrX/giedblV8jU5KSsmVjVrcYFw6v3akgSMkmNLTj9HBSE8prxLmoJQH4+3fs/0KD+2pPv6OPcW5pIRQg9EtGF0paNm+TkyZO1eq12w45dO/7bqqGhg0+u2XTlaL/fLbDCbH6/W/j7uP1OpzP0rXvv++Mbb7z5l5aKy1kVphNGCw8VofeBTQYgDQcSjgsedozmzmZ6coIPupqoEWo6++Tsg5IlcTSlLZYFXKm0dZKigks2GZVX/cSPSHn+MZk7vl9e8tynSad0Sk4eOSCrxkbVg1IroLRqkkuTXNAzJffBrRNW+kyuaLqMETAWxH0yVbsmxgy4RABmwLRVxsAhLtNBv2OMqIEmY1AAm7RDC5ClWi3GYMAe2K2j5ThJFOF3WPQooIWhUaAS/Eg7wJGeT58xpj2GhrCYMZF8z/gX9fNT8rATkm2iXWaTk3S/P86O9j+N6WT/XQa0Le0IzE6PqTSGxYCkT6I+mXQZpKD5M59Gm5yMQTYQoSx3kCMkiZNGmWC0tLICWWOjLPxOd0umtZCOxOMRqZY7Ig2RPWefLZdf+lx515+9XxLRtrztz39Tjh27Q5LJeYnHajKQGVTACRgCcFu43tpWw6V9IJI+AagHkMGA8iDsqNn/hcUQqqyaZi0k/ajuMBjVK8Drs6EBlLEfNYTX69hUsIn+0fpRW6RpoepsivB3Qc3H80MjUm2a5GPVqi2SHRzVa03ClfdbfGepRgOAgokltAkjqFnmyZi+XgqVr2AYYSWpkONAwMpahqSaoC1koeBJYNhpsT3aQbO1E0kpV0oKHFgUallWTfxrqN4Wn0/6i/q2Ii3B0iaekMJCUXL5IbntzvvkvAv2ytYtZ0mtSlnUmHzlq1+TBx54WDrtqBRL2PdYWBYrJZhj6r3rfRkWga5LtjKx6KGN7dOiAJrt3B9rMOZT+6dYAhbLNCIWDlLVrjFopiNqCml0vxGF9j316ZSO1HCb0MWl6UmwXMIPk/NUTTIJTEQ0ggZTs6Y16GDMqPtQ9gMx6289raffH/7cY0ajWuHI7m8Dlx6Z6C52w3HQWDYuEAGwyAEyWCzcaiQYEvYnWY2UtmRKjh6blD0XXiqZ4VXy2OySPO1Zz5OphaK84c1/Jo8cPS5/+pa3SrXeUOaY+0I9YcM42Ts+s4PqP+5+0Mn7tNPpn/dskPrfpy/5ttiPLqawHUskZMPadVrd6f77739sw/r1bz93584PrtRA/z5O/E/STa+AzSfphYPVnFlYOOdrN918ze133H2hCt4xYVZNlK0+NSlADaetsokmHbRDWD3YG/npY2gO8NLRN6yMXWCvgxh1k0OlIQd3mpiTaKmZcrlUk0Q8I0uLi/KMSy6SFz/3mXL/nd+SgVhJztwwJsPZqGRiLQ0vMtAmE5hHM0lYLWZjc6wSBWFADdEF4ADwtDCQTQIuYBchK9ayjt3fsFv5ImZZoYbUeDAZhEQYfYtSboSZtXabgkHAl1VSst+Q0WphdHghL9tm23CmE32VtZg9HBC7LMGTBfrDUr0vR9XsuX8yU0qmTyfLhN0fouuG4QKobHTQ+fVAYhcshvB/k3rItB2AmcmQSU+fzbRb69qHML1v2xhRY9bs0e4arsNq2kKD5AvmzpaUK0VlQBGWRjs1ue2Wb0t1sSXPedbz5Zr3f0JymZj83u+9Rg4c+KYMD1elVp2XZg0/yaxEI7C1vr2oMj0ch5Y4DNIFspjxjfXwHW1KaFeZTrEqM2jhnBnlfZOOmAG6g1S/Bv0+mwhcsRGyDHyTgaCnA1mrC0EqLal0XKqNqh4T2ejURl+9eqtKRzRDOmMaPcLciZBljQ5wbu6U+kByz5lfZFnb3Z0LAJnuHYnllNZKF2NJnfEEaxkwNn9UmGM/p0bI6ud+yKQyqhG1NiCBDFBj1Xq0olaOLOiEYBmFfKHTiUo6m5OHDh2R886/ULZtPUuKBWqUJ+Xv/u7TUqt3ZOc556nAuAyoicbtWEkGi0Q1wUx1lNyzZJ4LEYCWPnPu3C/c1zzTp+OAGhYk4RmXAO73dkic02sD06tg0O5301rHLZKhrLHdYCoG0WdEyBYu93u2y0Cys1BxqP9+8nsPAA+/SZuwuOxnPk3uArNvz49nSHvv272g0gAdK3oPA8PIWYPkJBis+/1pMiCRhiJowLFoiUycFlpogXHbiCblvgOH5GmX75ORiQ3y8U//g/zVRz4qP/kz/0We/8IXyMGDj8rGDZuUXfWH60zpB5506OCzP2LUfS+UqvQx6PEMbhdYci1DgqSOCLrwbks+l1NWc3ZuplYoFK7fvn3769eOjT14WmOsvFhpgZUw+pO3Dyx1OqMP3HHH679+002/Oj0zOwSjYUJ2s3OhOg2PesMmULfXIZRm7I0lIxg7SDi9dRqYVLuSkP2sZtSAQVbJIZlDdUbxiCwVTqkt0NQkE+uArB1fI6/8mZ+UnWdskuGBhMSlJNJclmS0LR3qpgcT71qpIfnRcakSxndvT8JpTUBvQ8jqVAslNKctK1/IfzdeJ3lCJ7NYr8SmgrKQ7ekTjIK/gDcdbOpAG7EEBs+kJuEACycmUSx53NrIrGngGywU7+1iGjXTadpA3QtTnR5mI5Ta00Q+vseZvq235rNQZG+CcuaxH2T6MWBgLx3Ahx6BgdKgE/PwWDqR1mPUSoLqlQrI9nCiSDJlMgDT3dn/qMY6TcqgYXO0dSG0Sx/QPqM2VAACeN22TIyOiLQrcsnFZ8s3/u0rcuctd8o5Z52nYHMgHZHX/dZPy8FDN8vGDQkpFE/JwqmilhRcs3pEqtQdL5UUvGRzwXy8XNLrPTw8omwdWkfA43B+SMEl2kXAF/6qvAZoWZ+Md5OYYPb5DL0jnzsghR2kDWfn59RCCw1lrV7WOuJM3OPjqyTajug+ARtr162Seqsup+ZmNRt93cZtGkafnqXeekvZSmxuqBMO20NYEd0lCUPoLtFYcgyTkyd1MbZ27Wp9fejQIT2HkZGhrh8k9kkAS6pC0f8BsJwTxwj4xW9UX68a1/t96uSkMrIjeavx7Vo9KtKgnwXwgnvGRsYU+E1Pn9L+zWJvZHRcbrnjDrn06c+U7WfuluNHJ2UwOyaf/vQX5Iwdu+XSK54rt937kBw/NSv1APLwxUyw+MN0n0hKsy2deFSiHRLIWhJpW0IQ/dC9WBUUara8hfFZ5Kl2WYJdVwCPei/BwDIeAWYC2AwdvJsw1NVwatlT2H27yW1BajZUjwd/PTDVu0+1j0eTFpkI44S6bJymje699vf7n7vgNSxkvxvsGitsj14I3q276pTepfqZWm8QIYhrn8rkhuXoiUnZctYu2X3BXrnvoUfkz972DpU6/D+/9wda5CCPbVLcEkLZBvePe8m6X6iCfdes9yUC+XGzuH/Cz8PxcO1ct8r3WFj4OEhVps0bN6pu/OjhI49tXL/xj7edsfkTkUik9uSdWVeO/PvVAivM5verZb+P2+10OpGTMzNPv/7Gr73vrrvvv8AGAeo7U1nD/OWWyzZ5A9qM3bQEISutR5jOrHQY2NxmxRkr1WjCVIWyjW4/4uFHBSCq3aRuctPqN0dTqu8aSGXk/HP3SKNalFQCM2jqKFOpxUKjMIep1IA0q7ASKWkC+kId6AQ1mFUrBKjj2JhwoprlrF6PAGCYOAVVbpMTMlm7dXxNg/T40LEzIzAOXfDZcSshwmEOMOOW3ZtIa4k7HcTxygu+gT4wa7k2tQTyeeR0sNnPEJw+0QVNWlfzZSbc3QE/MJs9sGzb7Z8QeqBQJHma71136uuGAVXzGmZnZ0i7pew069/a0zWvMG82LdqD5CCfXPR9kp6UVTVtI30lnUrIwvyU3HvHN+X1v/nzsv++2+XmG26UK5/+XHnvOz4o6URH/uSPf0WOHLtVhobK0miWJdLMaugxFiPDOJSwVHYr7K9jmcRcL2c4NaO4Zhm+frwcC4bpAEv6pbPfnDe/4xmwClDTDORgh6PnoLrKlvp5VmtkdfM5HqopDWcqkGk0NasfoATjTghdYlkNo0ejBuS1jGjcJnrCuCwgSHJTX0vYOwUDCdM+Bx0ngNIN3D3jnGPVBDD00gHge8If3rD6OXhMj9m01IAU3iec60BTs6zVy5NsYTK1uR+sdKh0YCTxhSyrZvPWe+6TvRc+TXZsPVumj8/JQGZMPnzNJ2XrWXtk19Muk0//85dl+/l7ZfWGzVJu1KW4VJLBTE4SqtHFniFllgYh8UcXOy6YhOvUyjm2eDFNsLGuHAPXymURpiPsRS9UexsNWuwQrud1F7j1LdBUrxwYOt+ug03v8737sXefwmxyfIwxOupgkcR+wzNHjd8mz554yLNGCr5LHGBab2dC7TmqCWbGjML89rYTFKoaTVFwrF6VVlJUHyx4Bwakhmyj3pSP//2n5OvfvEle+tKXylXPf4GCzVwuL5mMST882qN9JER/1KosmLb3jx/9U5ODze7IEcbOrk6+r466LTCDT2ubRLpBOfOMLXL4kUfr1XLlG2fv3vX61SMj93wfp76VTT+JW2AFbD4JL95CpzP87W/c8Ce33nrrq6em5wbVQy6EDZsaBrakHbSN/j62KExSDjad2WSww0rEmStPMtKa1mFA13BZs9mt0uKgUcFnq6keb7lsXmrFqsRhOJotKSzOavhROiRWWFlLflet4LOX0ZB7GR1bOh6yrmFFTmf5FHCRoBPQIUbSWAsxQLpnYacdt1Cdq7m6+k4Dywy8nj3dH+7mmCzBxyY1z7p3EOPb80lKs8z7MmdR/rNfDbnq+71Qlh1ML8PVGBcmW5v0++dJZw1cI9bPcvrxPz60dRqQ1drHPRBoQNTa0cPKmhykCSn23wGZgUkzYef89P3AvnC2bEON4r2CVPD4VPYzHlGLo1PTs7J29YRkU225+46vy5v/6LVy/PAD8s2v3iD7LrlCrn77hyWbEHnb214rjxy6RSKRael0SCJaL4loUpYWpiSbTijA58ECQyfPUIGGBZSDSDPPtmozsKKEv2H+HLjxrNczgGc3ANdFV72u+kjuB2d/qPyjvrPNujLmMJCAD9jNGGFmNTXvSLmyrOb5+GwCNgulpoLNfH5cwaba2YTMfU02InzfQcdc0epEHGM7eETyubGw5qeK4T0Mql93GElNXAp+uMODua4eWU3Bg67UPx8ayFr1peAqMZC1hCtdXLbqWhGq3bbtES9OJDK6kJqfX5BEJicPHT0pu87eI2esP1OqBfwj83LN335a1m7dJVv2XCCf/tcb5FkvfJHMl+tyfGpGSoWSxFtRGUiYb22t05J6hwUlfcuS9WwBY9nPJk9saaKMLXB5D2mI3U9xrNrgxoM0Q5O4QuUzIh4uD3I23auiGYjsL+FqIN2/h21ab3HVl/Ee9uO+tEQtbPHaUS0loeGephIv2V7ij2uu+8P5nJhrRnWcOi3cb3KDbgKRRxCCtpPvRxJWIpX+grmD22AVKbyQzqjfWTY/JLFEUl7ykpfIZZdeKt/51rcknUzKWWduU9mOj90+lfV8VpE2WQJXD0yeznS6q8Xp3+lLgjJJZ3fB58RDJBaRdWvWajnUw488enLd6rVvWbN92ydGI5GlJ+GUunLI/xdaYAVs/l9o5H/vXUwV58/9+49f+3cPPfzweTqYR0QnHCbaWrWu4IEJE+ZB2cwARHUSCxNPN4wumFJXlXGEudESjtWqsSdUT4lhxr2gAxraOR7qHxiJ6Ovt286S5zz7Ctm370rJ54Zkeb6gejrKQ2IqzX8qmJgYH1bB9I/1OtnFCc0F74RscFURKli2BAIFiUFj2A0tw2K0CfGjL2Vwp7avARUFZ0FjRShYfSSBsn1hadeD2bc70lD21BIONHtW7Uk0ZTb4fQKCPVTu2d4hzZStd5kRmLJeOM7CciHLRmWhZtniCUIYYveHy3tMrGkl3SZFgX0XQPfSZhVwhvC8AlVNyggTbMhMpx/ggWiMkFnK2GSMRtYnqTD5+KaDzyr9wAEA+1K2LaBkZejEMqBXT6yRD7zvaqmUZiUVWZI3v+EXZe7EAbnvttvknLPOkff+xd8q2HzTm35eHjl4syRSBWk0qxJtYRoOy02/sCo5oBNnLaniwj553V8GVG17YjFZXgrVd6JWT92ZTQfTCq4Eb9SqTExM6DNAlX5Nv+VcPIFucGgw1B235LnBgbxef9gj9I9UFtJKUrWGVBodyedXycSazVKtdaTVbKu/ZyIZV3DJtYPNNI1mSdswHSpcLc4vKOCCaQUoE/bWPhs1g3C0rzy0AhWZzlWrdMMEDwgplpaN3QzfR0qyvLSkn+HmoGUdyetWZsuuWbViCVUjeSvHOj9fUCcIuLZoIiMPHD4ql112hZy1bpuUFutSLXbks5//ioxt2SGDG86Uz3z1Jtl58TPk3oOHZNv2HXLJRZdJA/eJlmWStxMxlbqoipmFHTIbqmQFpwBPKqH/+4LKF1i2SITRNB20M3L6m5Cpb0vCkMDGojCwdr4t+jK/Bez2LMX6LIa6RQp6ST+njcc6JtliyxddOm6E++G7mdG+MYD7TI1Gg7Wa9ho7F79XVNPZdbGw8a97Powf4bsDA1n1giWhC6Y8PzwqBaym4nFJpDD/jcuolrOtyuSJk3LwoYfl1MyM3gvINvjvQLDXNm3V8Pv+XF7Qz/KqcLTv8fgoChJbl1PRFurvqhXU4loDffKxY41SqXTjuTv2/Pr4+OD+0za28mKlBfr71kprPLlaYKbTyR288/b/9pnrPv/bs3OzI5mBAVlasjq8gB0GI1/he41hKpwwSTFoOLPjVjA6cZeKyhZqdZiqaSOZ8Mg0VAP4kLnOZJrLDsju3bvlOc95jjzvOVfKmtWr1Pz5G9+4UR588EE168ZD0MNBg4OmwWOyUdAS6EUFO8FKJ1i19y4ErKMLs57o8nioWXVfptNykKFhIUBW8Ovr9+37boaQzHOrGdwN/4VwYDSE+Uwy0GNGOBwFf2GZppNHJPZd/n8KLglBBT/Pfk1YN2s1sDP9YWwDmWZ67Szr45/7J7d+PZVOFFH7vS8stGRi0IHC2Oi20MZimt8xXayCSmfGYavoL3WTWXDNAWW8Buh5beyDBx8WtI/XXvsZWbN6TP7kj/9ADtzzdXn3G39BqrNH5Y6bb5Yd23bJ1f/vpySXFXnTG39ZHt5/iwwOt6RaWZDC4rIuZoZHchpKZIFCuzBp8nBgCBvJf9g/jgt9pL+mr+MfCXgjuYbP+zWa1KvmNcfJ9tgGTC56SdqKuvUwtPRXfqvn2WzKqNYRF5mfn9PJFXaSDPWF/6mXq9bbsmr1Blk1sU7mFopSqbdkeGhE0oFlLRYLMj7mOtNTBl5zA3qM86dmdD+ehb5UWND2zedzamaPZ6aDZtqhQeJduazXYc2aNcK2qSnPtjjmYqkghYVFfT2cH9H63GZwjnF+VhN18O7kHACb9NXpKV5TS31Q0vm83PHwg/LMZ1whZ6zeIq3ljpSWmvK3n7pOzrzwYkmu2Sb/dPNDMrF1t+y68ELZvOUMmTwxJUcPHZWpY8f1POKJlAwM5iWdzeh+tY+EJCa1YqLurIaje6U4tf+GBDXYvW7kIfTP/uiChrnDYotCFS758fukG0HA85cFZiPIbfoSHXX/fdZovHYWn0WzHk/QbLqfrZff7EY2+iIDPtaoVCERU40q26Od+axfztED25SgBA+bfKAnE4A9jXeN+rWMrLuvC04PWZmamZZNmzbJ9u3btT1HRjDc78gdd9yhOmEWLeyHPkF/d6DvMhcfv/24fQyzBaslV7pEwaNERtLaoskXbiz68NVk+xwLCW/33XPXyYsuvPAtZ2zc+LeRSMRWNiuPlRZ4ghZYYTafRN0CIwtsMgAAIABJREFUreZjc3MXfeYzn/3Lu+6560Kyxwk7enk8Bo/lUsmyVtuWVOOempYUZHpNHzy8lnc2baE3mBEGErVPabZkeWFBUgMDsnHdetm7d6/+B2jCDC0uLOhEODs5ZWUM43EtV8YxMOB5OFOrsNjoFp5Of4YF8Uc/g+eMgvvcdUHed1UzOj0LtH9i6Wfj+lnE/r9hPXusYi8xRzNjlanxw+8xAKb384x1cwEg25uAmibi9D1bFrgl6Ki/X99rGFT0dd1wX9cEugdu7VhPP4ZeeLCntexvQ8syb3Urrnjo0SdrZywBmzDPWqK001SbJWUtQ01vrFjUbJ0a0YmEghn62vT0tCwuLshLX/4y+aM3/qGsW79KPvTB98q/fvYj8vbXv1LmD98rd97yLTn/vIvlAx/8rE7kb3vzf5VHH7ldEgm0xIQNqc9NVZ6mMjccL/sBSCo7FkBTP0vkNaZdn0afI6HG3/fjhOnUpLbAOCnjr3XBKTVqek8eGtbFRxMZSr2lSTl2b1ifcBNsBThUnMoMSrmK52dHxletlkRqQFotamkbu6bZ1S3TS7JP7JRwX4DhxNrGOgFaZyvxp6H9QQuDa/Z4aAOOLZtJdx0luG+tLKWBrf4qQoA2rgnlPzl2ZxdV+yn2XfUVxbdKbyJzeqiVm5IdHpa7Dx+U8/ZcIBtyq0VqUWlUovI3n/ysbL5gr4LNmx5ckM27L5YX/ejLpNFpy3duulVuuelm+eTH/k5SybTaJ1Hvm4x8xgVfhKETB0AzHhmwsz7tDCbHp+VJ8YUMjKVfawdjzt4r8xjAXg/QJQMoQ0doQM//W5KfAT/Th1qEBt117/2YLrBJDATgeQWk0zWlokmPbkKvoBLrKNaXMKmgtDih/NNrizuz+F0sYZ95ul0MzOl7URmVp3h0IjCOmrQY5CP0WgAl5TN5b2wsL9PT85poduzYMe0HKs0YHNT7SLXnofKUtz1934kAbRddiBIFCoytM7PE9AMo1yhXaE+8NX0BtzQ/31hanP/mrnPO+o21Y2sfeBJNpSuH+h/QAitg8z+g0f//7rJYLK65/qZbfvPTn/2HXykUl/MMPnHCa8Vil6FydobBxRN6mLgZ+BhkGJAYgBg8nPkhXMjv+A0DEAPVGZu3yFlnnaUlyHbv2qUr68nJSXnggQc0ExiGc+3atXLurt2q82PbMEgwX/zt++zX0PWDvB446ln9PBHY7M/GfiLAiYVL//tPtA3//PHfC6PpE4PdMIE4MD+t+kcf4FXGRCPf5n9pfno98/X+149/3y2L3GLIDeMfD767VYz6GBpnarheFhbvZbEziSuzSUJVWJA4+PREK89oV8AVQIwmjtUbmoRDHWkWHG4UXkNq0eloH7j33nvlh3/4h+U9771aRoaG5JFHH5Zr/uZDctOXPyV//ts/LYnytDx09z2yZeOZ8uGPfE71tW/901+XAw9/S1IpJkRLhkCnVm1YpRMvsWd1100ryjOveXCebmHk4TxYtELBWJ3uIimw97yGBfUMdNrHjde9VrnaCTUB+yzM8NnMqYwDjaNOtNgOUaudkH4kKoO5vJQqDalU6jKxap2ks3mtDVquVhSoO7BpcT10uy3JhUx5QA0JSPRW7kHODalALj+gizwSiyxE3CunSNuT1c7naPT4DYlHLo/hdSad1AUBiSBcW1hLXYwEdtt/Y2UiYbJIoopLebkm6XxO7j9ySM4993xZnRmXVhkrooR8/DOfl03n75XI2Ga5/q4p2fdDPylLlZqsWrdWLtl7qex/4EH56EeukS987gsK9rP5vOzatUvWbdigwHH16tXq5ckjnc12wZ4uBgLw6+qs4z0NsYNMe7b3XVLQ/QwWsE97TAnM/tA67Uchhv7vKMCFVQzJZg54FQy2WRjQv6zcJs+2WCDRsKMg3SMfj3/WxQN9pBvlOD2kbgsa60u9BeLpo79rRrtjYwCZ7l9Bv+VeoMoW2/KFFPe4M5lcd8byI0eOKOikv9KXAYX81tvQk+a65VEhCYJMQSU3avcWTN6jwSYujHVUpHLGFFlKrVKS/9HemYDJcZZ3/q3q+5jpuUejw7LkQ7IlS5ZPsLGNjQ02eO2EBJuQQBJuQpawywYIWcixSQg5MIHcQEIcEgwE8I1k2ZYPfAls7PiSL9333NPT02dV7f7fr77umpYcjufprOL592O5prurv6761ddV/3rPycmJ/cPDQ5/uP2HFV4Ycx8SA8EECL0OAYvO/0NR4Ye/eV/3T9V/9m8cef+x0WOTUShlaOmxSgRWYeK4XtTB71QpJvciFLkNNMpia1n7IOHGdsWGDvOY1r5GVK1fqiQoWArhosB4ueLjwo1vF8ccfr65IvfgXZ5t1DoES8Ua2jqHeqUcSNtrFprFkHHkA7IkZy2Z2Zrja/JO2Roo1T+RRoWlHtVasdsFpn4Nj+3sYx8aKtbYlEhMZDv6jLRcm/u7lLjbG2tCyppphjxTP9nXdrkgiBURm0w0elqrCOtYCZorbm1qQVnyinirmDJawitfqJq5XLeAQmVXjRoe7TMeum3qtEGRwOz/++ONy6aWXyuc+9zm1Zt1///2STrry0MP3yfM/vFPe97OvlkTlsGx/+hk5btkJ8oW/ukVQFel/f/Q98tgPt0hvL+KJp9VtnsukNN4Rc8S6+mxxamulszc/cJNjHVjd8RpEJOYf9s5mm9v5Zi/I9jnmMvbBClnrTtRqCq4rmTDJRmPTxHREQXKNxlS6gSbA+Z4rpTnEIHuS7+5VN/psqSyeE9MLO/gWZ2dUEOazKKzekMqcuf6iBBGKoeM3hHqk6TTiUI3rHwl7yPDN53JSqZR1HzGGiUM1cakQk/29vZrEpMISxebD2qKwNOnzMGYTbmdt94p6jR6EsRG2XdkudaOPjaJ0UkqTs+LZrDy9a4ecd975srhrkcyOlVVsfuv2zbJs/QapZoblgWcn5dKf+SV56vnn5a5775OPf+RjcsKKlTJ26LB85R//UW74+jfUWgyvBiybEJzdPQUVvbmuvCmlFVoUVfjamMuwmLiNzbRWzdayVVt3nsUzFJvWVW07Y1kxGg+toFELJo4BbgHtOFaImnlgXOA2/EZLH0V+3/b3G80+1/HCtrjq4dA2SaYNZ3tWvlouw/ejy6a7ur2lpjZOMJzwsFZNVGkwccBmjmhiZxjuhJsqzFHMb4RZ4B9+qwihwDyx79tEUsxVy0saxhquSZJalzg8/4QlkfSMhBAB11jeYTXFd+3ZtaPhOsG96049/V29vZld/4Uuo9zU/08EKDb/P4H/Sb82CILcxnvu++9fuf4rHz1w6FAvhIIpsm7EirVatnriGosMgs5xwsFFygrRUtjD+eR16+S0tWvllFNO0Ricwf4BvbjhLnnPnj0yOYY+zoOyePFijRnDxQTZrTjpwLqidQ7TaZMYEcZr4bM4icNqpFmyzVI5Zo9tXcrmCT0M0I+e4NvZtFsFos9xAbVdfWwmalTURoXrEVZPx/RNb14EIhaI5nc0y60cefFTC0loGbDb3L6tVkTZ1/GZ6DZF49OO9rrJ5m3VEo2KTSumoh1nLAPj+vU11tJaOnEjAGulXUKEosWkuVGpGosmbmCqNWmEYhMXX1zk9uzdLU8++aSceeaZ8oUvfEHdup/8nU/JsmXL5OKLL5CNG2+WBzZ9Xf7XL18qBWdWXnrmGVm6eIX85V/fKv39Ir/1kffID76/SQq9cB9PyexMUcWmipJcLuwj7utcw7yCq14TX7JZFXNIUrMZ5ZhbtgA6rFGFnm4Vn/gH4Ym+4RB2iNHEhdZaRPF5vI/PY58npky8Y3chr3MYZcLAFJ9BeAMs+BBuyEJv1EWKsyWp1wPp6RuUgf4hmZgs6kUa64P75KTJKi90IQFHpDQ7I/W6yYJHcXiMhzqcYIce1pNTUxrfiO3DdmCbMV9Q5gjFsrFNmowXc/R3iN8wfl/6fne38kDPdxyffK5bmWB8iApjxfVkemJS3JijVllY68ZGp1RspuJpLa3z1I4X5LxXXyCLuoalODon0kjJt797pyxdd7qUUgPy9D5fLnzjNfLEs8/KN79zoywZWiwf/V+/KSccv0Kee+45+fIXvyw33XijtsSEJ2TRksXS09crgwPDKjYxf7F9btxUNcDDij11j4fNB6Ku86gb2v7dWs6Pi8Q+RsUjYi2x/0jYsgkzVhza77BxldqqUltjBs2OQugsFLV8Nm8oIzGd9jUVZvPODzYByLTd1Kh0JFKFPeNNLV7zuk0U0kz2yB13s3VmaOG0RgL7u7fr2t9+qTyrcxmM8VvBPzzwe4Hg3Ldvn5738VuKxnRai6kTNk9oNrywlT8ioQHghaoj+O6Bvj79jezcuf3gsqXL/nzdqSf9teM4cz/p9YzrLzwCFJv/RY75S/v3n/XXf/O3f3/PffduQKwmYnn0LrdmLpDWgqcnZd90P7HJQoiv9ENBuOrUNXLBRRfKea96tWYT4mRkk0AwDlxQuPBBXEJIQJzgBGYtZjbm08Y/4SSnJVBQ8y+su2jcecbtEs3+VmtAOOOsgML3/UePlxOL+Iy6tsP2kUcIyUiM2MuO7/imYw0qTYd39NGTuY7Z3N75PxW7XqNmWh+a7WklM7SLy+h7WDcqMqOfbR/H1CmcnywUFdXWhW7d4lGx2YzNbKunal3peB8F89XFXgvje+FGh5Wzhj73danMlXVbH3noQY3Xve7zf6FC57d+62Py7W9/Wz74wQ/KNde+We6+87ty1y1fkf/xtteKM7tfxvYfkIH+EfmXr24WVHD5nU98QB5//B5JZ1Hyx3QNQqWAZnauLb6Pi6wLy44GyKlb2y4x5yGEkchmrt+If6xocg62tZmM4Zq+5hBcNnsbSxs+Yl3zOIYoaWTj2nQuV81F1U5LiE0V7g1HXcK1eqAxmwUUSUcWtRs3xcrDLH8jVEyMcqOBzkGmHiaS7dSlGhbPt1aqJHqaN8y2Q/BblzB+X1ZoqmUpHtffM7LYbdwmXk8mEnpTh3JGGjsdVi+wLUyRsa6eBhRfVzc63MRu6Ebvlmd3w42+XgaSvVItouRTVm64aaMsXrtOKtlheXxnVS656m0yOlWU727aqAlCEP/vfue7ZP3a02RyfFL+8A//ULbce496O/oGB2T16tXS09uv+9Ldg4L3SYklWsXN7f6o+NMSSSY+Oio4rRXShtG0vAitzHXDysQa2jhe7UCG1+Om05gm+LXV77RjY/5AuNsYW7uetXxDeGLut777aJnnrfNX+3r43aq1sK2oun1uzy22/qa+HiYj2nmCY6qtQUOPhsbfao1jE24C7ao3SmGcPsbA+viNYokEIoS+4B/WgWUSN0fqIdAScuH5pelRCYvjhx6H5rZ6uAlKaVjIzMxMo1KeffjkNas/uqSv72HHqGk+SOA/JECx+V9ggowHQfcd37npY3/1t3/zoYOHD+URp6l9fxH8H09IPUwEsieh6ckpLeaMYtWNclnWbThDLr74YjnxxBOlp6tbevr71D2KGJ/x8Ql1iyxdulQFJk5SOKngRGTdsTjBNTtThEV99UKNmoWVun7e9m7OhLULbdKQJgGEBZObJ66I68i6i6KHIWod/I/FpimNFH1ErQRHe715odFWyshGN23vjhCHoYi1otAm2bSEnvlexObZR3RbrWg8mgiNCk/EtkUtsdGx8LoNI7Dr2O+326UJPZEsXvu3da+bGESTFKCiMlzaGE7ELKobHdZMxHeGorNeLevxRSjFpk2b5NQ1p8jnP/95Wbx4kXzgAx+Qm2/8jixZdpy8613vktdf+lrZvPkW+eH9t8i7rjpD4nOHZOLQQenrHZav/etdiNKQT3zsPfLo9++SbN6XVAYXVfTFdlVMqsUynVErYXFqWuKppGZPa53YSlWt4ShNA+tZda7cLHETTyFe0jQvwAMWRIyFi68feGoNhIXH1grFEiwgziDAcDFG8g4EC7LNcQGu1Uz8KzSCcdWKxpXCjZ7r6pJqrSG1qi99fYMSD2usImYTl1uMo+IEljLB76MmqJupcdJhVja2U2/G3ISWHIMLH78dW1IG4sT0GBe11KJjkh7jwIQ6aJZ6vd5M3LKehUTCJDch5tDceIZdnsIuPLWq6WRlSo/FpThTllQ+KzsO7JP1azdIT6pHGrNIWEvLN27cKEtOWy+1/Ii8MBqXs157pRyenJHvP/oDFZsQMHClv/1tvygnrFwpu3btks9/4Qty7113Sd/IiN6UZHNdsnz5co3dBGdkVVtBqDfEYUymrVJh34sKtujf7YLUCkIkt1mB3hSJkcxxawFE0X2bQNSM59Qs8rAtZaQ5Qssl//JC0QpDWItt6MvRxGb0XDbPghnW74RXRQuthQk6NlbTyjfr+tabrnltbG0jBHOOsB4TmxRqmSCuHu8jJASGBbjWsU02iQixwCqIm/s/X8zrOU47c5nyXDgvTE1PHV66aOkfLV11/L90O87Yf4FLKDfxGCBAsXkMHIQftQnbdu68+LOf/dznt9x7z1pYeeBCx0VUeyiHFyW42Hxk0tbq4mYysgHxl+edL1dccYWeJFCXDaWJrLulK5+XZccdJ/2h6xwucozXLImEjiNh0gkuwtHuQTg52bJIEHtqsQxbW0IgNDNgNV4rLH0S7mS7GEQnoiNOwhEx2i7E2gVdNJvTitnoSbld9M17z4Flz9MLefR79O9QbEKUqeXYttBrWi9btSe1iHpY4sgmBLUnDNnn0fValg1THBQJRu3jeHUkIJnXPWwn2v756PAEodzQ3svaWz4sZWSLZ8Miatzr6GsPoWmeQ1TZ1/F5KzbV3Q4LXpjghVhO3JDcc889asn6xje+rparj//WR+XWW29VYYeL9q//2gfl2p/7GfnmN/9Zfvi9m+Xtl6+RgURFnn/qKTl++Uny1X/dJH29efnge98qW+75jvQNpMWXspSmZiSXz0hQazTbTYIzbnggmuACx3yEQLSljXDs8DfmC1zGsPJhvmVyJmTDuKBTeiHF72GubEJIjKgMxXPCFJDHGNr5Ko7i7UkNJzAPc1HFfEapIcx1LQbvwZpUV7GZ7+qVoaERqZTDz8RgeTTW1Ep1TtdPxeO6jZqYguSmRFy3CeNiG5E9riEnCVP02xamx7HB+s04U3SgQY3bni7dXhuDad2lqLOJ/cnl8joejrNmXidNpxe0AsUym8lpyMLk5LQk4mmTCJNIygu7dsirzz1PhruGpDhello9Jf92252y/PQzNGbzuUOuXPKmt8rByWl57InHtYg/js+Lz7+gYvJt175VNpx+ujz9zDPy2c9+Vp557jmdJ6eculYTBpGtjmOGjHU30eru5cbCv0PrnxWKVnS93NKeK5uWT2vJtIlHkXqdiAdN4WZOmxbAf+9q5jm2A69rXU5YRtH0IMwy1wSZyHOt3xl2QGq5v01HJB3SJtS0tYKMekhezjKqdXfRKSpyAWgXm9ZLZBKZjNXWxm2CK8499tyM95rx2mFjAGvZh0EAvwvEc+I6gN8X5tyyJUtMa94wabS9zSfELmoyY77h9zp+eDQoFosPn3POq94/1Jt7ynEiLc9+1IWM7y9oAhSbx/jhD4Ig8U9f/8afXHfd5947M1vMThdn9C4U2Zq4uNRLSEJwZGjRIhWY55x1tsZO4SKNeE2cWBArBgsC3OaIz8TdLiyc6VxW0HEIF2xYCKwbyYpH656PxlDZO12c/PTC2dah4ojymGGW47zuPVHmtrbQy7ia7KpRMTjP4hEmGkSthVYkt1tIo6/r+ujSrNmiYf1JWBLD7iXN8ULRaUWqrT9nxjIiW5OJjiIWIeair0fFpIrKULiaItKtEkkonYRaOw1VjkGzdJJ9XoflC+JRY8LwD2LSLIOGyabGcyT1NBqeBHgOkelDnJplo+5JA2I0aAjqsIoftjGtG+E9PjEqz297Ti9kX/rSl2TVqpPlwx/+sNxxxx3q1kY/71w2K+96x6/I1W+6XG655evy5MO3yy9cukq6/GnZ+9JLsnjkePnGv22WgYE+ec+vvlnu2PhN6R1MSyIZyKF9h6W7OyPZJLKJRaamEN8osnTpoB6TAwcm1CIKoQtrHubw3FxFurpyzRhOzSAvmDIv+C2USmUVoBA5cEFPTRelUMhqrDHet40P4EbERXh8fFoKvRn9fLlkwgbgYu7pKeg2IAYTxxviCWJzcnJKUH+1p2dAhocWaZ9qyBgbZlKtoSbprFpUMe01AahW0fcR6wzrEsY1Ajir45vSS65uI9Y3Ijqj34m/y5WSiotlS5aqmIVVESIB34F9LJXQohYNFnpM2EOpoj8ZdEPC8+kZUzi+uws95fOyf/9Bqdd87avdVeiVp57fphUnlvUfJ7MTFSlX4hqzufi0DVLLDMvzh1w5/9KflXShV+6+9x4pFefkwIGDguoEo4cOa/eoj3zkI7J4ZKnGcH7ik5+UF7ZtkzPOPUeWLF4mixYt1lI9NjMasYFqMUZnnTCB0LrBo+eZpqUvbFbQLjLtOcB2vIrGYzbd8chMj8X1hlfrZqKcGZo1hK9bS6fNPrftNE3JK9NW1malq+iMJPrYBB+ES7QL4/ZLytHEploiQ++KPTfq+TdyHtRxwrALa+m0FkzbaKLaMCW+wNJ6LqJeGq10oILRWOwxr/B7Qkz0tm3bZHx0VGOc+wcH9SbIxvtCTBtvVqCfKWtimisHDxwYHxkZ/tuzTl/3J47jzBzjl09u3jFEgGLzGDoY7ZuCupqPPP7kFf/wpS/9+T999Z9X4ySJE0ZtriTproIKytPXr5MLLrhARSYuUk899ZTcfffdWlwdwvLcc8/Vk8nIokXGGhWWKdJMdLTQS6VNBxS0hQzjgnCysq4m/G1FaHT7rBhLSNjPLHzzJxWb1o1+NPe3PYm3Wx2j29GA5e8osZL2hGtcikfGU+r72pPb1Lm0wtoWQLefs23vmt8RduGxzxteq1tJuzCOxntFLbLR7W1rctnc1qb7PlI6xW5jy5VvKhJE3eTNYwiRGV6AdH0kBkVc6BrjKej2giSumHj1qoobhGXAAvfstqfV+vHFL35Rk8d+7dc+IPc/8D2dQyYmLK/rvvOX3iFXvfENcvPNN8gTD94q11x8ohSCKdm7fbssWbRc/u3Gu2Swv19++Revlq1b75RMPpBU2pFkLK7lgjKpuNb6NPUvTWcjXNTsxR6CHpYVWGRhrYPlzljtjHsP+wG3O/7G67ZdItzhSMTRoumFvFoh7c2FyWK3n2+EzQxMVjcs2smUEUJwg6uVMI1km0BqKtzR49qRwYEhYyXWdqFmDsTiqPQAwZvR9pSm7qGx7KeTqWZnLoghiE2si9+0LX2FY2njR62lD9us8aYIl0FYQ1hkG99n4z7RzUXjMOfmJJ0w9TltK8dyZc4kRKHTkWN6v8ONjuiPVDYjz730rKxefaoM5oa1e1DdT8k3b90sI6euFy+/WHZNZeSUMy6W4eOOkyeeelp27dilohnfiTCcmelJGeofkHe/671q6Xxp5075xCc+IYfHRlXEIlHouOOO1/3UblBZ0+QBN7n2OERvcucJN2vmi9RLbV8XcygqVpvu9jDm0L5ns9Ptc7XmhQ0b2t3wUZe9Pf/ZdrVHiN6IRdNue/T8ZAU0XmsXnXpeskmK4YeaRebDpCGIZD13RDr96DaFN/t+aFi0v3Vr2bTnL/xeIRrxrxli4uNmo1tvyvbu3q3XjKmZGVmyZIl6FnCDhza89tyI+rOZZEoOHNgvjXr90TPOOOs3Fg/1PkSr5jEsHo7BTaPYPAYPSkS05L90/b98+VOf/OTPHDh4IJnO56S7u6AxUWvXrtVA/FqYFb5/z16tsYaTC07ycG3B+oELFC5+eOBkAzeSfV6qlCWdyTQzxPVEHPbGjp5UoydKK9zs0rEJLC/HMbRs2rfbxWgyFtYFbPt81CoZFYtWhLVvhxVi7dsdzQZvF6XmMy0XuhVxKmLQKjMqYtsSkaxF0/NN6aV2QWy3x1hO5z+iwhPFlKPP7X7Z/Wy544yotgLLvo8WoPa1aBkklNgxgimM6QzFpl3HbL/pJjRVnDL1qeNxdR2jjiYsiZ/85Cd1Ln384x+X+zZvlu5Fw5JKJVU4QBT1dRfk3e94h1z5+kvlppu+pmLz6vOWSZ9blH07t8vioWVy6+0PaELCL731Snngge9KMu1LMiVaYFuLyFfnNO61UOhVgTQ9XdSkDVjh4OIsl5GAhYLvxjUMd7e1OKUyabXu2bqB2SwukEiOm9MlrK/YD3wOwhDv2wQ3iADEF2u4ABKlaqaNpV83XbbAHTGhGisZxsSh1BPEZrFYksGhYcnlugQdcLQaQ2AslhDGKv49E8sL96V2eAndvfheXPhNAh3qbMLlb7LQ8UB4C36n9sbAxqHa0k0DvX26fbgxAB8ISXOcTYUICAVz82HGSKVNfc65UtnUknRT6hUpz9XVvbz34G5Ze+pp0pcdlNJ0TTzJqRvdis1t+1257Opf1NCcp55+Vi3lSDYZHR9Vl+7hg4dkfHRM48FRe3XduvVy7733ymc+8xl9f+1p69WTEk+mdB5k8/mwJampQRmto9luIWzdgM5P0omKtqYFNIw5tOeqZlxmHPUzj+zqY8VnMm74NOM9tSNZq7XlEd8Vliay3wOvQVRktgvKaILQEWIz0ka2/RzbXNem3rS3lQwtnkhOi54r288RtvUw9g+sMTfwmi0t1t9b0Pm4Y/cujb3FzRauGxCdsGjqduHk4Pmyd++eieOXL//Hszes+31aNY9h4XCMbhrF5jF6YIIgiD+97YW3XPcXf/HpLVu2LEftyxNOPknWrj1NTl69Sh79/g/kgQcekKDR0JPDOeecI2effXazDAsOrL0rj96pQ2xaSwyseA46neCEGcYE2fp19k7ZWh+iYqop6PAdSBYObTPtAhHr2ZjNlxObccdYkdrF49HEpN2GqDv8aH9HD6mNuTyaVdAZiowLAAAgAElEQVQWVY+OawWnFZvN8Y8iNvG5Bk76Ya3Po21fSyzO70A0X3AaD12085B1k0P8Y1twfDTr2RPNoMay9bqv7nO417G0bnW40+E4hPCB29y60ZE8g+dYzlVQPxUtDo34efbZZ2Xv3r3yoQ99SF73utfJ+973PnW3dfUUtK0pLkLJTEpcJyaFXE7e+/Zfkcsvu0gtm3CjX3HGkPTHZuXA7p2yaGBEvrvpYenv7VOxeeON/yz5bpSkETl0AC7uuCRj81vi4UbIdrayNTdhhYGotJm5eB3JM3rxDALjBg/rD2oZoK6clOcqUqsbFyNc7xCppg0oLGpIyjKNCHAcEE4CsaYxb1VY+8Pe5PWqBMhYTif0IoySUTrb3bgMDy1WFzs+jzkOyzGyyfE8m0MsnensY5KSYJk0iUJ43cRUohnDjKSzxuKpyReacGeShbBPNrkJ22n3ETcR1v0LSyYEuikJ1TWvmQLi82A5xfyv1iqSSWd1HZQ+wv1POpXVOqnPv/iSnPfqM2WkZ6mMHipKzUvLtzfdI4vXrBcvOyL7Z3tkzdkXy9DIMtl3+KBs375D5pD97NXVpY96rdh33OguGVksV1zxRjnvvPPklltu0Vqsi0aWqNg88cSTVVireAkL9MOabS1/OC/Z3uZa81FLVgaaRGYjJF9uiTgMux5iwAM0BcAk0yx+c3MUdafjeOG5EWBGbMKzY7clKjbnufbbhKZustajbJU6ml/aqLXF1lJvkrSiJZAQqx1ax9uKw+v5E52gtLNQqye7WnfDrHUvktxoBWvzHBY2a8D60QoG1q2uVQzipsYtqghgvUd/8EMNh8B8Gxoe0JrLaN+6Z+cuzw8aW191xrkfHBrq/eExetnkZh3DBCg2j9GDUywWB2+6/fYvbXv2+UuGFy3KI17MxmzhLnTpyGJZt26dxtIdt2yZXnhx0cJFDCdInKBMALmxfNm776brMazFpwV+cecflkyx7hdrGWjPhrYnNCui4rH5Rctt0ovFau/sXw4zLvL20W4hPNrrdn/suraN8NGEXru1Mep+jq6PPjGwEEbHthwgxHXdSOxmVOCq2Gyrg2nHwfZbQYO/24VxU4C/TMwnXGy4mJmYUJMQhDBOtbvqMlDroGbKNyB8TeIQxI3pKY2VkBVdVcueseIizhSF2hGjiUxvWMBQ7qih8b2wbsCiifjf9773vbJ9xw4Tx5XNqFjA3ygBBMtj9//LZv7la39BLr34fLnt5q/Lsz+4Qy4+NS/9iZIc2r1LFg0smSc2v/Od61VsJpOwiE1LT09WO5jA1TwxgdhDkaGhXp3Lu3cfFiSZ5/OppvBCjctCIewzPjHRtFZCqEGMVquoWZmQ3r6ClGbLUpozcWZDQ4NSLlekWJzR4zwwgLqYIhNTk/pb0Y4olZqGD4AT6hGC7sQkeqO70jfYpzzHJsY1RrOgdSQXyfjkhP6u0DsdxxZxcPjdDAyasj/j46Pq2kbMaleuW+sewooE8WzFJCyrYAorEtZFbCl+w7ACapJTcVbHgsjH+6b2Z1wtpphbiPvE+729/Xp+QAIQbhqwD/htQBDi/Z6ePslkcrJn9z6p133pKfTpdzz93PNywXlnyUD3iIyNFqXqp+Vbt21RsRkUlsm+qS55zevfLJl8j+zav1f7w0M0j02Oq+Cvh3VaEXJRmjXxqldeeaWce/Y58tWvflW+8o/Xy+KlS7TDEJLRUEcV+4/fCMSmvbmNxlSq+ApLYWmRdTcIS10hpjEUZ+H7ELoQk7ZUFj5nnifMEq7ysFWlXaLIPGLNwUVrgEKUhh2cojfm9jzatJ62FXw3Ln39ZYcJQy3RaUUlfm/R91u35kak2koJenMdik57jrXnDH0eCt2WxdPcvKKaRvS8Zj9ztHOdfc+WScPz2RkTEoHzHOZuJqOljbQFJubzqatWy7JlS2V09PD+JUtG/nL1CSf8Qz6fP3SMXja5WccwAYrNY/TgHBgfX7Ppuxv/dNeuPWeNjIykn3v+hWy9Xg8GBwe9bCbj9fb1xSAm50qzrqnRVw/q9boXuqXcer3uBAj6NDXQ9F8sFvMTiQSWuFBhfZzs9D2zngkUCnv9Oni4rotx8Hr4nmn7Y0uWmJB288D3tYvN8K32edY080WyH/HpecJTy61DHeBcqz18mwXOm+s2GrXm2PPEolnZjqcszDjtFkZfX9OXg8Dx8S/MwteTuW3nhsbmrd00Tnbj2tJ9tlnkJqcHis9xMJorMR3VkZgxTwYwawSBA7MNnLCmyLOPv0AasXcmdwA3DLCW1RF5qXVAdYk4BAdWSbNhmoXu+44fJgOZffDFNyWPnGi5IzMdXMf3PSecL/F0JtmYKc64B/fucw9PjOevveba4PwLXpNA3N3TTzwhuUJBkoi1y2Ulm89pcW6IFAiHwd4eecdb3yYXnneOis2XnrhLXn1iQi2bh/fsVjf6xjselr6ePnnrz18u99x9q7iJmqTScc3G1mLy5blm9rfy9tBhJ61CC/PbZuNaV6ftmmIvyKZ+ZrwZz2gOkbH2aTtKLDNJ0088bGtpe1nHkams2dCIG0Xha1PP0NR2NOIc1l+NFQ2rEWhhQ3Gkt9+EqEAIWcFQ0dhT3HyZOGEbooExM2EheRUBHpp2mf7t6qIM4/m0Hmeq1btdbxJh0W40dF+se9/WCbVFy+FOx3zBzSYEnNlXtLY0tTkhwHFTh7mGGqFYt14LNAt/++4XZO0paySfLMhs0RMn2SP/euN3ZXDVaZIZOkn2TublvEuulnzvgOw5uF+mZ4paCmpmZlpmZou6qyhXBbEPcXbwwAFtV/kzV12tVrHPXfd5/+GHH64fv2KFf/yK451UKoXfSwyWV5xz8PtwXTeIiE0H5XPx00BZUJTIEhc/DRVjDl7XBrH4aUUeUQ8Cfo+uxFS8RetsImtLW1YiCz3MIrdu/JbLfn5spb3pbO8sZI5ZKwznaNsSHfNlvTdhmA3WtSWQoudQ65mxMZv2JlktuDgzvEy8uv0+zHnMBzt3bHyqWscToIQ444pm6BsXe1VDMczNTF1LkiWSsamRweHvnblh/Sd6e3ufZqzmMSoajvHNotg8Rg/QaKm0ePcL2y84cODAFY7jJPv6Bkd938tAMIo4PRCT9XoVJ2kXF7mYG687ruvNVcsavZTQpAkISvShdhviBkGj4fu+5wfQj7iTF5St8P3Aq3u+p3FxjhuPxR0XAwUeRJc2YwvQgyTw41p/GZoTJ2zUp4N7xlexZlpxhA3EIWms0hXfx6eg4LCOmlihHKFsgb5areOUHTqGjjwYnu9D1akTCSLKPKDeAt+4llzoNz1T69L2nzQKu+Wft7EDMT1VNpPjA63dhLKPUG+qANVvp8IZ/9fiiR5kWuA6ju8Ero89UEuoE34Y3d4CVyUf/vOkIY4fF7zk17W3sh9zE17gBn7CjXnIKYpDMTr6Oo6ABiNoFmwQC1wEwqJ+n98QN5GoA3VTzIcsHddVm0bMiQEQcLu6U76PCaJCE6/DvYhSWdCxRoYpd3y0humAK7bn+67rOIntO7evy2ay6759040rH3roYUlnjUs7l89LOpeXLEr6aCtGXwaGBqUnn5O3/fw1cu6Z6+XWm26QHc/cK2ct9aXXmZGxfXtl6aLlcvvGB0Ox+UbZctdNIrGKJFMoBZRWV/7czIyWZLFxl3Ada4/yINClibk0/Z1x4TSdg9AC0nQewvNE0iRR2PhFxCtGa1KGol0tarh4z5VNBrd24al7auWF8Ovt6ZfAN20AMZ0hxiBt4I5HIga2B2JzZqYo/YPDpi5no6phCsb6ZbwJcI9je5BohOfYBy1/hPq1sZhaXXHRB8dCd7cKawgCfAZVIrTuad2UtEEcKfbFukFRdxPrmp7vpmSSJvuppdrU4VQRrxUKWvHayNTXuEQHIQIxmSuZ2NdD4/vlpJUnSkoyUi47ku4alq/dtFHFZnZklRyY6pYNr369DIwslYPjozI+MSmI9UaoBsQmmkrgGKAeqsYHayWBA9qN7PTTT/dyudzTS5cuubU4U85NTk/G8vmuSizmZsu1SjyXyjiiM1DgBnf8mOvEAt/18LtAM3r9cfsxX5cN3Ai6jucn64EfFw8/sCDuBUEs8H393eoykHjDD9zA82MN38MvENIVtlF4AlACQj0Cji8u5Kq+H56L9Bfv+fZmU+++w7MITmm6neG9QXgawrabWNvw9xkp4xbeOLpuK6C7deNvzz8qsvVmVRzcp7Zsp3HzTbip15MRzpyoL2FFNm4oxXfi2sNdH7p6eOOisVKu4zjoKJXOZBwt7O+BrO+hPWoimUDLhLgnQQw1SCH41cIbj0ssHgvisbiXTqdrMXHKtXplx4krTrzp1FUn3oAhj9FLJjfrGCdAsXkMH6AgCArFoiSgKtCuebxc7urPZEqlUimVy+W8mRnxG93SQBj3DM7Xs7PxfD5fm8QZclKkFzkXaF0W/s/tFbcgItPT4U7rE5RJafZcdOx7TkGc7vAcOgWraFHQdjicLyi3lDfv5vV0bE6exXaYeAFxWq1lEHQFjlN0sDQnxohp1Iiq5pxEDXLp0RccbKc2HIEm7DYhi70iwYT5gLG6hkZZJCr3mm2yY9lxo0u7sc11JkRQSMmk10eKeoRhYI7frfaFpmk00sEu6AtfxxgRL2BrX0R8OGetlTn8cnvRsdtqrdBRkPbk/qO6dNj3o7/p6N/Rz4fs9ZYApjh8R7DtxRcvfP+v/fd/uPfOO1eiOHe1XlN3bCqdllQ2p/G93b09piWe60hfT0Hefu21smHdKXL7jd+Q3c/cJ+sXe5qNPnZgjyxbvFy+c9MWGRoYkF+69mflm9/8J8nmYpJJJWT84IQUutGZCkki8WahdSsC4Za1SQ0QbHAvq4Uw0hsdf0PgaLwjOqiIp+5TxEHWKlUViqgfil7deI4wA5iwkRQHUYnYQzy6Ct3SqJl4TrjLIWIxfdAKEPcamWxaxaZ2adH7KleGh0c0hhaiq6tgknIgKhEfaju+FGenmyLY7oO1Xmp7yplSs60rvhPbBBc1LvpoPwlB6YedjzAmntsMaitutNxRrSr5bE5FFPYTSwh4vGfrj2rLzExeDh06rKECuSxKIaXlxZdekjWnrJK0m5disS65niXyrY13y/Dq9ZIeOlEOz3bJmee9UfoWLZL9Y2MyO1eSMQ1haOjNJjpMaQexOZR9mpO5UkkF18TYOGJO65/+409/6sKzz/zTqSnpQu+HYlG0l6ffpdlgEgQF1XhhTXPknTi+3226yKIMpVtstuiBfipDQ5XhcKnEaq4bcx0n5tRw61sNqmqUTDuuU3O9spf0PC/uw4SJCd6A9vJcz4OIFcd3PNx2Orgv9PR7Ai98Lp7jhaJNXMdzcP+nd6I6WTw9R5i/UVHBr0LQho0vbfA53o9BmAYSN3etMBLgL9d1Gzhv4LnrOG6j0tDfaIB4kugjhjvyOO7CHfyp7iRdLwgcz7GpRWa7HHHicdgCxAlQXCPmJ0KvlhuXeNCQBiSigzO447pwBTmu78TrQZByHC+GnYrFkuhEII1qw4/HHQfPa3695jQaTqara9dgd/dex3FMXS0+SOCnIECx+VNA40dI4JVGAFbQh7ZufdP7P/Drf/X0M88c1z80JLCOw4WeLyDGsEsSsDCmTQ9muNn6+nvl537majl+yZBsuf0mGdvxmIzED0l/qiwzk4dloK9fbr75HslnU/LB979bvnr9l7X+o+N7Mn1oQvJpR7KFtLhxR0ZH5zRGs68va7KcDxvLXSbjqFsWsYezsyLDwyZm8+DBMa1lmUmlJJfNC4qbl2sNKeSz0tPfq67daSQRuaLJDxBDs+WS3tmg1zkSWyamzd3R4qX9Mjc7J6U5ZKaL9PQVVDCNTkzq7cqiRQV1OR44oLdxGqM50D8ok9NT4jue9GsMqG/qaDZMXUKIw7FxE6MJ4QcRCgvgxMS4xjXCSnpodFQqVWTiF3SdscOjkf7vprNQcdoUlkeHL4g5xH2ioQJuAiDyIHBRuxLlh8q1qkyMHVZBinJn+G5YipFpj/URNoDamLCC4jsRt/nCcy/KyuOPl0YtIXU/IT2DS+T2LQ/K8AmnSX7xKhmdy8rasy6WoeUnyNjMjBwaPahudLjjESOLmwA8KqVZI0CR2V+tSa1cxnuzH3j/r/3eJRe++rpjzSLWFvDTfh38Sa+LL7d+M/QmPF/YsKb/9NOH3d9oa0lo37YNsTfjxvvRDK/6T99cfuErkMBP+qN6BSLgLpEACYDAg1u3Xv7hD3/kH7a9+MLIAMRmMqk1WJEYhA4wcANn8hkVRqjRN9DXK5e+7iI5bmRQttx2s0zseEwWxcakL1WW0cO7padQkO9850EZGc7K+9/zq/Ltb/+bxnvGxRe3PIdqj+LFPfGCumYNIxkHWeNIGEL8JKyLKORus8dhZYRQ0haDgaPbA2EDl3qtWm1aLGHhrJYrKhph2UT2MSx+qUxS4Fb0fF/Q9xrPUawadTRLpTkpdPdqshWSJUxSHQJITKKVSQZBHC2cmY4Uunu0PidqcboJ07nFxPqaMjoQfBCHttySljpCAlfY+g/PIW4h6OcqNUHbSYyBz2q8XVjSCuWK4A5HrC6qBoA9RF21bNzi6Dlu229aV77GYsdNHCo8xyYu0cR0aj9sjfH2tIvOjpd2Sm/PoMzOelKc82Tx8SfKAz94SvqXnyKDK9bL4WJS1px9kQwff5KMFotyeOyQlGt1qVVRaqmm34F9QgMJTTjTlqd1qZUrMjk5Mfee97zn45dccN5fsn82zzEksLAJUGwu7OPPvScBJWAsm4+96Tc/9tEv7di9a7i3v1/iaO2YTmn/blgzU5mMxgRCMMJSNtjfJ+effbYsHuyRezfeJmMv/kBGEuPSHSvKoQO7tcPQLbc8IiPDeXn3O98h3/n2NyWVT4vjVaU3GZN0MiZTs0V1f+fzCNow4hJLPIfYw3OITIguiE7EHuJ9iNNsLikT0+OSSLvz3OUqGKs1GRwekNmZojgxR0UQYk7hbi9X57T0DTK0S9OI3zSxoEOLFquQsy08kVgEAQxBCUEFa6StgYlYyy7EtqB+qSZnNUxiEcICw0YCEHfa6Wd2OozR9JqJQRB8CFPo6e3V4vkJ7cNu6peqgEOWNUryJBB77WnWd6VSVoulrbOJ77PrQ8jaChTROp2IjVWh27A94VO6DeU5dI3yZXz0sCTiOZkp1mSqWJMTVq+VR595SQqLT5Alq86Sg1NxOfWs18rIylUyOVeR0fHDMleuSqXsSals4jQRnlBBP/p6wzQP8GrKf2p8fO7tb3/HJy9+zatg2fxRYSD8JZIACbyCCVBsvoIPLneNBH5cAkiF+t7WrVf979/+1N/tObh/sNDTq0ITGehWaDbd5319xrLZ0yNnn75ehgo5eXDzd2XftkdkOHZICvFZOXhgj+TSOdm88RFtIfnh3/h1+fo3/kUS2YTU5qYlVitJHNF4qHWYzqiIwz+Ma3uAm6xwUxhd3cF143LG63DfptMJqUlZcrmsJtloB6AgkL7+Hs2ONolCKHVkygTZ70DiD4Sdlt2qO9JT6DWJSOmUroewARSxLtcqKvy0uLW286xqchHc6L09JtC5jrqd6SwSS1Q8IssDxeZhQYSbPZfJqrUUMZXTxSktYaMxlehlXpxSIa/F1xNJtVDiYRM1bAwnYlqx37PTM6afe8KVTDrXzB6Gy97WHrWVFGzjBmt97Onq1UQUtAU1yVRZFdx7d+2WdConk9MVKdcCOfW0M2Trk9ukb9nJctyqs2X/dFxOOfMCWbLyVJmu1WV8ckwtsnOluhbcn6tVTfJSpaqWW20mgBa49Sr6cJffds1bfufiC87/M4rNH/eXyPVI4JVJgGLzlXlcuVck8BMRgNi8/5FHfvZ3f/8P/npsYnywu9CjmecQQxkkl2Szxn3e26viC9bNnu5uOW31SdKbS8gjd98hO5+8Vwadg1KIlWT80EHJpAuy6bsPaamf3/vdT8mXv/xFSeWTkog3pDRxSFzxJJFOSzpj4hkhjFasWN6sJwkLnK2DiZhNCC3Eb+J11ABEhx8IsUzeJM/Yci+Dg/06HgQpRNfw8KC6kLEOhBG2HTnJM5MzqNsgiwYXydTUhBbLh8u6t79PReF0cVY/hzZ+gdfQPuPV8owsO25EurozMjMzhVxejQFFEZ+ZYlG8uq8JR2hPiTqeqIMaS8Q1fnVsYlSLtiMOdqC/Xw4ePmCy1tH+M8y8h0DGNqfTKc3shmiGZRd1NmGlHR0dVbHZ1zugiT5joxDdWbU4Q3DjHyyi2Ec8JiempVary2DfoJa3GRudUNGOGNzuXF4O7NsvCTcpu/dMiMSTsnb9ennk35+V5avXy9DKdTI6l5FVG86XxStXSamGONcpmS2VVWyW5mpSbtQE/bkbVQhtJGRVdJ8gNg8fPFS69ufe/H8uufA16KNNy+ZP9IvkyiTwyiJAsfnKOp7cGxL4qQggWeDehx669o/++E/+YrpUHMx1davQhBCC+xhiBtY19DmHkMG/QleXnLTyOMnHA9l67x3ywmN3yaBzQLrcWZk4PCrZZLdsvG2rZDMF+d1P/Y786w1fk7l6SZIpR2qzY5o6K25SUIrFtpFE1rSW7gn7gNsMdIg+PGyzAVMXMxlmRaP+gCMJtJf0PM2ah1UQJTFhYdSYzOKsZtAjFTmRSmhMJEpCod4khNfcHEooaQ2r0LqIbWpIzDUJUegdX6uXxWvMSXchJam0K6W5GRWSakUMEFNperhrD/B0WsUxPOoQX0YMoltTTd/H84mJMWkEJk6zK5fT97G/EJemO5JxSyNWU1thosSSxoz62nISBebrNVfjWHGMIDItR93mBpJ40BozidJoUvdMcwdsk1pwM12STaalNF2WZ57eLkEsIWs2rJdHn94mq844R3qXrJapRl5OWvdqGTlhlVQ8kcmZaRWbpdmais1SrSIV7HfNtP2EhTOOkkINT/Yf2Dv75quu+vRlF13wmWMtQein+pHwQyRAAj81AYrNnxodP0gCrxwCEJv3PPzwL/z5Z6/7bLlWHcrk8k2rphWacGdDbGIJqyZeXzaySODM3vq9TfL89zfLoLNPupySHN5/QJJut9z4rR9Kbz4n737ne+XAwcNSatQkFvclF/fFa1Sk5jVMnfqw9g3EUbSLi5YbUgFmWjzC1Wz7WGt7ybAlXzqRFieOmjaBVBt1SSeSmrjTQP1Kx9GEGsScIv22DkGKFoDJlJQqngrGhleVRMKRRBL94WclpQlKKP6NpCJf0APbjTXUKuvGqtLTl5GYa7pL2W0w7TVNa0AVd/W6xprafYMb3u6bFphHG8uYK9VaWWt6QgCaBCFfYzhhDNSkqDraiZrY0WwWYhw95dF73RVpoN2gp3XB8MA2gKFpcKCFGnU9FM+BhVML0Dsx446XpDjVQA4dmJDtL+0Siafk5LWnylMvvignbzhbBo5bLZP1jJy4/tWy+ITVUnfjMlOaVbFZnK1qzGaxXJG5SlljNAOvrmITLRBhx9y3f8/MlZdf/pnLLroAls1WQcpXzs+Ge0ICJPBjEqDY/DFBcTUSeCUTgBv93kceedtf/tXf/Gld/OFcLq9F3bt7eppWzd5CIXSfF6RQ6FbLJroDuV5Zvv+9zbLt+9+VAWef5INZObhnt7h+Vu69+1kZ3S+ydKRPCj39UgkCqVRmZaArI6XStMQQP2k6WqlQglBD7CWEmu1LbQWdJrp46OhjhJkRZxB4gVrvYBlEBx3bPadYnNbkH2SEw+KILHfbxlOzx92YzDUQY5kRP0Av9bImIUH8IfsebR39GortuxpT6cRqkkmJZHK+rFgxIvl8XJJuINWyKcoOC6frxPVvfI9mf8eMZRQiGSIQohIP7B9iWdOphJTLc9p/HaIa3Yqwn5lUUuIJ7S6lYjWTTWlYAMa2vbGrlbrGiMIaDAGNrj4Qo5q002io5RNivlgsaS90WENRJxPbCAGK2qLxRlwO7UerybqK7xPXnCzP7dotJ6zdIItOXCvj5aSccPqrZdnJa8QD4wragFaaYrNUrUmpPKf1NmH9LZfmtMg+DMT79+2ZuuKyy/70sosu+FPHcaCO+SABEligBCg2F+iB526TQJQAxObdDz74jr/70pf/2HdQh31Q3c9dhYKMjIxoPUu40YcHB7XOIwTU0MCQdGUzMjM2JS88vVUef+AmyVWel0KyLGP790u16MmWO3dLeUqkXjXtTRpatkgkHnYCcLWktHnNdhKNdBQNS1kf/Vihwr6HBiu2KmB0GX4kbPwyb/zmazAM2s+bXjFqZcXDVhLHU2w7XMOJlAi0IhLnV60qSDbdkIRX0d4v6DoIS6LXiHZJhaicv+2mVaYxROIfOk0iUQo1RpEPhaVm38dN321kw8PaibLlWnS+BiFpxjTNZdDiU0S7OsbMEt8Jpvg86tY3uxYEIjCC2m3FSqb1jkij7kilEcjK1SfK3vExWbnmdBk5aa2MlpKy+qyL1LLppDNSbjQ0G10ThKrISJ+T6WJRyqWiimvEqKKtKsoq7dzx0tQbLrvsz15vYjYpNnnKIYEFTIBicwEffO46CVgCEJt3PvjgO6+//p//IJ5ODQ0NDZuSR/m8JgQhgaW/t0/LHSHDGmIzEUtI0kmJ69flvs03y45ntki+sVOywYRsf/5ZSblZeeyRA1KfE0EvzXgsKQ0HGeMiSe1u6kngOqL9V1Bf2g3CntZ+c4mOQOgEBBWIpe1BjyWEpsQSKhDbe96b/Wo1jDICFt9pRBokmBGX6DmPd2oiDrriwPeM7UAZI/SLNj3GYw76aiO+siq1RllOX79C4m5VksGcOD7aN6LGpulMqH3s9W/EV7Z6n7e20TSOgoUyif7U6i5Hy0CTiQ7R6DZ7xATN1/AZm22OrtbaYidAO1Io3UB7fmOJVpX6tRgQ4lLbM6Jdo+kACWuv0vAR83A9cxAAACAASURBVInE+5iWP6rU6tI7PChPPveCrDxtg6xce67sHqvJmrMvlpVrzhA3k5XZalWqNV9q1UAq5ZpMz81qe06EHpTLJWloa826JNyYbH/pxalLL3ndn1/+2gv/mG50nmtIYGEToNhc2Mefe08CRngEgbv5gQfee8MN3/y9fE/3ELK+UfYIcZnIQkdPbvydSSS0jA+snDCT9ebz4vqB3LXp2/LEI7dKuvqiZGVSXnj2acmms+L63eLUIUrR3zwlVYgeP5CE9j5FI72GeC56yTvioRfgyyzRyBrv26WKJwelh5BXbkSd/WfrXCL2EfGMWKq4DCAIsa+2O6grjYo5BWLsIDBWOSNFIcjQktskJdWrcLMHkk6ZUMnLX3+mdHfHJZ1EC0zESJpxtEd12JjFxm/amM32hGyITAdNr93wc9phFd3rjesc65vi8vjbnqpNbCY4IBYVS9T51LymGPq5ij7Hd0N8xiRm+EAMI//fCzR2EzGblVpDKvVAJqbLWjdzdHxS0tmc7Dw4K2edd7acevZr5entE7LunEtk/asuknRXQSr1htQbItWKL5NTM1KpV2S2ZMQmMuFNj/SqWlNfeOF5KzY/zQQhnmhIYGEToNhc2Mefe08CVmzGNt/3vfffeMstnxpYNDyEou0Qm8hyxj+Izf6eXsmmUpJNmQx1x2tIwnVkrjgpTzz6kGzZ+DXJ1HfISJ8r01Oj4gRxcb20iJ+QTCyhWee10KkLsQmbIoSmsSbC4gYrnkmMgfUNS8Rimjb3EFlGREWfQ2BBRmnHHVguPb/5HKsi+9x8xLwfXcJymXTSTYFrxGhonQy3M2gEJpYUBcuDuqSSrjiuJ+ectV66utOaNOS45nPGWmitmaGIRTJSUyzasc2kc6AMEQugNkcjeB24ytGrGlnjjh+KRbv3cO/HVGS7gRHb4Y2CimNYRJuiNDCxpnDtm+8HTyd0s6P7T0XK9YaWM6p6gXgNV0qzVRWok6Wy9C8+XlKFxbL1h7tk3TkXybkXXSpuKiuz5TkzZpCUWfRDr5SkOFeU0kxJECMLEVtD3IEfyHPPPTd1ySUXffYNF1wEsckEIZ5rSGABE6DYXMAHn7tOApZAEATxO+9/8AN33H3nby9dvnwYGee2cxAsm7Bmov92b3e3Ws/glEWsohvUZXZmQrbcfadsvX+jJBt7pCsNYVaT2lxNuvJDmsSCRBq4o2twEyPhJgYZKJJIZlUAWTkFsWncyUZ0qoUuIj6tCFVXsPP/Cng6NXV7I/vZikos7XOU4DHPscWt9fA+Mtd1CB+mRePaVsEaCkYISJRO0iLraA2JTkReXdyYI7l0SuJoNYksbHV5myx0WFKxtALTtLjEfvgm5tKDBdVYTyEwjUhFmADEMIIvzdKIZNgijZjWMAN15cfFicX1uYYVOHCSe02xaY8nxGe7RdQIUbM/SBLCdjew7XEI7riGOehojivVhsh02ZVt2yfk3Asulcv/25slmcsYVzkSsySlbvdyoyKlcklmZ2alWJzRRCiUakLHpm3btk1fcN7511164YV/SLHJcw0JLGwCFJsL+/hz70nAWsfim7/34Ifuu//+j608+aQhCExkoyM2E7Ga+UxW8rmc5JKm2Dgsmsg6dtyGiqYbvvENqcwclkJiVurlMbVFokOP62SkXoMoramIqoZxmgkIsAaKfzviQQ16cP82dAmLnrqJ3UASLmIyfYkjgxpJNCqSAl3Cwuj5FV1GYz6bsZ9a+cdk5NilXc+IN19SGvtoLIhwS0OMNUWpZrm7Wu8S70MEY5+ScVNeKJFMSz1w1RqoVkMYKsNWlXgO97u1POJ1tJ00wjN01WvMZqI5A+3rNgPd1MQ0IthIU0hQiEhkWbniO564qvztOnYoawk2n7Cf13JI5qvNGK4j8XRKag1fKqW6Ztzj+9ABqQ4BnsjJ89sPy6rTzpLXXHyxvo76ogG6KZU9U0g/FpdSbU7bilrLJqymiN185plnZs4586zPUmzyJEMCJECxyTlAAiQAEZS84577/ufDP/jBR1avXTMAN7mKzXRGyx1153MqRlwvUIGUTcakUqtKJahLJpWVBx95VHq7cjKYE/FqJS1nFDhwgaPsEDyoFfECT8peXUVlHMa8eqOZrALLI/QULHnWooel9aDb99vXQ6mgqDg1bubQ/QydCYuhA53qqCXPvg8xi8ETyAOCG1stn0bQoQ4lnhm3vScx1I1EtrcWi0f8I9zlrrrX56qmxaRaEUOroWaPQ+C6qIEJN3tUBFq3NkIFHKnDhBjGaJqdbdUctVZRu0261KQj80/XjZtlVMRGpzPaR5rannGThARRHYpOFbIxJA+5EneTmtSDyFmUfqp6vsSTOTk4OivJbF4GR4ZlenZCegppSSddPXbVWkPqgUjFq2v3J5SegmUTYhP/nnzyyZnTT1v3ucsuuhiWTZig+SABEligBCg2F+iB526TwDxREgSpTffe/7HHHv/hb5x+xoY+dBBCz/He7h4VWxCdWmvS8yWbSkqlXJann3lGlp64QopzZZmarkpxckJKU4elND0lqL84V66J75n+5gmoS1ekBqslSv7A4ob4yogl0MY92ozrVvykFVMm5tG+j3FRR9I+2tfH63ANWwF3xHoOvr/WLIAOAecHrXhRxFTCJYy6nihaju9F8XivgfaRI2r1jbnGtW4NkAgVgLizAvDI5KCWoMQ6iM00D5MIhEczK13HMW5v0fACPDc8IWx1XQhhtaq24kGj7nMUhzcZ8kb8IgbWiFhTAB9D4ltTibSUZ0uSz6E/PGqAZiSFNqW5Pkkkk9Ldm5PDo4elqzspqYTaVyWeSGncJ7LfUdsT8ZwQm/iH2M0nnnhiZs3qUyA2/8hxnCp/cSRAAguXAMXmwj323HMSiAq15B333PPJJ5568oNnn312b1//oBQKXWp5zKSTKj5UnIQi8YknntDschSHfPDhrRpHiDjPibFx7eet8Y6JpIocjWWso9B5XTxNwjGlevDwNDt8fib50TPLW+tYIWc02tFbblvhZqyqR3/AOOj7DXWbw5XfymJvjQkXuoq5MBYT4g8i8/R1G7T+KHqmQ3hZS2ZLXLay0+22tL8Hi6Zx3ZtHMxM+tIoaV3zTLGpEZiQzXf8O22uCWTROFDGZ+lw7EplyTPZhxKlJtIqjpiec81oSyQS74jhrIX1sUUPksccek7VrT5XzzjtbnnzqaRkZGpbBwQFt54ki84l0SnvR1xp1DS/QuE2vIQ888MDMqtWr/uINF1wEyybFJs83JLCACVBsLuCDz10ngabQCYLYxrvv/oNnt21732svuqi3q6egogp9vCE8enJ5mZqZUQvnM08+JRMTU7J85Qq58657ZGxiSt2miF0sl6vSgAsWyUC1WpgR7WuvbC1SpHUuQ9cvtA0ypkMB1S7YsG3WJR19z3YWsiIJAjgq5KKCzK4bFWr2fdVbqPNpz4LhdtjPWIuhWivD91TU+YGsWLFCCl3davHU0kWwQKJeKOR4+NxmKZnwSGSLI3bUFGi362l7SnWjm25BeNiWliYxSmMBIvvXEpwqRrVIfpgJb6vhh/U3sW8aR6r/MwlSVqgbV7wnXiOSYBUR/VZwYvtuvvlm2b9vn/z8z/+8nHrqqXozkUma/u42zhRWTXBCzc/9+/dLd28PPjdzyupTPv/6Cy/8PSYI8VxDAgubAMXmwj7+3HsSsAIkfvudd/7RSy+99J43velNPcm0EZoQNLBqIkYPrRy3bv2BzJVKsnLFCfLggw/K7v0HpKvQo8kisGpBNEHSmHjGSlNYauZ3mKijrltY11TsxVXwRcViVCBaIRXtl26Fp4pMjBta/OznomLRurSjVr+oGI22KEJMZ7sobX4vOu1Y97jvy5IlSySTShthiFqZEJO6X6ZkkxWPpjd6xDUfvq81PF1jQTT1N03pJ/v9trh71Bppcp1arPQ9zwjUedZgo0+bxe41wx65V2FpJxuGoDU8VeC2QhPse1ZsYmyEEWy+4w558cUX5Vd/9Vdl5cqVcvjAQUEtVswJHPtkJq2uc3wHtvHw+JhsuXvLzKqTTvrC61/72t9nzCZPNCSwsAlQbC7s48+9J4GW2Ny0+TM79+x659VXX93jxpMqNvEPIhJWxH379su+fftUZDz66KNSrdZlrlbXepyw8EFowH1bbbQ6E7a65iA+0XTDMXUljdgMVHzZ5pBHHgxYy45mtbTWUY39PErWOSyRrf5BYcvGUOyqtAvftxnj0W9uWjpDK6MKwFAsx8JSRsctXaa9zSHC1fJo61yClAsBbLLcNWYUyg9Z65HX1a2NRKaYSWiy6zfXi1hZjQBtbaHdd93vSBRB1MJpite3LJmIKT0yXMELBWmrvqiNicX+WhGrveprNST8yNatW+Xaa6+VM0/fIDt27JD+/l4t8A+hjqLuyFiHRbs4V5KNGzfOHL902V+9/uKLITYr/KmRAAksXAIUmwv32HPPSaBJAHU2N91195/t3L3rV6666qoCxKZaNP1AsumE7DtwWB743kOyZs0aeeGFF2TPnj2STmcFFXLK1bokY8gKF82+huhEnCYsYq2ak6bGpXULW5EUC0ynnpcTlO0Wz5aL2Vj4tN2lFjmHnjPxhzb7PJqFrvXTI+vZ71cBaLerzbJpxZbJ4jYJNlgX+7Rs8RJJp9PiqtXySMultWxGLZ3t68F9bgQhPg8GKivD5604UCM2j36q1uz8tocVjPbl9oSreaITVs2w3acNEYiuX5kr63dDcCJUAgJz8+bN8u53vlPOPPMMGRs7rOEW+e68zJbmJJ5MaMwm1r/ppptmRhYt+ps3XHIJxKZJ2+eDBEhgQRKg2FyQh507TQLzCQRBkNi0Zct1e/bseceVV17ZlU5ltWh5Iu7K3n0H5ftbH5XTTjsNtRNl+/adWg5pZrYk2e4umZktSjqZllqjplYtWEMhWGzpHuPWDhNYtJxQ6FKHa9o32dWQcxJzJA43vGarw80sEjR88dE7PHw/usTrVmxaMdbuZo6+HhVtTfHmGVdy07UeCk5LZ57LHoIPpZR8X5arZTOjMY/NfWtzcbfHoLZvC3RiPN4qvv5ycad2u837Wgo+FKVG+Ibed93kaLZ+VFQiXT76HH83cIzipiNRM5s9rBBgBSdqik5PT2t8JiyXOJbbtm2TrQ8/LNdee42ceeaZMjk5rjGaeG98fFwGh4c0YQgxm4tGRv7uja973e9SbPKMQwILmwDF5sI+/tx7ErAiJbnp7js/t3fP/rf/t6uvyueyXWqlnJ6dlYcf2iorTjhRdu7cKXv37pWenj4VIJVqVeJpFAA3PctrnikjZF3fECzxMB7Txmka3EbcmZqPxqppi7jPr5PpSyqeatbNRIxj+3r4LpVeoeUvGo/Zbg08QngKisOjm040I7w1IbAvNv4zCGsb2SLpy5cvl2w2LYGHkIFoAs/8mEqb4BQVjNEpp33aw6LwVkxGRWc0y1xfD93zqPdpxaXNM58vLo0bHNn2OkYk+UetqWH7zrCaqAro6L+m+PQDjcXEd+N9xOLiZgIZ6rfdfqv8jw/9hqxYsVznyvDiEU0e0lamjiPXX3/9zJIli//+8ksv/R2KTZ5oSGBhE6DYXNjHn3tPAla0JG7ftOm6/QcO/tLVV19dyHcVVDhs/cEPBd2EYMWE0ETxbgiJhudJKpuV6ZlZSWUz6mKF8MO/arXctGqqmEOWtlrlWgGGVlDFY6mwO86RyS/qJo+U9GlaGdVSasa04jVqtYz+bZN6jnaYNbEI5ZzCxBv4sY8mUPW1UHhCbEJ0IUEIyTEagqpF5G3R+NYSelATbUL3PkQleGBp1zfb2ko+MpbLthJHYetJuw9GCJp9R33LpoC32eihhdPgDut6RupwRsUmrJtIIGq10pxfYgo94SGYYUHFOtZFjjJX//7kE7J54ya59tq3yLnnnqs3IEuPWyqlubJuEtzoAwODX7zistd9imKTJxoSWNgEKDYX9vHn3pOAFZvJjXds/OMDh8beeeWVVxZi8STqJMrQoiUqJB//9ydVdJTmKmq5gks1UHNlQjwrZLTNpBFKNhEICTVw+0azwpti0EUpoETYuccciJdzJR/tdSQc4REtfdQuOqOHt30MiMRogo1dN5ogZMMBIBIhuNLJlIYKnHDCCRJPmH7psB5q3CdEpIMOSK3e7GoJxX6GS7zffB6z2egRa2hYD9Nuq7GsthKoWkk/pnRRKwHL9FdvWiRDCY/apk1xiezzMCPd7msDn4m40YOIG91aOq1rPhrLaQ5WIPv37JXbbrtF3vKWt8j5558vlXpN+vr6lNXXbvja9HDfwBff9KYrfpvZ6DzRkMDCJkCxubCPP/eeBKzYzG3avOkz23fuecc111zTddddW2R40SJpNDx56plt0tVVkMnpKU0KKs3NqfBsoJtPEAttZ6aruHGPh+IJbu/QCqlVJMMEnVbijun1bcQZRBiKxseaSyTQqKs9XLa/H3VfoxMPbHhYolC6yXk3HcXt69H3TeeeVgejowlNvKbJQei8E4pNxDBCbKLOJsRmIoFQANNw3K5rx3pZK2nU7Y8EpWihdux/RHSjdFJUQJv6mLZbkI3DtD3XjXu8+T4SkBphM/TwdSs2VUBCZEKjhvU3VUyGYhNisT173b7W7NfuBJLPpDWO97bbbpOLLrpIrvmFtzZro958881jg70Df/+GN6hlM9wQ/uBIgAQWIgGKzYV41LnPJNBGIAgC59bbb//M6KHRd5+6Zk0vRM7kzLRsf2mHtiOE7CtXYdXs1rqKaFVY8zzTR1z/QeAZ4QSLoxFaka42kVJE6q6O9BO38ZtWTB5NZLaL0eZzlCLStuqmlFL7EhbH9te1rmdogVWrHxKN2nhY66a11GIbNcM+kdDliuXHh3VI4YI2XYaiYjNqmWwXn9HY0fY6oNF1TRhBq/anfW9ebKYWbg+FIXr+ePMTgUwJI62DdESCUNQKaq2W1l0etWpay2b0PWtRrVfKmjx06NAhueGGG9Sdfs0118jixYsqN910y+FEMvm1N13xhv/jOE6JPzoSIIGFS4Bic+Eee+45CTQJQGzeteWu33z4oe9/+Jxzzhnp7u7REkfj4xPS298vh0bHJJlOi+cFmsEM4QGhCVe6FhxykTEOi6apYakZ2qGCa3dfQz/FwnaKUStetJi73bCjud+jFkPTgedHi0wrOk39dCM2W58zcY1NMRc5K9pyR3hPE2RicRWVy5YtM73RHbR19ASJTeY/UzcTiUxqpPRQkskkNtn38TyaCBV9jvXwebwPC6211FrLLd7H95n/TBylD6NhxKJpSxgZMRnGbEYy1aPu8PaySO1JQtjvqBu9XYQ2qhWdC6i1ic5B3/rWt+Tkk0/23/e+9+3auHFjra+396uXX/766yg2ebIhgYVNgGJzYR9/7j0JKAGIzceffPKq+++576O9vX0n7dmze7DeaMCSGYxOjDu5bB4V271SpSrxWDzwPC9IpNJSb/iO4ziB4waoFAmRqToTY8KFHe3mgxX1qxzHVTHlBs0ykRFBakyiYcFJfAbjh4fJ/q3rhBZRs4SuQmxkpJ5mpN4m9BzcxoHjBw6W5rnvIEs7lJpN42a0dGU8Hg9gLdQvRr/30II5MDDgpdNJtaQixQY74sRQGgmRoL7ZMVeCFPrHI0LA/M8ukTbV8vFrlSdYaLFR2sky/LwJSYiKaVh0fXSU1/aTxjONElDRjj84lgZ0EFiXN7ochS+pQMV72B+1idri75ooFDhh5r3ub6PRwFL/DkVn829EDqTiCVg1ne7u7sB1XXdmZmbu7i13y4b1G2aOO3758+vWnnbdmjWrb6cbnScaEljYBCg2F/bx596TQJPAoUOHhicmpl/z5JP//jrHcQar1WoynsyU69VqEIvHG14QVAJxM74jmgINadlAWXfEXIoTxMOziWt9v1hCAKKlI0QeTKGIyFRN6roQqI3AdyFQYW6EwjL/U92KPHQX9SGbD7WiRqRgIL7W3RTxXEfNlaocA9dxHDQE1x7kYS8cmPjgvQ8k8FWMhXnuEFIIZIQzPQiMcla1pkstEOr5nsTcmDi+7yIZKhaIJFNJ33Xwl0jD8ZyYrxZJ1/EdtyF1cQLtgR4g5tR3GgGew5yqz11fsL7n+uLic5Hn9nUs8RG/4aOBfDP2FNvtBz4QwnmuVtZ5j2aJJohQJ3C8ACLYx17jM7pbDnZMLbXa6d1ThRvmrmunJDwxqf7JhKmDiu+EfdYJfBWfEJo4uo1yNZnv6nIaXqMBC2c8Fi+XZktpX/yZ5cuWP7xhw7rbcrncAf7MSIAEFjYBis2Fffy59yQwj0AQBJnZ2dkuz8vXY7HZhO/7DVitisWi22h0Ndxe06xHPzQl4vQYj3TolT7yfDJlhu/pEZnC+kYSQu011zX5MUUnCLoCLH/cQ2LWP3I8Y8Iz33G0pQrl8D37Xfhe3+/yXbfoYmm3Sbq6RIrYpq5w1aIuVRAf+YB1LwHRGlpno2v82Pv14+7/f7DevBDUpunSHjfJNz8a5ItmXbNbP+rRqiYvKEgfT/m+70GYe162Pjt7QEZGRrDvjampKbenp6fGkkc/CinfJ4GFQeA/8wS4MIhyL0mABEiABEiABEiABJoEKDY5GUiABEiABEiABEiABDpGgGKzY2g5MAmQAAmQAAmQAAmQAMUm5wAJkAAJkAAJkAAJkEDHCFBsdgwtByYBEiABEiABEiABEqDY5BwgARIgARIgARIgARLoGAGKzY6h5cAkQAIkQAIkQAIkQAIUm5wDJEACJEACJEACJEACHSNAsdkxtByYBEiABEiABEiABEiAYpNzgARIgARIgARIgARIoGMEKDY7hpYDkwAJkAAJkAAJkAAJUGxyDpAACZAACZAACZAACXSMAMVmx9ByYBIgARIgARIgARIgAYpNzgESIAESIAESIAESIIGOEaDY7BhaDkwCJEACJEACJEACJECxyTlAAiRAAiRAAiRAAiTQMQIUmx1Dy4FJgARIgARIgARIgAQoNjkHSIAESIAESIAESIAEOkaAYrNjaDkwCZAACZAACZAACZAAxSbnAAmQAAmQAAmQAAmQQMcIUGx2DC0HJgESIAESIAESIAESoNjkHCABEiABEiABEiABEugYAYrNjqHlwCRAAiRAAiRAAiRAAhSbnAMkQAIkQAIkQAIkQAIdI0Cx2TG0HJgESIAESIAESIAESIBik3OABEiABEiABEiABEigYwQoNjuGlgOTAAmQAAmQAAmQAAlQbHIOkAAJkAAJkAAJkAAJdIwAxWbH0HJgEiABEiABEiABEiABik3OARIgARIgARIgARIggY4RoNjsGFoOTAIkQAIkQAIkQAIkQLHJOUACJEACJEACJEACJNAxAhSbHUPLgUmABEiABEiABEiABCg2OQdIgARIgARIgARIgAQ6RoBis2NoOTAJkAAJkAAJkAAJkADFJucACZAACZAACZAACZBAxwhQbHYMLQcmARIgARIgARIgARKg2OQcIAESIAESIAESIAES6BgBis2OoeXAJEACJEACJEACJEACFJucAyRAAiRAAiRAAiRAAh0jQLHZMbQcmARIgARIgARIgARIgGKTc4AESIAESIAESIAESKBjBCg2O4aWA5MACZAACZAACZAACVBscg6QAAmQAAmQAAmQAAl0jADFZsfQcmASIAESIAESIAESIAGKTc4BEiABEiABEiABEiCBjhGg2OwYWg5MAiRAAiRAAiRAAiRAsck5QAIkQAIkQAIkQAIk0DECFJsdQ8uBSYAESIAESIAESIAEKDY5B0iABEiABEiABEiABDpGgGKzY2g5MAmQAAmQAAmQAAmQAMUm5wAJkAAJkAAJkAAJkEDHCFBsdgwtByYBEiABEiABEiABEqDY5BwgARIgARIgARIgARLoGAGKzY6h5cAkQAIkQAIkQAIkQAIUm5wDJEACJEACJEACJEACHSNAsdkxtByYBEiABEiABEiABEiAYpNzgARIgARIgARIgARIoGMEKDY7hpYDkwAJkAAJkAAJkAAJUGxyDpAACZAACZAACZAACXSMAMVmx9ByYBIgARIgARIgARIgAYpNzgESIAESIAESIAESIIGOEaDY7BhaDkwCJEACJEACJEACJECxyTlAAiRAAiRAAiRAAiTQMQIUmx1Dy4FJgARIgARIgARIgAQoNjkHSIAESIAESIAESIAEOkaAYrNjaDkwCZAACZAACZAACZAAxSbnAAmQAAmQAAmQAAmQQMcIUGx2DC0HJgESIAESIAESIAESoNjkHCABEiABEiABEiABEugYAYrNjqHlwCRAAiRAAiRAAiRAAhSbnAMkQAIkQAIkQAIkQAIdI0Cx2TG0HJgESIAESIAESIAESIBik3OABEiABEiABEiABEigYwQoNjuGlgOTAAmQAAmQAAmQAAlQbHIOkAAJkAAJkAAJkAAJdIwAxWbH0HJgEiABEiABEiABEiABik3OARIgARIgARIgARIggY4RoNjsGFoOTAIkQAIkQAIkQAIkQLHJOUACJEACJEACJEACJNAxAhSbHUPLgUmABEiABEiABEiABCg2OQdIgARIgARIgARIgAQ6RoBis2NoOTAJkAAJkAAJkAAJkADFJucACZAACZAACZAACZBAxwhQbHYMLQcmARIgARIgARIgARKg2OQcIAESIAESIAESIAES6BgBis2OoeXAJEACJEACJEACJEACFJucAyRAAiRAAiRAAiRAAh0jQLHZMbQcmARIgARIgARIgARIgGKTc4AESIAESIAESIAESKBjBCg2O4aWA5MACZAACZAACZAACVBscg6QAAmQAAmQAAmQAAl0jADFZsfQcmASIAESIAESIAESIAGKTc4BEiABEiABEiABEiCBjhGg2OwYWg5MAiRAAiRAAiRAAiRAsck5QAIkQAIkQAIkQAIkZZKWOQAAAtNJREFU0DECFJsdQ8uBSYAESIAESIAESIAEKDY5B0iABEiABEiABEiABDpGgGKzY2g5MAmQAAmQAAmQAAmQAMUm5wAJkAAJkAAJkAAJkEDHCFBsdgwtByYBEiABEiABEiABEqDY5BwgARIgARIgARIgARLoGAGKzY6h5cAkQAIkQAIkQAIkQAIUm5wDJEACJEACJEACJEACHSNAsdkxtByYBEiABEiABEiABEiAYpNzgARIgARIgARIgARIoGMEKDY7hpYDkwAJkAAJkAAJkAAJUGxyDpAACZAACZAACZAACXSMAMVmx9ByYBIgARIgARIgARIgAYpNzgESIAESIAESIAESIIGOEaDY7BhaDkwCJEACJEACJEACJECxyTlAAiRAAiRAAiRAAiTQMQIUmx1Dy4FJgARIgARIgARIgAQoNjkHSIAESIAESIAESIAEOkaAYrNjaDkwCZAACZAACZAACZAAxSbnAAmQAAmQAAmQAAmQQMcIUGx2DC0HJgESIAESIAESIAESoNjkHCABEiABEiABEiABEugYAYrNjqHlwCRAAiRAAiRAAiRAAhSbnAMkQAIkQAIkQAIkQAIdI0Cx2TG0HJgESIAESIAESIAESIBik3OABEiABEiABEiABEigYwQoNjuGlgOTAAmQAAmQAAmQAAlQbHIOkAAJkAAJkAAJkAAJdIwAxWbH0HJgEiABEiABEiABEiABik3OARIgARIgARIgARIggY4RoNjsGFoOTAIkQAIkQAIkQAIkQLHJOUACJEACJEACJEACJNAxAhSbHUPLgUmABEiABEiABEiABCg2OQdIgARIgARIgARIgAQ6RoBis2NoOTAJkAAJkAAJkAAJkADFJucACZAACZAACZAACZBAxwhQbHYMLQcmARIgARIgARIgARKg2OQcIAESIAESIAESIAES6BgBis2OoeXAJEACJEACJEACJEAC/xc5/CKWAg3NSgAAAABJRU5ErkJggg==;" parent="1" vertex="1">
          <mxGeometry x="90" y="630" width="130" height="72.75" as="geometry" />
        </mxCell>
        <mxCell id="CFl3t25OoQzxc6tuMggZ-3" value="" style="rounded=1;whiteSpace=wrap;html=1;" parent="1" vertex="1">
          <mxGeometry x="170" y="210" width="140" height="30" as="geometry" />
        </mxCell>
        <mxCell id="CFl3t25OoQzxc6tuMggZ-5" value="Tela de cadastro&amp;nbsp;" style="text;strokeColor=none;fillColor=none;html=1;fontSize=24;fontStyle=1;verticalAlign=middle;align=center;" parent="1" vertex="1">
          <mxGeometry x="420" y="100" width="100" height="40" as="geometry" />
        </mxCell>
        <mxCell id="CFl3t25OoQzxc6tuMggZ-6" value="&lt;font style=&quot;font-size: 14px;&quot;&gt;Nome Completo&lt;/font&gt;" style="text;html=1;align=center;verticalAlign=middle;whiteSpace=wrap;rounded=0;" parent="1" vertex="1">
          <mxGeometry x="170" y="180" width="110" height="30" as="geometry" />
        </mxCell>
        <mxCell id="CFl3t25OoQzxc6tuMggZ-7" value="" style="rounded=1;whiteSpace=wrap;html=1;" parent="1" vertex="1">
          <mxGeometry x="170" y="270" width="140" height="30" as="geometry" />
        </mxCell>
        <mxCell id="CFl3t25OoQzxc6tuMggZ-8" value="E-mail" style="text;html=1;align=center;verticalAlign=middle;whiteSpace=wrap;rounded=0;" parent="1" vertex="1">
          <mxGeometry x="170" y="250" width="60" height="30" as="geometry" />
        </mxCell>
        <mxCell id="CFl3t25OoQzxc6tuMggZ-9" value="" style="rounded=1;whiteSpace=wrap;html=1;" parent="1" vertex="1">
          <mxGeometry x="170" y="330" width="140" height="30" as="geometry" />
        </mxCell>
        <mxCell id="CFl3t25OoQzxc6tuMggZ-10" value="Senha" style="text;html=1;align=center;verticalAlign=middle;whiteSpace=wrap;rounded=0;" parent="1" vertex="1">
          <mxGeometry x="170" y="310" width="60" height="30" as="geometry" />
        </mxCell>
        <mxCell id="CFl3t25OoQzxc6tuMggZ-11" value="" style="rounded=1;whiteSpace=wrap;html=1;" parent="1" vertex="1">
          <mxGeometry x="710" y="260" width="140" height="30" as="geometry" />
        </mxCell>
        <mxCell id="CFl3t25OoQzxc6tuMggZ-12" value="Telefone" style="text;html=1;align=center;verticalAlign=middle;whiteSpace=wrap;rounded=0;" parent="1" vertex="1">
          <mxGeometry x="710" y="240" width="60" height="30" as="geometry" />
        </mxCell>
        <mxCell id="CFl3t25OoQzxc6tuMggZ-13" value="" style="rounded=1;whiteSpace=wrap;html=1;" parent="1" vertex="1">
          <mxGeometry x="770" y="310" width="70" height="30" as="geometry" />
        </mxCell>
        <mxCell id="CFl3t25OoQzxc6tuMggZ-14" value="Sms" style="text;html=1;align=center;verticalAlign=middle;whiteSpace=wrap;rounded=0;" parent="1" vertex="1">
          <mxGeometry x="770" y="290" width="60" height="30" as="geometry" />
        </mxCell>
        <mxCell id="CFl3t25OoQzxc6tuMggZ-15" value="" style="rounded=1;whiteSpace=wrap;html=1;" parent="1" vertex="1">
          <mxGeometry x="720" y="360" width="120" height="30" as="geometry" />
        </mxCell>
        <mxCell id="CFl3t25OoQzxc6tuMggZ-16" value="EndereÃ§o" style="text;html=1;align=center;verticalAlign=middle;whiteSpace=wrap;rounded=0;" parent="1" vertex="1">
          <mxGeometry x="720" y="340" width="60" height="30" as="geometry" />
        </mxCell>
        <mxCell id="CFl3t25OoQzxc6tuMggZ-17" value="" style="rounded=1;whiteSpace=wrap;html=1;" parent="1" vertex="1">
          <mxGeometry x="180" y="400" width="100" height="30" as="geometry" />
        </mxCell>
        <mxCell id="CFl3t25OoQzxc6tuMggZ-18" value="Data de Nascimento" style="text;html=1;align=center;verticalAlign=middle;whiteSpace=wrap;rounded=0;" parent="1" vertex="1">
          <mxGeometry x="167" y="375" width="126" height="30" as="geometry" />
        </mxCell>
        <mxCell id="CFl3t25OoQzxc6tuMggZ-19" value="" style="rounded=1;whiteSpace=wrap;html=1;" parent="1" vertex="1">
          <mxGeometry x="740" y="210" width="100" height="30" as="geometry" />
        </mxCell>
        <mxCell id="CFl3t25OoQzxc6tuMggZ-20" value="&#xa;GÃªnero&#xa;&#xa;" style="text;html=1;align=center;verticalAlign=middle;whiteSpace=wrap;rounded=0;" parent="1" vertex="1">
          <mxGeometry x="760" y="190" width="60" height="30" as="geometry" />
        </mxCell>
        <mxCell id="TcnWLBrRtndyIAi26Xvr-1" value="" style="rounded=1;whiteSpace=wrap;html=1;" vertex="1" parent="1">
          <mxGeometry x="180" y="460" width="120" height="20" as="geometry" />
        </mxCell>
        <mxCell id="TcnWLBrRtndyIAi26Xvr-2" value="CPF" style="text;html=1;align=center;verticalAlign=middle;whiteSpace=wrap;rounded=0;" vertex="1" parent="1">
          <mxGeometry x="180" y="440" width="60" height="30" as="geometry" />
        </mxCell>
        <mxCell id="TcnWLBrRtndyIAi26Xvr-3" value="" style="rounded=1;whiteSpace=wrap;html=1;" vertex="1" parent="1">
          <mxGeometry x="720" y="445" width="120" height="25" as="geometry" />
        </mxCell>
        <mxCell id="TcnWLBrRtndyIAi26Xvr-4" value="Numero do MEI" style="text;html=1;align=center;verticalAlign=middle;whiteSpace=wrap;rounded=0;" vertex="1" parent="1">
          <mxGeometry x="720" y="420" width="120" height="30" as="geometry" />
        </mxCell>
      </root>
    </mxGraphModel>
  </diagram>
</mxfile>
